G04 #@! TF.FileFunction,Soldermask,Bot*
%FSLAX46Y46*%
G04 Gerber Fmt 4.6, Leading zero omitted, Abs format (unit mm)*
G04 Created by KiCad (PCBNEW (2015-06-20 BZR 5796, Git fe7bc27)-product) date 31.08.2015 09:12:52*
%MOMM*%
G01*
G04 APERTURE LIST*
%ADD10C,0.100000*%
%ADD11R,1.200000X0.750000*%
%ADD12R,1.200000X0.900000*%
%ADD13C,1.524000*%
%ADD14C,1.400000*%
%ADD15C,1.600000*%
%ADD16R,2.400000X2.400000*%
%ADD17C,2.400000*%
%ADD18C,6.000000*%
%ADD19R,2.000000X2.000000*%
%ADD20C,2.000000*%
%ADD21C,0.900000*%
%ADD22C,0.700000*%
G04 APERTURE END LIST*
D10*
D11*
X139634000Y-64770000D03*
X137734000Y-64770000D03*
X139634000Y-62230000D03*
X137734000Y-62230000D03*
D12*
X152316000Y-57912000D03*
X154516000Y-57912000D03*
X154516000Y-60198000D03*
X152316000Y-60198000D03*
D13*
X137616000Y-51308000D03*
X131116000Y-51308000D03*
D14*
X109750000Y-80500000D03*
X106250000Y-80500000D03*
D15*
X150142000Y-78486000D03*
X153642000Y-78486000D03*
X148642000Y-78486000D03*
X141732000Y-86642000D03*
X141732000Y-90142000D03*
X141732000Y-85142000D03*
X110750000Y-65000000D03*
X107250000Y-65000000D03*
X112250000Y-65000000D03*
D16*
X128778000Y-84074000D03*
D17*
X125278000Y-84074000D03*
X121778000Y-84074000D03*
X128778000Y-89074000D03*
X125278000Y-89074000D03*
X121778000Y-89074000D03*
D18*
X107950000Y-91694000D03*
X107950000Y-48694000D03*
X153950000Y-91694000D03*
X153950000Y-48694000D03*
D19*
X114380000Y-48514000D03*
D20*
X116880000Y-48514000D03*
X119380000Y-48514000D03*
X121880000Y-48514000D03*
X124380000Y-48514000D03*
X144800000Y-51308000D03*
D19*
X147300000Y-51308000D03*
D21*
X130810000Y-60198000D03*
X132080000Y-60198000D03*
X133350000Y-60198000D03*
D22*
X160020000Y-74676000D03*
D21*
X166370000Y-45974000D03*
D22*
X162560000Y-50038000D03*
D21*
X157480000Y-45974000D03*
X136144000Y-63500000D03*
X162560000Y-47752000D03*
X140000000Y-46000000D03*
X145000000Y-46000000D03*
X150000000Y-46000000D03*
X140000000Y-57000000D03*
X145000000Y-57000000D03*
X145000000Y-55000000D03*
X140000000Y-55000000D03*
X139000000Y-50000000D03*
X143000000Y-50000000D03*
X141000000Y-52000000D03*
X156000000Y-86000000D03*
X156000000Y-81000000D03*
X156000000Y-76000000D03*
X156000000Y-71000000D03*
X163000000Y-94000000D03*
X158000000Y-94000000D03*
X148000000Y-94000000D03*
X143000000Y-94000000D03*
X138000000Y-94000000D03*
X133000000Y-94000000D03*
X128000000Y-94000000D03*
X123000000Y-94000000D03*
X118000000Y-94000000D03*
X113000000Y-94000000D03*
D22*
X165862000Y-51308000D03*
X149606000Y-60452000D03*
X158496000Y-67564000D03*
X157734000Y-60960000D03*
X146304000Y-62738000D03*
D21*
X123952000Y-73660000D03*
X122682000Y-73660000D03*
X121412000Y-73660000D03*
X120142000Y-73660000D03*
X120142000Y-74930000D03*
X120142000Y-76200000D03*
X122174000Y-79502000D03*
X124714000Y-79502000D03*
X124714000Y-77470000D03*
X122174000Y-77470000D03*
D22*
X151638000Y-62484000D03*
X141986000Y-65024000D03*
X125476000Y-73660000D03*
X143002000Y-70612000D03*
X128524000Y-72898000D03*
X137414000Y-72898000D03*
X121412000Y-61976000D03*
X126746000Y-61976000D03*
D21*
X129032000Y-63500000D03*
X129032000Y-65024000D03*
X130810000Y-62992000D03*
X132080000Y-62992000D03*
X129794000Y-68580000D03*
X133096000Y-65786000D03*
X134112000Y-69342000D03*
X134112000Y-70866000D03*
X132080000Y-71628000D03*
X130810000Y-71628000D03*
D22*
X132334000Y-67056000D03*
X141732000Y-64008000D03*
D21*
X121666000Y-63500000D03*
X121666000Y-65024000D03*
X123444000Y-62992000D03*
X124714000Y-62992000D03*
X122428000Y-68580000D03*
X125730000Y-65786000D03*
X126746000Y-69342000D03*
X126746000Y-70866000D03*
X124714000Y-71628000D03*
X123444000Y-71628000D03*
D22*
X123698000Y-67056000D03*
X141478000Y-62484000D03*
X161036000Y-65532000D03*
X161036000Y-75438000D03*
X159512000Y-52070000D03*
X165354000Y-68326000D03*
X166624000Y-52070000D03*
X141224000Y-61214000D03*
X117856000Y-62484000D03*
X164084000Y-67310000D03*
X149860000Y-55626000D03*
X162814000Y-58420000D03*
X164084000Y-63246000D03*
X162052000Y-76962000D03*
X161544000Y-55372000D03*
X163068000Y-51054000D03*
X161798000Y-71882000D03*
X161798000Y-64516000D03*
X147066000Y-61722000D03*
X158242000Y-52070000D03*
D21*
X147828000Y-75946000D03*
X145796000Y-75946000D03*
X145796000Y-73914000D03*
X143510000Y-73914000D03*
X143510000Y-75946000D03*
X141478000Y-75946000D03*
X138938000Y-75946000D03*
X136652000Y-75946000D03*
X134112000Y-75946000D03*
X134112000Y-79502000D03*
X131318000Y-79502000D03*
X128270000Y-79502000D03*
X128270000Y-77724000D03*
X131318000Y-77724000D03*
X134112000Y-77724000D03*
X150114000Y-73914000D03*
X147828000Y-73914000D03*
X150114000Y-75946000D03*
X132080000Y-81280000D03*
X130048000Y-81280000D03*
X128016000Y-81280000D03*
X132080000Y-83566000D03*
X132080000Y-85852000D03*
X134366000Y-83566000D03*
X134366000Y-81280000D03*
X147828000Y-80518000D03*
X145796000Y-80772000D03*
X145796000Y-78486000D03*
X138176000Y-80772000D03*
X145796000Y-82804000D03*
X144018000Y-84582000D03*
X144018000Y-82550000D03*
X141986000Y-82550000D03*
X144272000Y-80772000D03*
X141986000Y-80772000D03*
X139954000Y-80772000D03*
X139954000Y-82550000D03*
X139954000Y-84582000D03*
X139954000Y-86614000D03*
X138176000Y-86614000D03*
X138176000Y-84582000D03*
X138176000Y-82550000D03*
D22*
X152146000Y-68580000D03*
X145034000Y-67056000D03*
D21*
X123444000Y-60198000D03*
X124714000Y-60198000D03*
X125984000Y-60198000D03*
X110744000Y-60960000D03*
X110744000Y-62992000D03*
X110744000Y-69342000D03*
X112776000Y-69342000D03*
X112776000Y-67310000D03*
X114554000Y-69342000D03*
X114554000Y-67310000D03*
X114554000Y-65024000D03*
X114554000Y-62992000D03*
X114554000Y-60960000D03*
X112776000Y-62992000D03*
X112776000Y-60960000D03*
X110744000Y-67310000D03*
X118618000Y-78994000D03*
X116078000Y-83312000D03*
X116078000Y-81280000D03*
X116078000Y-78994000D03*
X121158000Y-59944000D03*
X121158000Y-58420000D03*
X121158000Y-56642000D03*
X121158000Y-55118000D03*
X121158000Y-53594000D03*
X123190000Y-53594000D03*
X123190000Y-55118000D03*
X124968000Y-56642000D03*
X124968000Y-55118000D03*
X124968000Y-53594000D03*
X126746000Y-53594000D03*
X126746000Y-55118000D03*
X128524000Y-59690000D03*
X128524000Y-58420000D03*
X128524000Y-53594000D03*
X128524000Y-55118000D03*
X128524000Y-56896000D03*
X130048000Y-55118000D03*
X130048000Y-53594000D03*
X131826000Y-53594000D03*
X131826000Y-55118000D03*
X133858000Y-56896000D03*
X133858000Y-55118000D03*
X133858000Y-53594000D03*
X135890000Y-53594000D03*
X135890000Y-55626000D03*
X135890000Y-57658000D03*
X135890000Y-59436000D03*
D22*
X160274000Y-51308000D03*
X163068000Y-67564000D03*
X163068000Y-63500000D03*
X146812000Y-59690000D03*
X161544000Y-56896000D03*
M02*
