G04 #@! TF.FileFunction,Soldermask,Top*
%FSLAX46Y46*%
G04 Gerber Fmt 4.6, Leading zero omitted, Abs format (unit mm)*
G04 Created by KiCad (PCBNEW (2015-06-20 BZR 5796, Git fe7bc27)-product) date 31.08.2015 09:12:52*
%MOMM*%
G01*
G04 APERTURE LIST*
%ADD10C,0.100000*%
%ADD11R,0.750000X1.200000*%
%ADD12R,1.200000X0.750000*%
%ADD13R,0.797560X0.797560*%
%ADD14R,0.600000X1.550000*%
%ADD15R,1.200000X0.900000*%
%ADD16R,0.900000X1.200000*%
%ADD17R,1.200000X0.400000*%
%ADD18C,1.524000*%
%ADD19C,1.400000*%
%ADD20C,1.600000*%
%ADD21R,2.400000X2.400000*%
%ADD22C,2.400000*%
%ADD23C,6.000000*%
%ADD24R,1.200000X1.200000*%
%ADD25R,1.800860X0.800100*%
%ADD26R,0.800100X1.800860*%
%ADD27R,2.000000X2.000000*%
%ADD28C,2.000000*%
%ADD29C,0.900000*%
%ADD30C,0.700000*%
G04 APERTURE END LIST*
D10*
D11*
X137668000Y-60010000D03*
X137668000Y-61910000D03*
X119888000Y-59756000D03*
X119888000Y-61656000D03*
D12*
X144592000Y-68326000D03*
X146492000Y-68326000D03*
X144592000Y-70612000D03*
X146492000Y-70612000D03*
D13*
X162052000Y-85077300D03*
X162052000Y-83578700D03*
X159004000Y-85077300D03*
X159004000Y-83578700D03*
X165100000Y-85077300D03*
X165100000Y-83578700D03*
D14*
X132715000Y-70198000D03*
X131445000Y-70198000D03*
X130175000Y-70198000D03*
X128905000Y-70198000D03*
X128905000Y-75598000D03*
X130175000Y-75598000D03*
X131445000Y-75598000D03*
X132715000Y-75598000D03*
X130175000Y-64168000D03*
X131445000Y-64168000D03*
X132715000Y-64168000D03*
X133985000Y-64168000D03*
X133985000Y-58768000D03*
X132715000Y-58768000D03*
X131445000Y-58768000D03*
X130175000Y-58768000D03*
X125349000Y-70198000D03*
X124079000Y-70198000D03*
X122809000Y-70198000D03*
X121539000Y-70198000D03*
X121539000Y-75598000D03*
X122809000Y-75598000D03*
X124079000Y-75598000D03*
X125349000Y-75598000D03*
X122809000Y-64168000D03*
X124079000Y-64168000D03*
X125349000Y-64168000D03*
X126619000Y-64168000D03*
X126619000Y-58768000D03*
X125349000Y-58768000D03*
X124079000Y-58768000D03*
X122809000Y-58768000D03*
D15*
X165184000Y-56896000D03*
X162984000Y-56896000D03*
X165184000Y-59690000D03*
X162984000Y-59690000D03*
X165184000Y-54356000D03*
X162984000Y-54356000D03*
D16*
X162052000Y-80856000D03*
X162052000Y-78656000D03*
X159004000Y-80856000D03*
X159004000Y-78656000D03*
X165100000Y-80856000D03*
X165100000Y-78656000D03*
X158496000Y-63924000D03*
X158496000Y-66124000D03*
X158496000Y-56812000D03*
X158496000Y-59012000D03*
X148844000Y-70188000D03*
X148844000Y-67988000D03*
X156210000Y-66124000D03*
X156210000Y-63924000D03*
X156210000Y-59012000D03*
X156210000Y-56812000D03*
D15*
X151554000Y-64008000D03*
X153754000Y-64008000D03*
X151808000Y-57150000D03*
X154008000Y-57150000D03*
X137584000Y-68580000D03*
X139784000Y-68580000D03*
X119972000Y-68072000D03*
X117772000Y-68072000D03*
X153332000Y-68580000D03*
X155532000Y-68580000D03*
X152824000Y-61468000D03*
X155024000Y-61468000D03*
X151554000Y-66294000D03*
X153754000Y-66294000D03*
X151808000Y-59436000D03*
X154008000Y-59436000D03*
D17*
X148396000Y-65722500D03*
X148396000Y-65087500D03*
X148396000Y-64452500D03*
X148396000Y-63817500D03*
X148396000Y-63182500D03*
X148396000Y-62547500D03*
X148396000Y-61912500D03*
X148396000Y-61277500D03*
X148396000Y-60642500D03*
X148396000Y-60007500D03*
X148396000Y-59372500D03*
X148396000Y-58737500D03*
X143196000Y-58737500D03*
X143196000Y-59372500D03*
X143196000Y-60007500D03*
X143196000Y-60642500D03*
X143196000Y-61277500D03*
X143196000Y-61912500D03*
X143196000Y-62547500D03*
X143196000Y-63182500D03*
X143196000Y-63817500D03*
X143196000Y-64452500D03*
X143196000Y-65087500D03*
X143196000Y-65722500D03*
D18*
X137616000Y-51308000D03*
X131116000Y-51308000D03*
D19*
X109750000Y-80500000D03*
X106250000Y-80500000D03*
D20*
X150142000Y-78486000D03*
X153642000Y-78486000D03*
X148642000Y-78486000D03*
X141732000Y-86642000D03*
X141732000Y-90142000D03*
X141732000Y-85142000D03*
X110750000Y-65000000D03*
X107250000Y-65000000D03*
X112250000Y-65000000D03*
D21*
X128778000Y-84074000D03*
D22*
X125278000Y-84074000D03*
X121778000Y-84074000D03*
X128778000Y-89074000D03*
X125278000Y-89074000D03*
X121778000Y-89074000D03*
D23*
X107950000Y-91694000D03*
X107950000Y-48694000D03*
X153950000Y-91694000D03*
X153950000Y-48694000D03*
D24*
X133604000Y-85722000D03*
X133604000Y-88522000D03*
X116586000Y-85976000D03*
X116586000Y-88776000D03*
D25*
X139423140Y-66228000D03*
X139423140Y-64328000D03*
X136420860Y-65278000D03*
X116862860Y-63820000D03*
X116862860Y-65720000D03*
X119865140Y-64770000D03*
X165585140Y-66482000D03*
X165585140Y-64582000D03*
X162582860Y-65532000D03*
X162582860Y-72710000D03*
X162582860Y-74610000D03*
X165585140Y-73660000D03*
X162582860Y-68646000D03*
X162582860Y-70546000D03*
X165585140Y-69596000D03*
D26*
X159324000Y-50015140D03*
X161224000Y-50015140D03*
X160274000Y-47012860D03*
X163896000Y-50015140D03*
X165796000Y-50015140D03*
X164846000Y-47012860D03*
D27*
X114380000Y-48514000D03*
D28*
X116880000Y-48514000D03*
X119380000Y-48514000D03*
X121880000Y-48514000D03*
X124380000Y-48514000D03*
X144800000Y-51308000D03*
D27*
X147300000Y-51308000D03*
D29*
X130810000Y-60198000D03*
X132080000Y-60198000D03*
X133350000Y-60198000D03*
D30*
X160020000Y-74676000D03*
D29*
X166370000Y-45974000D03*
D30*
X162560000Y-50038000D03*
D29*
X157480000Y-45974000D03*
X136144000Y-63500000D03*
X162560000Y-47752000D03*
X140000000Y-46000000D03*
X145000000Y-46000000D03*
X150000000Y-46000000D03*
X140000000Y-57000000D03*
X145000000Y-57000000D03*
X145000000Y-55000000D03*
X140000000Y-55000000D03*
X139000000Y-50000000D03*
X143000000Y-50000000D03*
X141000000Y-52000000D03*
X156000000Y-86000000D03*
X156000000Y-81000000D03*
X156000000Y-76000000D03*
X156000000Y-71000000D03*
X163000000Y-94000000D03*
X158000000Y-94000000D03*
X148000000Y-94000000D03*
X143000000Y-94000000D03*
X138000000Y-94000000D03*
X133000000Y-94000000D03*
X128000000Y-94000000D03*
X123000000Y-94000000D03*
X118000000Y-94000000D03*
X113000000Y-94000000D03*
D30*
X165862000Y-51308000D03*
X149606000Y-60452000D03*
X158496000Y-67564000D03*
X157734000Y-60960000D03*
X146304000Y-62738000D03*
D29*
X123952000Y-73660000D03*
X122682000Y-73660000D03*
X121412000Y-73660000D03*
X120142000Y-73660000D03*
X120142000Y-74930000D03*
X120142000Y-76200000D03*
X122174000Y-79502000D03*
X124714000Y-79502000D03*
X124714000Y-77470000D03*
X122174000Y-77470000D03*
D30*
X151638000Y-62484000D03*
X141986000Y-65024000D03*
X125476000Y-73660000D03*
X143002000Y-70612000D03*
X128524000Y-72898000D03*
X137414000Y-72898000D03*
X121412000Y-61976000D03*
X126746000Y-61976000D03*
D29*
X129032000Y-63500000D03*
X129032000Y-65024000D03*
X130810000Y-62992000D03*
X132080000Y-62992000D03*
X129794000Y-68580000D03*
X133096000Y-65786000D03*
X134112000Y-69342000D03*
X134112000Y-70866000D03*
X132080000Y-71628000D03*
X130810000Y-71628000D03*
D30*
X132334000Y-67056000D03*
X141732000Y-64008000D03*
D29*
X121666000Y-63500000D03*
X121666000Y-65024000D03*
X123444000Y-62992000D03*
X124714000Y-62992000D03*
X122428000Y-68580000D03*
X125730000Y-65786000D03*
X126746000Y-69342000D03*
X126746000Y-70866000D03*
X124714000Y-71628000D03*
X123444000Y-71628000D03*
D30*
X123698000Y-67056000D03*
X141478000Y-62484000D03*
X161036000Y-65532000D03*
X161036000Y-75438000D03*
X159512000Y-52070000D03*
X165354000Y-68326000D03*
X166624000Y-52070000D03*
X141224000Y-61214000D03*
X117856000Y-62484000D03*
X164084000Y-67310000D03*
X149860000Y-55626000D03*
X162814000Y-58420000D03*
X164084000Y-63246000D03*
X162052000Y-76962000D03*
X161544000Y-55372000D03*
X163068000Y-51054000D03*
X161798000Y-71882000D03*
X161798000Y-64516000D03*
X147066000Y-61722000D03*
X158242000Y-52070000D03*
D29*
X147828000Y-75946000D03*
X145796000Y-75946000D03*
X145796000Y-73914000D03*
X143510000Y-73914000D03*
X143510000Y-75946000D03*
X141478000Y-75946000D03*
X138938000Y-75946000D03*
X136652000Y-75946000D03*
X134112000Y-75946000D03*
X134112000Y-79502000D03*
X131318000Y-79502000D03*
X128270000Y-79502000D03*
X128270000Y-77724000D03*
X131318000Y-77724000D03*
X134112000Y-77724000D03*
X150114000Y-73914000D03*
X147828000Y-73914000D03*
X150114000Y-75946000D03*
X132080000Y-81280000D03*
X130048000Y-81280000D03*
X128016000Y-81280000D03*
X132080000Y-83566000D03*
X132080000Y-85852000D03*
X134366000Y-83566000D03*
X134366000Y-81280000D03*
X147828000Y-80518000D03*
X145796000Y-80772000D03*
X145796000Y-78486000D03*
X138176000Y-80772000D03*
X145796000Y-82804000D03*
X144018000Y-84582000D03*
X144018000Y-82550000D03*
X141986000Y-82550000D03*
X144272000Y-80772000D03*
X141986000Y-80772000D03*
X139954000Y-80772000D03*
X139954000Y-82550000D03*
X139954000Y-84582000D03*
X139954000Y-86614000D03*
X138176000Y-86614000D03*
X138176000Y-84582000D03*
X138176000Y-82550000D03*
D30*
X152146000Y-68580000D03*
X145034000Y-67056000D03*
D29*
X123444000Y-60198000D03*
X124714000Y-60198000D03*
X125984000Y-60198000D03*
X110744000Y-60960000D03*
X110744000Y-62992000D03*
X110744000Y-69342000D03*
X112776000Y-69342000D03*
X112776000Y-67310000D03*
X114554000Y-69342000D03*
X114554000Y-67310000D03*
X114554000Y-65024000D03*
X114554000Y-62992000D03*
X114554000Y-60960000D03*
X112776000Y-62992000D03*
X112776000Y-60960000D03*
X110744000Y-67310000D03*
X118618000Y-78994000D03*
X116078000Y-83312000D03*
X116078000Y-81280000D03*
X116078000Y-78994000D03*
X121158000Y-59944000D03*
X121158000Y-58420000D03*
X121158000Y-56642000D03*
X121158000Y-55118000D03*
X121158000Y-53594000D03*
X123190000Y-53594000D03*
X123190000Y-55118000D03*
X124968000Y-56642000D03*
X124968000Y-55118000D03*
X124968000Y-53594000D03*
X126746000Y-53594000D03*
X126746000Y-55118000D03*
X128524000Y-59690000D03*
X128524000Y-58420000D03*
X128524000Y-53594000D03*
X128524000Y-55118000D03*
X128524000Y-56896000D03*
X130048000Y-55118000D03*
X130048000Y-53594000D03*
X131826000Y-53594000D03*
X131826000Y-55118000D03*
X133858000Y-56896000D03*
X133858000Y-55118000D03*
X133858000Y-53594000D03*
X135890000Y-53594000D03*
X135890000Y-55626000D03*
X135890000Y-57658000D03*
X135890000Y-59436000D03*
D30*
X160274000Y-51308000D03*
X163068000Y-67564000D03*
X163068000Y-63500000D03*
X146812000Y-59690000D03*
X161544000Y-56896000D03*
M02*
