M48
;DRILL file {KiCad (2015-06-20 BZR 5796, Git fe7bc27)-product} date 31.08.2015 09:12:58
;FORMAT={-:-/ absolute / metric / decimal}
FMAT,2
METRIC,TZ
T1C0.300
T2C0.500
T3C0.700
T4C0.900
T5C1.000
T6C1.200
T7C3.300
%
G90
G05
M71
T1
X117.856Y-62.484
X121.412Y-61.976
X123.698Y-67.056
X125.476Y-73.66
X126.746Y-61.976
X128.524Y-72.898
X132.334Y-67.056
X137.414Y-72.898
X141.224Y-61.214
X141.478Y-62.484
X141.732Y-64.008
X141.986Y-65.024
X143.002Y-70.612
X145.034Y-67.056
X146.304Y-62.738
X146.812Y-59.69
X147.066Y-61.722
X149.606Y-60.452
X149.86Y-55.626
X151.638Y-62.484
X152.146Y-68.58
X157.734Y-60.96
X158.242Y-52.07
X158.496Y-67.564
X159.512Y-52.07
X160.02Y-74.676
X160.274Y-51.308
X161.036Y-65.532
X161.036Y-75.438
X161.544Y-55.372
X161.544Y-56.896
X161.798Y-64.516
X161.798Y-71.882
X162.052Y-76.962
X162.56Y-50.038
X162.814Y-58.42
X163.068Y-51.054
X163.068Y-63.5
X163.068Y-67.564
X164.084Y-63.246
X164.084Y-67.31
X165.354Y-68.326
X165.862Y-51.308
X166.624Y-52.07
T2
X110.744Y-60.96
X110.744Y-62.992
X110.744Y-67.31
X110.744Y-69.342
X112.776Y-60.96
X112.776Y-62.992
X112.776Y-67.31
X112.776Y-69.342
X113.Y-94.
X114.554Y-60.96
X114.554Y-62.992
X114.554Y-65.024
X114.554Y-67.31
X114.554Y-69.342
X116.078Y-78.994
X116.078Y-81.28
X116.078Y-83.312
X118.Y-94.
X118.618Y-78.994
X120.142Y-73.66
X120.142Y-74.93
X120.142Y-76.2
X121.158Y-53.594
X121.158Y-55.118
X121.158Y-56.642
X121.158Y-58.42
X121.158Y-59.944
X121.412Y-73.66
X121.666Y-63.5
X121.666Y-65.024
X122.174Y-77.47
X122.174Y-79.502
X122.428Y-68.58
X122.682Y-73.66
X123.Y-94.
X123.19Y-53.594
X123.19Y-55.118
X123.444Y-60.198
X123.444Y-62.992
X123.444Y-71.628
X123.952Y-73.66
X124.714Y-60.198
X124.714Y-62.992
X124.714Y-71.628
X124.714Y-77.47
X124.714Y-79.502
X124.968Y-53.594
X124.968Y-55.118
X124.968Y-56.642
X125.73Y-65.786
X125.984Y-60.198
X126.746Y-53.594
X126.746Y-55.118
X126.746Y-69.342
X126.746Y-70.866
X128.Y-94.
X128.016Y-81.28
X128.27Y-77.724
X128.27Y-79.502
X128.524Y-53.594
X128.524Y-55.118
X128.524Y-56.896
X128.524Y-58.42
X128.524Y-59.69
X129.032Y-63.5
X129.032Y-65.024
X129.794Y-68.58
X130.048Y-53.594
X130.048Y-55.118
X130.048Y-81.28
X130.81Y-60.198
X130.81Y-62.992
X130.81Y-71.628
X131.318Y-77.724
X131.318Y-79.502
X131.826Y-53.594
X131.826Y-55.118
X132.08Y-60.198
X132.08Y-62.992
X132.08Y-71.628
X132.08Y-81.28
X132.08Y-83.566
X132.08Y-85.852
X133.Y-94.
X133.096Y-65.786
X133.35Y-60.198
X133.858Y-53.594
X133.858Y-55.118
X133.858Y-56.896
X134.112Y-69.342
X134.112Y-70.866
X134.112Y-75.946
X134.112Y-77.724
X134.112Y-79.502
X134.366Y-81.28
X134.366Y-83.566
X135.89Y-53.594
X135.89Y-55.626
X135.89Y-57.658
X135.89Y-59.436
X136.144Y-63.5
X136.652Y-75.946
X138.Y-94.
X138.176Y-80.772
X138.176Y-82.55
X138.176Y-84.582
X138.176Y-86.614
X138.938Y-75.946
X139.Y-50.
X139.954Y-80.772
X139.954Y-82.55
X139.954Y-84.582
X139.954Y-86.614
X140.Y-46.
X140.Y-55.
X140.Y-57.
X141.Y-52.
X141.478Y-75.946
X141.986Y-80.772
X141.986Y-82.55
X143.Y-50.
X143.Y-94.
X143.51Y-73.914
X143.51Y-75.946
X144.018Y-82.55
X144.018Y-84.582
X144.272Y-80.772
X145.Y-46.
X145.Y-55.
X145.Y-57.
X145.796Y-73.914
X145.796Y-75.946
X145.796Y-78.486
X145.796Y-80.772
X145.796Y-82.804
X147.828Y-73.914
X147.828Y-75.946
X147.828Y-80.518
X148.Y-94.
X150.Y-46.
X150.114Y-73.914
X150.114Y-75.946
X156.Y-71.
X156.Y-76.
X156.Y-81.
X156.Y-86.
X157.48Y-45.974
X158.Y-94.
X162.56Y-47.752
X163.Y-94.
X166.37Y-45.974
T3
X106.25Y-80.5
X109.75Y-80.5
X110.75Y-65.
X131.116Y-51.308
X137.616Y-51.308
X141.732Y-86.642
X150.142Y-78.486
T4
X107.25Y-65.
X112.25Y-65.
X141.732Y-85.142
X141.732Y-90.142
X148.642Y-78.486
X153.642Y-78.486
T5
X114.38Y-48.514
X116.88Y-48.514
X119.38Y-48.514
X121.88Y-48.514
X124.38Y-48.514
X144.8Y-51.308
X147.3Y-51.308
T6
X121.778Y-84.074
X121.778Y-89.074
X125.278Y-84.074
X125.278Y-89.074
X128.778Y-84.074
X128.778Y-89.074
T7
X107.95Y-48.694
X107.95Y-91.694
X153.95Y-48.694
X153.95Y-91.694
T0
M30
