G04 #@! TF.FileFunction,Copper,L1,Top,Signal*
%FSLAX46Y46*%
G04 Gerber Fmt 4.6, Leading zero omitted, Abs format (unit mm)*
G04 Created by KiCad (PCBNEW (2015-06-20 BZR 5796, Git fe7bc27)-product) date 31.08.2015 09:12:51*
%MOMM*%
G01*
G04 APERTURE LIST*
%ADD10C,0.100000*%
%ADD11C,0.300000*%
%ADD12R,0.750000X1.200000*%
%ADD13R,1.200000X0.750000*%
%ADD14R,0.797560X0.797560*%
%ADD15R,0.600000X1.550000*%
%ADD16R,1.200000X0.900000*%
%ADD17R,0.900000X1.200000*%
%ADD18R,1.200000X0.400000*%
%ADD19C,1.524000*%
%ADD20C,1.400000*%
%ADD21C,1.600000*%
%ADD22R,2.400000X2.400000*%
%ADD23C,2.400000*%
%ADD24C,6.000000*%
%ADD25R,1.200000X1.200000*%
%ADD26R,1.800860X0.800100*%
%ADD27R,0.800100X1.800860*%
%ADD28R,2.000000X2.000000*%
%ADD29C,2.000000*%
%ADD30C,0.900000*%
%ADD31C,0.700000*%
%ADD32C,0.200000*%
%ADD33C,0.500000*%
%ADD34C,1.000000*%
%ADD35C,0.750000*%
%ADD36C,0.254000*%
G04 APERTURE END LIST*
D10*
D11*
X116213143Y-45652571D02*
X116784572Y-45652571D01*
X116427429Y-45152571D02*
X116427429Y-46438286D01*
X116498857Y-46581143D01*
X116641715Y-46652571D01*
X116784572Y-46652571D01*
X117498858Y-46652571D02*
X117356000Y-46581143D01*
X117284572Y-46509714D01*
X117213143Y-46366857D01*
X117213143Y-45938286D01*
X117284572Y-45795429D01*
X117356000Y-45724000D01*
X117498858Y-45652571D01*
X117713143Y-45652571D01*
X117856000Y-45724000D01*
X117927429Y-45795429D01*
X117998858Y-45938286D01*
X117998858Y-46366857D01*
X117927429Y-46509714D01*
X117856000Y-46581143D01*
X117713143Y-46652571D01*
X117498858Y-46652571D01*
X118641715Y-45652571D02*
X118641715Y-47152571D01*
X118641715Y-45724000D02*
X118784572Y-45652571D01*
X119070286Y-45652571D01*
X119213143Y-45724000D01*
X119284572Y-45795429D01*
X119356001Y-45938286D01*
X119356001Y-46366857D01*
X119284572Y-46509714D01*
X119213143Y-46581143D01*
X119070286Y-46652571D01*
X118784572Y-46652571D01*
X118641715Y-46581143D01*
D12*
X137668000Y-60010000D03*
X137668000Y-61910000D03*
X119888000Y-59756000D03*
X119888000Y-61656000D03*
D13*
X144592000Y-68326000D03*
X146492000Y-68326000D03*
X144592000Y-70612000D03*
X146492000Y-70612000D03*
D14*
X162052000Y-85077300D03*
X162052000Y-83578700D03*
X159004000Y-85077300D03*
X159004000Y-83578700D03*
X165100000Y-85077300D03*
X165100000Y-83578700D03*
D15*
X132715000Y-70198000D03*
X131445000Y-70198000D03*
X130175000Y-70198000D03*
X128905000Y-70198000D03*
X128905000Y-75598000D03*
X130175000Y-75598000D03*
X131445000Y-75598000D03*
X132715000Y-75598000D03*
X130175000Y-64168000D03*
X131445000Y-64168000D03*
X132715000Y-64168000D03*
X133985000Y-64168000D03*
X133985000Y-58768000D03*
X132715000Y-58768000D03*
X131445000Y-58768000D03*
X130175000Y-58768000D03*
X125349000Y-70198000D03*
X124079000Y-70198000D03*
X122809000Y-70198000D03*
X121539000Y-70198000D03*
X121539000Y-75598000D03*
X122809000Y-75598000D03*
X124079000Y-75598000D03*
X125349000Y-75598000D03*
X122809000Y-64168000D03*
X124079000Y-64168000D03*
X125349000Y-64168000D03*
X126619000Y-64168000D03*
X126619000Y-58768000D03*
X125349000Y-58768000D03*
X124079000Y-58768000D03*
X122809000Y-58768000D03*
D16*
X165184000Y-56896000D03*
X162984000Y-56896000D03*
X165184000Y-59690000D03*
X162984000Y-59690000D03*
X165184000Y-54356000D03*
X162984000Y-54356000D03*
D17*
X162052000Y-80856000D03*
X162052000Y-78656000D03*
X159004000Y-80856000D03*
X159004000Y-78656000D03*
X165100000Y-80856000D03*
X165100000Y-78656000D03*
X158496000Y-63924000D03*
X158496000Y-66124000D03*
X158496000Y-56812000D03*
X158496000Y-59012000D03*
X148844000Y-70188000D03*
X148844000Y-67988000D03*
X156210000Y-66124000D03*
X156210000Y-63924000D03*
X156210000Y-59012000D03*
X156210000Y-56812000D03*
D16*
X151554000Y-64008000D03*
X153754000Y-64008000D03*
X151808000Y-57150000D03*
X154008000Y-57150000D03*
X137584000Y-68580000D03*
X139784000Y-68580000D03*
X119972000Y-68072000D03*
X117772000Y-68072000D03*
X153332000Y-68580000D03*
X155532000Y-68580000D03*
X152824000Y-61468000D03*
X155024000Y-61468000D03*
X151554000Y-66294000D03*
X153754000Y-66294000D03*
X151808000Y-59436000D03*
X154008000Y-59436000D03*
D18*
X148396000Y-65722500D03*
X148396000Y-65087500D03*
X148396000Y-64452500D03*
X148396000Y-63817500D03*
X148396000Y-63182500D03*
X148396000Y-62547500D03*
X148396000Y-61912500D03*
X148396000Y-61277500D03*
X148396000Y-60642500D03*
X148396000Y-60007500D03*
X148396000Y-59372500D03*
X148396000Y-58737500D03*
X143196000Y-58737500D03*
X143196000Y-59372500D03*
X143196000Y-60007500D03*
X143196000Y-60642500D03*
X143196000Y-61277500D03*
X143196000Y-61912500D03*
X143196000Y-62547500D03*
X143196000Y-63182500D03*
X143196000Y-63817500D03*
X143196000Y-64452500D03*
X143196000Y-65087500D03*
X143196000Y-65722500D03*
D19*
X137616000Y-51308000D03*
X131116000Y-51308000D03*
D20*
X109750000Y-80500000D03*
X106250000Y-80500000D03*
D21*
X150142000Y-78486000D03*
X153642000Y-78486000D03*
X148642000Y-78486000D03*
X141732000Y-86642000D03*
X141732000Y-90142000D03*
X141732000Y-85142000D03*
X110750000Y-65000000D03*
X107250000Y-65000000D03*
X112250000Y-65000000D03*
D22*
X128778000Y-84074000D03*
D23*
X125278000Y-84074000D03*
X121778000Y-84074000D03*
X128778000Y-89074000D03*
X125278000Y-89074000D03*
X121778000Y-89074000D03*
D24*
X107950000Y-91694000D03*
X107950000Y-48694000D03*
X153950000Y-91694000D03*
X153950000Y-48694000D03*
D25*
X133604000Y-85722000D03*
X133604000Y-88522000D03*
X116586000Y-85976000D03*
X116586000Y-88776000D03*
D26*
X139423140Y-66228000D03*
X139423140Y-64328000D03*
X136420860Y-65278000D03*
X116862860Y-63820000D03*
X116862860Y-65720000D03*
X119865140Y-64770000D03*
X165585140Y-66482000D03*
X165585140Y-64582000D03*
X162582860Y-65532000D03*
X162582860Y-72710000D03*
X162582860Y-74610000D03*
X165585140Y-73660000D03*
X162582860Y-68646000D03*
X162582860Y-70546000D03*
X165585140Y-69596000D03*
D27*
X159324000Y-50015140D03*
X161224000Y-50015140D03*
X160274000Y-47012860D03*
X163896000Y-50015140D03*
X165796000Y-50015140D03*
X164846000Y-47012860D03*
D28*
X114380000Y-48514000D03*
D29*
X116880000Y-48514000D03*
X119380000Y-48514000D03*
X121880000Y-48514000D03*
X124380000Y-48514000D03*
X144800000Y-51308000D03*
D28*
X147300000Y-51308000D03*
D30*
X130810000Y-60198000D03*
X132080000Y-60198000D03*
X133350000Y-60198000D03*
D31*
X160020000Y-74676000D03*
D30*
X166370000Y-45974000D03*
D31*
X162560000Y-50038000D03*
D30*
X157480000Y-45974000D03*
X136144000Y-63500000D03*
X162560000Y-47752000D03*
X140000000Y-46000000D03*
X145000000Y-46000000D03*
X150000000Y-46000000D03*
X140000000Y-57000000D03*
X145000000Y-57000000D03*
X145000000Y-55000000D03*
X140000000Y-55000000D03*
X139000000Y-50000000D03*
X143000000Y-50000000D03*
X141000000Y-52000000D03*
X156000000Y-86000000D03*
X156000000Y-81000000D03*
X156000000Y-76000000D03*
X156000000Y-71000000D03*
X163000000Y-94000000D03*
X158000000Y-94000000D03*
X148000000Y-94000000D03*
X143000000Y-94000000D03*
X138000000Y-94000000D03*
X133000000Y-94000000D03*
X128000000Y-94000000D03*
X123000000Y-94000000D03*
X118000000Y-94000000D03*
X113000000Y-94000000D03*
D31*
X165862000Y-51308000D03*
X149606000Y-60452000D03*
X158496000Y-67564000D03*
X157734000Y-60960000D03*
X146304000Y-62738000D03*
D30*
X123952000Y-73660000D03*
X122682000Y-73660000D03*
X121412000Y-73660000D03*
X120142000Y-73660000D03*
X120142000Y-74930000D03*
X120142000Y-76200000D03*
X122174000Y-79502000D03*
X124714000Y-79502000D03*
X124714000Y-77470000D03*
X122174000Y-77470000D03*
D31*
X151638000Y-62484000D03*
X141986000Y-65024000D03*
X125476000Y-73660000D03*
X143002000Y-70612000D03*
X128524000Y-72898000D03*
X137414000Y-72898000D03*
X121412000Y-61976000D03*
X126746000Y-61976000D03*
D30*
X129032000Y-63500000D03*
X129032000Y-65024000D03*
X130810000Y-62992000D03*
X132080000Y-62992000D03*
X129794000Y-68580000D03*
X133096000Y-65786000D03*
X134112000Y-69342000D03*
X134112000Y-70866000D03*
X132080000Y-71628000D03*
X130810000Y-71628000D03*
D31*
X132334000Y-67056000D03*
X141732000Y-64008000D03*
D30*
X121666000Y-63500000D03*
X121666000Y-65024000D03*
X123444000Y-62992000D03*
X124714000Y-62992000D03*
X122428000Y-68580000D03*
X125730000Y-65786000D03*
X126746000Y-69342000D03*
X126746000Y-70866000D03*
X124714000Y-71628000D03*
X123444000Y-71628000D03*
D31*
X123698000Y-67056000D03*
X141478000Y-62484000D03*
X161036000Y-65532000D03*
X161036000Y-75438000D03*
X159512000Y-52070000D03*
X165354000Y-68326000D03*
X166624000Y-52070000D03*
X141224000Y-61214000D03*
X117856000Y-62484000D03*
X164084000Y-67310000D03*
X149860000Y-55626000D03*
X162814000Y-58420000D03*
X164084000Y-63246000D03*
X162052000Y-76962000D03*
X161544000Y-55372000D03*
X163068000Y-51054000D03*
X161798000Y-71882000D03*
X161798000Y-64516000D03*
X147066000Y-61722000D03*
X158242000Y-52070000D03*
D30*
X147828000Y-75946000D03*
X145796000Y-75946000D03*
X145796000Y-73914000D03*
X143510000Y-73914000D03*
X143510000Y-75946000D03*
X141478000Y-75946000D03*
X138938000Y-75946000D03*
X136652000Y-75946000D03*
X134112000Y-75946000D03*
X134112000Y-79502000D03*
X131318000Y-79502000D03*
X128270000Y-79502000D03*
X128270000Y-77724000D03*
X131318000Y-77724000D03*
X134112000Y-77724000D03*
X150114000Y-73914000D03*
X147828000Y-73914000D03*
X150114000Y-75946000D03*
X132080000Y-81280000D03*
X130048000Y-81280000D03*
X128016000Y-81280000D03*
X132080000Y-83566000D03*
X132080000Y-85852000D03*
X134366000Y-83566000D03*
X134366000Y-81280000D03*
X147828000Y-80518000D03*
X145796000Y-80772000D03*
X145796000Y-78486000D03*
X138176000Y-80772000D03*
X145796000Y-82804000D03*
X144018000Y-84582000D03*
X144018000Y-82550000D03*
X141986000Y-82550000D03*
X144272000Y-80772000D03*
X141986000Y-80772000D03*
X139954000Y-80772000D03*
X139954000Y-82550000D03*
X139954000Y-84582000D03*
X139954000Y-86614000D03*
X138176000Y-86614000D03*
X138176000Y-84582000D03*
X138176000Y-82550000D03*
D31*
X152146000Y-68580000D03*
X145034000Y-67056000D03*
D30*
X123444000Y-60198000D03*
X124714000Y-60198000D03*
X125984000Y-60198000D03*
X110744000Y-60960000D03*
X110744000Y-62992000D03*
X110744000Y-69342000D03*
X112776000Y-69342000D03*
X112776000Y-67310000D03*
X114554000Y-69342000D03*
X114554000Y-67310000D03*
X114554000Y-65024000D03*
X114554000Y-62992000D03*
X114554000Y-60960000D03*
X112776000Y-62992000D03*
X112776000Y-60960000D03*
X110744000Y-67310000D03*
X118618000Y-78994000D03*
X116078000Y-83312000D03*
X116078000Y-81280000D03*
X116078000Y-78994000D03*
X121158000Y-59944000D03*
X121158000Y-58420000D03*
X121158000Y-56642000D03*
X121158000Y-55118000D03*
X121158000Y-53594000D03*
X123190000Y-53594000D03*
X123190000Y-55118000D03*
X124968000Y-56642000D03*
X124968000Y-55118000D03*
X124968000Y-53594000D03*
X126746000Y-53594000D03*
X126746000Y-55118000D03*
X128524000Y-59690000D03*
X128524000Y-58420000D03*
X128524000Y-53594000D03*
X128524000Y-55118000D03*
X128524000Y-56896000D03*
X130048000Y-55118000D03*
X130048000Y-53594000D03*
X131826000Y-53594000D03*
X131826000Y-55118000D03*
X133858000Y-56896000D03*
X133858000Y-55118000D03*
X133858000Y-53594000D03*
X135890000Y-53594000D03*
X135890000Y-55626000D03*
X135890000Y-57658000D03*
X135890000Y-59436000D03*
D31*
X160274000Y-51308000D03*
X163068000Y-67564000D03*
X163068000Y-63500000D03*
X146812000Y-59690000D03*
X161544000Y-56896000D03*
D32*
X133350000Y-60198000D02*
X132080000Y-60198000D01*
D11*
X162582860Y-74610000D02*
X160086000Y-74610000D01*
X160086000Y-74610000D02*
X160020000Y-74676000D01*
X162560000Y-50038000D02*
X162537140Y-50015140D01*
X162537140Y-50015140D02*
X161224000Y-50015140D01*
X165862000Y-51308000D02*
X165796000Y-51242000D01*
X165796000Y-51242000D02*
X165796000Y-50015140D01*
D33*
X116586000Y-88776000D02*
X114526000Y-88776000D01*
X113745000Y-87995000D02*
X106000000Y-80250000D01*
X114526000Y-88776000D02*
X113745000Y-87995000D01*
D34*
X121778000Y-89074000D02*
X118792000Y-89074000D01*
D33*
X118494000Y-88776000D02*
X116586000Y-88776000D01*
X118792000Y-89074000D02*
X118494000Y-88776000D01*
D34*
X121778000Y-89074000D02*
X128778000Y-89074000D01*
X125278000Y-89074000D02*
X128778000Y-89074000D01*
D32*
X157480000Y-45974000D02*
X156474000Y-45974000D01*
X157734000Y-45720000D02*
X157480000Y-45974000D01*
X162560000Y-50038000D02*
X162560000Y-47752000D01*
X145000000Y-46000000D02*
X140000000Y-46000000D01*
X151127000Y-45381000D02*
X150000000Y-46000000D01*
X155627000Y-45381000D02*
X151127000Y-45381000D01*
X156474000Y-45974000D02*
X155627000Y-45381000D01*
X143196000Y-58196000D02*
X142000000Y-57000000D01*
X142000000Y-57000000D02*
X140000000Y-57000000D01*
X145000000Y-57000000D02*
X145000000Y-55000000D01*
X143196000Y-58737500D02*
X143196000Y-58196000D01*
X141000000Y-52000000D02*
X143000000Y-50000000D01*
X156000000Y-81000000D02*
X156000000Y-86000000D01*
X156000000Y-71000000D02*
X156000000Y-76000000D01*
X158000000Y-94000000D02*
X163000000Y-94000000D01*
X143000000Y-94000000D02*
X148000000Y-94000000D01*
X133000000Y-94000000D02*
X138000000Y-94000000D01*
X123000000Y-94000000D02*
X128000000Y-94000000D01*
X113000000Y-94000000D02*
X118000000Y-94000000D01*
D33*
X106000000Y-80250000D02*
X106000000Y-66250000D01*
X106000000Y-66250000D02*
X107250000Y-65000000D01*
D35*
X107250000Y-65000000D02*
X107250000Y-55644000D01*
X107250000Y-55644000D02*
X114380000Y-48514000D01*
D11*
X162560000Y-50038000D02*
X162544760Y-50022760D01*
X148396000Y-60642500D02*
X149415500Y-60642500D01*
X149415500Y-60642500D02*
X149606000Y-60452000D01*
X158496000Y-67564000D02*
X158496000Y-66124000D01*
X158496000Y-59012000D02*
X158496000Y-60198000D01*
X158496000Y-60198000D02*
X157734000Y-60960000D01*
X146050000Y-62992000D02*
X145542000Y-62992000D01*
X146304000Y-62738000D02*
X146050000Y-62992000D01*
X146492000Y-68326000D02*
X146492000Y-63942000D01*
X146492000Y-63942000D02*
X145542000Y-62992000D01*
X145542000Y-62992000D02*
X145542000Y-60071000D01*
X148396000Y-60642500D02*
X146113500Y-60642500D01*
X146113500Y-60642500D02*
X145542000Y-60071000D01*
X144843500Y-58737500D02*
X143196000Y-58737500D01*
X145542000Y-60071000D02*
X145542000Y-59436000D01*
X145542000Y-59436000D02*
X144843500Y-58737500D01*
X153642000Y-78486000D02*
X153642000Y-73942000D01*
X149888000Y-70188000D02*
X148844000Y-70188000D01*
X153642000Y-73942000D02*
X149888000Y-70188000D01*
X146492000Y-70612000D02*
X148420000Y-70612000D01*
X148420000Y-70612000D02*
X148844000Y-70188000D01*
X146492000Y-70612000D02*
X146492000Y-68326000D01*
D33*
X153642000Y-78486000D02*
X153642000Y-84102000D01*
X147602000Y-90142000D02*
X141732000Y-90142000D01*
X153642000Y-84102000D02*
X147602000Y-90142000D01*
X133604000Y-88249000D02*
X133969000Y-88249000D01*
X133969000Y-88249000D02*
X135862000Y-90142000D01*
X135862000Y-90142000D02*
X141732000Y-90142000D01*
D34*
X128778000Y-89074000D02*
X132779000Y-89074000D01*
D33*
X132779000Y-89074000D02*
X133604000Y-88249000D01*
X125278000Y-89074000D02*
X128778000Y-89074000D01*
D32*
X120142000Y-76200000D02*
X121412000Y-77470000D01*
X122682000Y-73660000D02*
X121412000Y-73660000D01*
X120142000Y-73660000D02*
X120142000Y-74930000D01*
X125476000Y-73660000D02*
X123952000Y-73660000D01*
X124714000Y-77470000D02*
X124714000Y-79502000D01*
X121412000Y-77470000D02*
X122174000Y-77470000D01*
D11*
X151638000Y-62484000D02*
X152654000Y-61468000D01*
X152654000Y-61468000D02*
X152824000Y-61468000D01*
X143196000Y-64452500D02*
X144335500Y-64452500D01*
X144335500Y-61277500D02*
X143196000Y-61277500D01*
X144526000Y-61468000D02*
X144335500Y-61277500D01*
X144526000Y-64262000D02*
X144526000Y-61468000D01*
X144335500Y-64452500D02*
X144526000Y-64262000D01*
X142049500Y-65087500D02*
X143196000Y-65087500D01*
X141986000Y-65024000D02*
X142049500Y-65087500D01*
X125349000Y-73787000D02*
X125476000Y-73660000D01*
X125349000Y-75598000D02*
X125349000Y-73787000D01*
X143002000Y-70612000D02*
X144592000Y-70612000D01*
X143196000Y-64452500D02*
X143196000Y-65087500D01*
D33*
X125349000Y-75598000D02*
X124079000Y-75598000D01*
X124079000Y-75598000D02*
X122809000Y-75598000D01*
X122809000Y-75598000D02*
X121539000Y-75598000D01*
X125278000Y-84074000D02*
X125278000Y-75669000D01*
X125278000Y-75669000D02*
X125349000Y-75598000D01*
D11*
X136420860Y-65278000D02*
X136652000Y-65278000D01*
X136652000Y-65278000D02*
X137668000Y-64262000D01*
X137668000Y-64262000D02*
X137668000Y-61910000D01*
X136420860Y-65278000D02*
X136420860Y-67416860D01*
X136420860Y-67416860D02*
X137584000Y-68580000D01*
X133985000Y-64168000D02*
X135310860Y-64168000D01*
X135310860Y-64168000D02*
X136420860Y-65278000D01*
X128905000Y-70198000D02*
X128905000Y-72517000D01*
X128905000Y-72517000D02*
X128524000Y-72898000D01*
X137414000Y-72898000D02*
X137584000Y-72728000D01*
X137584000Y-72728000D02*
X137584000Y-68580000D01*
X119865140Y-64770000D02*
X119865140Y-63522860D01*
X126746000Y-61976000D02*
X126619000Y-62103000D01*
X126619000Y-62103000D02*
X126619000Y-64168000D01*
X119865140Y-63522860D02*
X121412000Y-61976000D01*
X119865140Y-64770000D02*
X119865140Y-67965140D01*
X119865140Y-67965140D02*
X119972000Y-68072000D01*
X119888000Y-61656000D02*
X119888000Y-64747140D01*
X119888000Y-64747140D02*
X119865140Y-64770000D01*
X119972000Y-64871780D02*
X119888000Y-64787780D01*
X119972000Y-68072000D02*
X119972000Y-68631000D01*
X119972000Y-68631000D02*
X121539000Y-70198000D01*
D32*
X130810000Y-62992000D02*
X129540000Y-62992000D01*
X132715000Y-63373000D02*
X132334000Y-62992000D01*
X132334000Y-62992000D02*
X132080000Y-62992000D01*
X132715000Y-63373000D02*
X132715000Y-64168000D01*
X129540000Y-62992000D02*
X129032000Y-63500000D01*
X130175000Y-70198000D02*
X130175000Y-68961000D01*
X130175000Y-68961000D02*
X129794000Y-68580000D01*
X132334000Y-67056000D02*
X133096000Y-66294000D01*
X133096000Y-66294000D02*
X133096000Y-65786000D01*
X130175000Y-70198000D02*
X130175000Y-70993000D01*
X133350000Y-71628000D02*
X134112000Y-70866000D01*
X132080000Y-71628000D02*
X133350000Y-71628000D01*
X130175000Y-70993000D02*
X130810000Y-71628000D01*
D11*
X132334000Y-67056000D02*
X131445000Y-67056000D01*
X131445000Y-67056000D02*
X131572000Y-67056000D01*
X131572000Y-67056000D02*
X131445000Y-67056000D01*
X143196000Y-63817500D02*
X141922500Y-63817500D01*
X141922500Y-63817500D02*
X141732000Y-64008000D01*
D33*
X131445000Y-70198000D02*
X131445000Y-67056000D01*
X131445000Y-67056000D02*
X131445000Y-64168000D01*
X130175000Y-70198000D02*
X131445000Y-70198000D01*
X131445000Y-70198000D02*
X132715000Y-70198000D01*
X130175000Y-64168000D02*
X131445000Y-64168000D01*
X131445000Y-64168000D02*
X132715000Y-64168000D01*
D32*
X123444000Y-62992000D02*
X122174000Y-62992000D01*
X125349000Y-63373000D02*
X124968000Y-62992000D01*
X124968000Y-62992000D02*
X124714000Y-62992000D01*
X125349000Y-63373000D02*
X125349000Y-64168000D01*
X122174000Y-62992000D02*
X121666000Y-63500000D01*
X122809000Y-70198000D02*
X122809000Y-68961000D01*
X122809000Y-68961000D02*
X122428000Y-68580000D01*
X125349000Y-64168000D02*
X125349000Y-65405000D01*
X125349000Y-65405000D02*
X125730000Y-65786000D01*
X122809000Y-70198000D02*
X122809000Y-70993000D01*
X125984000Y-71628000D02*
X126746000Y-70866000D01*
X124714000Y-71628000D02*
X125984000Y-71628000D01*
X122809000Y-70993000D02*
X123444000Y-71628000D01*
D11*
X123698000Y-67056000D02*
X122809000Y-67056000D01*
X122809000Y-67056000D02*
X122682000Y-67056000D01*
X122682000Y-67056000D02*
X122809000Y-67056000D01*
X143196000Y-62547500D02*
X141541500Y-62547500D01*
X141541500Y-62547500D02*
X141478000Y-62484000D01*
D33*
X122809000Y-70198000D02*
X122809000Y-67056000D01*
X122809000Y-67056000D02*
X122809000Y-64168000D01*
X122809000Y-70198000D02*
X124079000Y-70198000D01*
X124079000Y-70198000D02*
X125349000Y-70198000D01*
X122809000Y-64168000D02*
X124079000Y-64168000D01*
X124079000Y-64168000D02*
X125349000Y-64168000D01*
D11*
X162052000Y-80856000D02*
X162052000Y-83578700D01*
X159004000Y-80856000D02*
X159004000Y-83578700D01*
X159004000Y-83578700D02*
X159004000Y-83566000D01*
X165100000Y-85077300D02*
X164579300Y-85077300D01*
X163576000Y-84074000D02*
X163576000Y-77216000D01*
X164579300Y-85077300D02*
X163576000Y-84074000D01*
X161036000Y-65532000D02*
X162582860Y-65532000D01*
X163576000Y-76708000D02*
X163576000Y-77216000D01*
X163322000Y-76454000D02*
X163576000Y-76708000D01*
X162814000Y-75946000D02*
X163322000Y-76454000D01*
X161544000Y-75946000D02*
X162814000Y-75946000D01*
X161036000Y-75438000D02*
X161544000Y-75946000D01*
X165100000Y-80856000D02*
X165100000Y-83578700D01*
X165082220Y-68597780D02*
X165082220Y-69596000D01*
X165082220Y-68597780D02*
X165354000Y-68326000D01*
X166624000Y-52070000D02*
X159512000Y-52070000D01*
X131116000Y-51308000D02*
X131116000Y-51256000D01*
X131116000Y-51256000D02*
X133350000Y-49022000D01*
X133350000Y-49022000D02*
X145014000Y-49022000D01*
X145014000Y-49022000D02*
X147300000Y-51308000D01*
X139684760Y-66228000D02*
X140274000Y-66228000D01*
X141541500Y-63182500D02*
X143196000Y-63182500D01*
X140970000Y-63754000D02*
X141541500Y-63182500D01*
X140970000Y-65532000D02*
X140970000Y-63754000D01*
X140274000Y-66228000D02*
X140970000Y-65532000D01*
X139784000Y-68580000D02*
X139784000Y-66327240D01*
X139784000Y-66327240D02*
X139684760Y-66228000D01*
X116862860Y-63820000D02*
X115758000Y-63820000D01*
X116078000Y-68072000D02*
X117772000Y-68072000D01*
X115570000Y-67564000D02*
X116078000Y-68072000D01*
X115570000Y-64008000D02*
X115570000Y-67564000D01*
X115758000Y-63820000D02*
X115570000Y-64008000D01*
X117856000Y-62484000D02*
X116862860Y-63477140D01*
X116862860Y-63477140D02*
X116862860Y-63820000D01*
X142176500Y-61912500D02*
X141478000Y-61214000D01*
X141478000Y-61214000D02*
X141224000Y-61214000D01*
X117856000Y-62484000D02*
X117871240Y-62499240D01*
X142176500Y-61912500D02*
X143196000Y-61912500D01*
X164084000Y-67310000D02*
X164757140Y-67310000D01*
X164757140Y-67310000D02*
X165585140Y-66482000D01*
X148396000Y-59372500D02*
X149415500Y-59372500D01*
X149860000Y-58928000D02*
X149860000Y-55880000D01*
X149415500Y-59372500D02*
X149860000Y-58928000D01*
X149860000Y-55880000D02*
X149860000Y-55626000D01*
X162984000Y-58590000D02*
X162984000Y-59690000D01*
X162814000Y-58420000D02*
X162984000Y-58590000D01*
X162984000Y-59690000D02*
X162984000Y-62146000D01*
X162984000Y-62146000D02*
X164084000Y-63246000D01*
X162052000Y-78656000D02*
X162052000Y-76962000D01*
X164912000Y-66482000D02*
X165084760Y-66482000D01*
X163068000Y-51054000D02*
X163896000Y-50226000D01*
X163896000Y-50226000D02*
X163896000Y-50015140D01*
X163068000Y-51054000D02*
X163134000Y-50988000D01*
X161798000Y-71882000D02*
X161798000Y-71925140D01*
X161798000Y-71925140D02*
X162582860Y-72710000D01*
X161544000Y-55372000D02*
X160782000Y-56134000D01*
X161798000Y-71882000D02*
X161864000Y-71948000D01*
X160782000Y-63500000D02*
X161798000Y-64516000D01*
X160782000Y-56134000D02*
X160782000Y-63500000D01*
X162984000Y-54356000D02*
X162560000Y-54356000D01*
X162560000Y-54356000D02*
X161544000Y-55372000D01*
X148396000Y-58737500D02*
X148396000Y-55820000D01*
X149860000Y-54356000D02*
X162984000Y-54356000D01*
X148396000Y-55820000D02*
X149860000Y-54356000D01*
X153754000Y-64008000D02*
X156126000Y-64008000D01*
X156126000Y-64008000D02*
X156210000Y-63924000D01*
X156210000Y-63924000D02*
X158496000Y-63924000D01*
X158496000Y-56812000D02*
X156210000Y-56812000D01*
X156210000Y-56812000D02*
X155872000Y-57150000D01*
X155872000Y-57150000D02*
X154008000Y-57150000D01*
X148844000Y-67988000D02*
X148844000Y-67564000D01*
X148844000Y-67564000D02*
X149606000Y-66802000D01*
X149606000Y-66802000D02*
X149606000Y-64770000D01*
X149606000Y-64770000D02*
X149288500Y-64452500D01*
X149288500Y-64452500D02*
X148396000Y-64452500D01*
X155532000Y-68580000D02*
X155532000Y-68242000D01*
X155532000Y-68242000D02*
X156210000Y-67564000D01*
X156210000Y-67564000D02*
X156210000Y-66124000D01*
X153754000Y-66294000D02*
X156040000Y-66294000D01*
X156040000Y-66294000D02*
X156210000Y-66124000D01*
X155024000Y-61468000D02*
X155024000Y-60452000D01*
X155024000Y-60452000D02*
X154008000Y-59436000D01*
X154008000Y-59436000D02*
X155786000Y-59436000D01*
X155786000Y-59436000D02*
X156210000Y-59012000D01*
X147066000Y-61722000D02*
X147510500Y-61277500D01*
X147510500Y-61277500D02*
X148396000Y-61277500D01*
X148396000Y-63182500D02*
X150050500Y-63182500D01*
X150876000Y-64008000D02*
X151554000Y-64008000D01*
X150050500Y-63182500D02*
X150876000Y-64008000D01*
X148396000Y-61912500D02*
X149923500Y-61912500D01*
X150368000Y-58590000D02*
X151808000Y-57150000D01*
X150368000Y-61468000D02*
X150368000Y-58590000D01*
X149923500Y-61912500D02*
X150368000Y-61468000D01*
X148396000Y-63817500D02*
X149923500Y-63817500D01*
X150368000Y-65108000D02*
X151554000Y-66294000D01*
X150368000Y-64262000D02*
X150368000Y-65108000D01*
X149923500Y-63817500D02*
X150368000Y-64262000D01*
X148396000Y-62547500D02*
X150304500Y-62547500D01*
X150876000Y-60368000D02*
X151808000Y-59436000D01*
X150876000Y-61976000D02*
X150876000Y-60368000D01*
X150304500Y-62547500D02*
X150876000Y-61976000D01*
X165585140Y-73660000D02*
X165585140Y-72113140D01*
X164018000Y-70546000D02*
X162582860Y-70546000D01*
X165585140Y-72113140D02*
X164018000Y-70546000D01*
X165100000Y-78656000D02*
X165100000Y-75946000D01*
X165585140Y-75460860D02*
X165585140Y-73660000D01*
X165100000Y-75946000D02*
X165585140Y-75460860D01*
X158242000Y-48768000D02*
X158242000Y-48260000D01*
X158242000Y-48768000D02*
X158242000Y-52070000D01*
X159489140Y-47012860D02*
X160274000Y-47012860D01*
X158242000Y-48260000D02*
X159489140Y-47012860D01*
X157734000Y-48006000D02*
X157734000Y-47498000D01*
X157734000Y-48006000D02*
X157734000Y-51054000D01*
X157734000Y-51054000D02*
X156464000Y-52324000D01*
X156464000Y-52324000D02*
X151130000Y-52324000D01*
X151130000Y-52324000D02*
X146558000Y-47752000D01*
X146558000Y-47752000D02*
X125142000Y-47752000D01*
X124380000Y-48514000D02*
X125142000Y-47752000D01*
X164106860Y-47012860D02*
X164846000Y-47012860D01*
X162814000Y-45720000D02*
X164106860Y-47012860D01*
X159512000Y-45720000D02*
X162814000Y-45720000D01*
X157734000Y-47498000D02*
X159512000Y-45720000D01*
D33*
X133604000Y-85722000D02*
X140084000Y-85722000D01*
X140084000Y-85722000D02*
X141004000Y-86642000D01*
X141004000Y-86642000D02*
X141732000Y-86642000D01*
X132588000Y-84074000D02*
X133096000Y-84074000D01*
X133604000Y-84582000D02*
X133604000Y-85722000D01*
X133096000Y-84074000D02*
X133604000Y-84582000D01*
D34*
X141732000Y-86642000D02*
X141732000Y-85142000D01*
X150142000Y-78486000D02*
X148642000Y-78486000D01*
X150142000Y-78486000D02*
X150142000Y-79728000D01*
X150142000Y-79728000D02*
X146050000Y-83820000D01*
X146050000Y-83820000D02*
X143054000Y-83820000D01*
X143054000Y-83820000D02*
X141732000Y-85142000D01*
X150142000Y-78486000D02*
X150142000Y-77244000D01*
X148844000Y-75946000D02*
X147828000Y-75946000D01*
X150142000Y-77244000D02*
X148844000Y-75946000D01*
X150142000Y-75974000D02*
X150114000Y-75946000D01*
X150142000Y-75974000D02*
X150114000Y-75946000D01*
D32*
X134112000Y-75946000D02*
X134112000Y-77724000D01*
X145796000Y-75946000D02*
X145796000Y-73914000D01*
X143510000Y-73914000D02*
X143510000Y-75946000D01*
X141478000Y-75946000D02*
X138938000Y-75946000D01*
X136652000Y-75946000D02*
X134112000Y-75946000D01*
X128270000Y-79502000D02*
X131318000Y-79502000D01*
X131318000Y-77724000D02*
X128270000Y-77724000D01*
X147828000Y-73914000D02*
X147828000Y-75946000D01*
X150114000Y-75946000D02*
X150114000Y-73914000D01*
X132080000Y-81280000D02*
X132080000Y-83566000D01*
X128016000Y-81280000D02*
X130048000Y-81280000D01*
X132080000Y-85852000D02*
X132080000Y-83566000D01*
X132080000Y-83566000D02*
X134366000Y-83566000D01*
X148642000Y-78486000D02*
X145796000Y-78486000D01*
X147574000Y-80772000D02*
X147828000Y-80518000D01*
X145796000Y-80772000D02*
X147574000Y-80772000D01*
X145796000Y-82804000D02*
X144018000Y-84582000D01*
X144018000Y-82550000D02*
X141986000Y-82550000D01*
X144272000Y-80772000D02*
X141986000Y-80772000D01*
X139954000Y-80772000D02*
X139954000Y-82550000D01*
X139954000Y-84582000D02*
X139954000Y-86614000D01*
X138176000Y-86614000D02*
X138176000Y-84582000D01*
X138176000Y-82550000D02*
X138176000Y-80772000D01*
D11*
X144592000Y-68326000D02*
X144592000Y-67498000D01*
X152146000Y-68580000D02*
X153332000Y-68580000D01*
X144592000Y-67498000D02*
X145034000Y-67056000D01*
X132715000Y-75598000D02*
X135984000Y-75598000D01*
X143256000Y-68326000D02*
X144592000Y-68326000D01*
X135984000Y-75598000D02*
X143256000Y-68326000D01*
X143196000Y-65722500D02*
X143196000Y-66930000D01*
X143196000Y-66930000D02*
X144592000Y-68326000D01*
D33*
X141732000Y-85142000D02*
X141986000Y-85142000D01*
X141986000Y-85142000D02*
X148642000Y-78486000D01*
X141569000Y-84979000D02*
X141732000Y-85142000D01*
X128778000Y-84074000D02*
X132588000Y-84074000D01*
X132588000Y-84074000D02*
X132699000Y-84074000D01*
X128905000Y-75598000D02*
X130175000Y-75598000D01*
X130175000Y-75598000D02*
X131445000Y-75598000D01*
X131445000Y-75598000D02*
X132715000Y-75598000D01*
X128778000Y-84074000D02*
X128778000Y-75725000D01*
X128778000Y-75725000D02*
X128905000Y-75598000D01*
D11*
X165585140Y-64582000D02*
X166944000Y-64582000D01*
X162052000Y-86106000D02*
X162052000Y-85077300D01*
X162560000Y-86614000D02*
X162052000Y-86106000D01*
X166116000Y-86614000D02*
X162560000Y-86614000D01*
X167132000Y-85598000D02*
X166116000Y-86614000D01*
X167132000Y-64770000D02*
X167132000Y-85598000D01*
X166944000Y-64582000D02*
X167132000Y-64770000D01*
D34*
X110750000Y-65000000D02*
X112250000Y-65000000D01*
D32*
X126619000Y-58768000D02*
X126619000Y-59563000D01*
X124714000Y-60198000D02*
X123444000Y-60198000D01*
X126619000Y-59563000D02*
X125984000Y-60198000D01*
X110744000Y-60960000D02*
X110744000Y-62992000D01*
X112776000Y-69342000D02*
X110744000Y-69342000D01*
X114554000Y-69088000D02*
X112776000Y-67310000D01*
X114554000Y-69342000D02*
X114554000Y-69088000D01*
X114554000Y-65024000D02*
X114554000Y-67310000D01*
X114554000Y-60960000D02*
X114554000Y-62992000D01*
X112776000Y-60960000D02*
X112776000Y-62992000D01*
D34*
X110750000Y-67304000D02*
X110744000Y-67310000D01*
D32*
X116078000Y-83312000D02*
X116078000Y-81280000D01*
X116078000Y-78994000D02*
X118618000Y-78994000D01*
X121158000Y-56642000D02*
X121158000Y-58420000D01*
X121158000Y-53594000D02*
X121158000Y-55118000D01*
X123190000Y-55118000D02*
X123190000Y-53594000D01*
X124968000Y-55118000D02*
X124968000Y-56642000D01*
X126746000Y-53594000D02*
X124968000Y-53594000D01*
X126746000Y-58641000D02*
X126746000Y-55118000D01*
X126619000Y-58768000D02*
X126746000Y-58641000D01*
X128524000Y-56896000D02*
X128524000Y-58420000D01*
X133985000Y-58768000D02*
X134653000Y-59436000D01*
X128524000Y-56896000D02*
X128524000Y-55118000D01*
X130048000Y-53594000D02*
X130048000Y-55118000D01*
X131826000Y-55118000D02*
X131826000Y-53594000D01*
X133858000Y-55118000D02*
X133858000Y-56896000D01*
X135890000Y-53594000D02*
X133858000Y-53594000D01*
X135890000Y-57658000D02*
X135890000Y-55626000D01*
X134653000Y-59436000D02*
X135890000Y-59436000D01*
D11*
X144800000Y-51308000D02*
X144800000Y-51796000D01*
X144800000Y-51796000D02*
X143510000Y-53086000D01*
X137616000Y-51308000D02*
X137414000Y-51308000D01*
X137414000Y-51308000D02*
X135636000Y-53086000D01*
X135890000Y-53086000D02*
X135382000Y-53086000D01*
X142748000Y-53086000D02*
X143002000Y-53086000D01*
X116880000Y-53086000D02*
X135382000Y-53086000D01*
X135382000Y-53086000D02*
X135636000Y-53086000D01*
X135636000Y-53086000D02*
X142748000Y-53086000D01*
X142748000Y-53086000D02*
X143510000Y-53086000D01*
X143510000Y-53086000D02*
X163914000Y-53086000D01*
X163914000Y-53086000D02*
X165184000Y-54356000D01*
D35*
X110208000Y-65024000D02*
X110208000Y-61496000D01*
X116880000Y-54824000D02*
X116880000Y-53086000D01*
D34*
X116880000Y-53086000D02*
X116880000Y-48514000D01*
D35*
X110208000Y-61496000D02*
X116880000Y-54824000D01*
D11*
X165184000Y-59690000D02*
X165184000Y-64482760D01*
X165184000Y-64482760D02*
X165084760Y-64582000D01*
X162052000Y-85077300D02*
X162293300Y-85077300D01*
X165184000Y-64482760D02*
X165084760Y-64582000D01*
X165184000Y-59690000D02*
X165184000Y-56896000D01*
X165184000Y-56896000D02*
X165184000Y-54356000D01*
X136398000Y-58768000D02*
X141638000Y-58768000D01*
X141638000Y-58768000D02*
X141986000Y-59116000D01*
X141986000Y-59116000D02*
X141986000Y-59944000D01*
X141986000Y-59944000D02*
X142049500Y-60007500D01*
X142049500Y-60007500D02*
X143196000Y-60007500D01*
X159004000Y-85077300D02*
X162052000Y-85077300D01*
D33*
X116586000Y-84725000D02*
X116586000Y-76962000D01*
X111708000Y-72084000D02*
X111708000Y-65024000D01*
X116586000Y-76962000D02*
X111708000Y-72084000D01*
X119888000Y-58768000D02*
X119888000Y-59756000D01*
X133985000Y-58768000D02*
X136398000Y-58768000D01*
X136398000Y-58768000D02*
X136426000Y-58768000D01*
X136426000Y-58768000D02*
X137668000Y-60010000D01*
X122809000Y-58768000D02*
X124079000Y-58768000D01*
X124079000Y-58768000D02*
X125349000Y-58768000D01*
X125349000Y-58768000D02*
X126619000Y-58768000D01*
X126619000Y-58768000D02*
X130175000Y-58768000D01*
X130175000Y-58768000D02*
X131445000Y-58768000D01*
X131445000Y-58768000D02*
X132715000Y-58768000D01*
X132715000Y-58768000D02*
X133985000Y-58768000D01*
X111708000Y-65024000D02*
X111708000Y-61520000D01*
X111708000Y-61520000D02*
X114460000Y-58768000D01*
X114460000Y-58768000D02*
X119888000Y-58768000D01*
X119888000Y-58768000D02*
X122809000Y-58768000D01*
X110208000Y-65024000D02*
X111708000Y-65024000D01*
X121778000Y-84074000D02*
X117237000Y-84074000D01*
X117237000Y-84074000D02*
X116586000Y-84725000D01*
D11*
X159324000Y-50015140D02*
X160274000Y-50965140D01*
X160274000Y-51308000D02*
X160340000Y-51242000D01*
X160274000Y-50965140D02*
X160274000Y-51308000D01*
X159324000Y-50104000D02*
X159324000Y-50015140D01*
X161544000Y-56896000D02*
X161544000Y-61976000D01*
X163083240Y-67579240D02*
X163083240Y-68646000D01*
X163068000Y-67564000D02*
X163083240Y-67579240D01*
X161544000Y-61976000D02*
X163068000Y-63500000D01*
X148396000Y-60007500D02*
X147129500Y-60007500D01*
X147129500Y-60007500D02*
X146812000Y-59690000D01*
X161544000Y-56896000D02*
X162984000Y-56896000D01*
X159004000Y-78656000D02*
X159004000Y-70104000D01*
X160528000Y-68580000D02*
X163017240Y-68580000D01*
X159004000Y-70104000D02*
X160528000Y-68580000D01*
X163017240Y-68580000D02*
X163083240Y-68646000D01*
D33*
X105998000Y-48768000D02*
X105998000Y-47672000D01*
X106708000Y-49478000D02*
X105998000Y-48768000D01*
D35*
X108498000Y-50078000D02*
X108498000Y-48768000D01*
D33*
X152398000Y-90142000D02*
X153950000Y-91694000D01*
D36*
G36*
X136578471Y-73455229D02*
X136578471Y-73455229D01*
X136855314Y-73732555D01*
X137217212Y-73882828D01*
X137609069Y-73883170D01*
X137971229Y-73733529D01*
X138248555Y-73456686D01*
X138322337Y-73279000D01*
X151003000Y-73279000D01*
X151003000Y-77281364D01*
X150911066Y-77189430D01*
X150762057Y-77338439D01*
X150671817Y-77122184D01*
X150109578Y-77023246D01*
X149612183Y-77122184D01*
X149533170Y-77311534D01*
X149411066Y-77189430D01*
X149392000Y-77208496D01*
X149372934Y-77189430D01*
X149250830Y-77311534D01*
X149171817Y-77122184D01*
X148609578Y-77023246D01*
X148112183Y-77122184D01*
X148021942Y-77338441D01*
X148642000Y-77958498D01*
X148656142Y-77944356D01*
X148761692Y-78049906D01*
X148679246Y-78518422D01*
X148759898Y-78923888D01*
X148656142Y-79027644D01*
X148642000Y-79013502D01*
X148021942Y-79633559D01*
X148112183Y-79849816D01*
X148674422Y-79948754D01*
X149171817Y-79849816D01*
X149250830Y-79660466D01*
X149372934Y-79782570D01*
X149392000Y-79763504D01*
X149411066Y-79782570D01*
X149533170Y-79660466D01*
X149612183Y-79849816D01*
X150174422Y-79948754D01*
X150671817Y-79849816D01*
X150762057Y-79633561D01*
X150911066Y-79782570D01*
X151003000Y-79690636D01*
X151003000Y-79957394D01*
X143203394Y-87757000D01*
X142319499Y-87757000D01*
X141732000Y-87169502D01*
X141144501Y-87757000D01*
X136450606Y-87757000D01*
X135471803Y-86778197D01*
X135430601Y-86750667D01*
X135382000Y-86740999D01*
X135381994Y-86741000D01*
X134683025Y-86741000D01*
X134742327Y-86681698D01*
X134839000Y-86448309D01*
X134839000Y-86180750D01*
X134680250Y-86022000D01*
X133904000Y-86022000D01*
X133904000Y-86115000D01*
X133304000Y-86115000D01*
X133304000Y-86022000D01*
X132527750Y-86022000D01*
X132369000Y-86180750D01*
X132369000Y-86448309D01*
X132465673Y-86681698D01*
X132524975Y-86741000D01*
X127635000Y-86741000D01*
X127635000Y-85909000D01*
X128246250Y-85909000D01*
X128405000Y-85750250D01*
X128405000Y-84447000D01*
X129151000Y-84447000D01*
X129151000Y-85750250D01*
X129309750Y-85909000D01*
X130104309Y-85909000D01*
X130337698Y-85812327D01*
X130516327Y-85633699D01*
X130613000Y-85400310D01*
X130613000Y-84605750D01*
X130494250Y-84487000D01*
X132877690Y-84487000D01*
X132644301Y-84583673D01*
X132465673Y-84762302D01*
X132369000Y-84995691D01*
X132369000Y-85263250D01*
X132527750Y-85422000D01*
X133304000Y-85422000D01*
X133304000Y-84645750D01*
X133145250Y-84487000D01*
X134062750Y-84487000D01*
X133904000Y-84645750D01*
X133904000Y-85422000D01*
X134680250Y-85422000D01*
X134839000Y-85263250D01*
X134839000Y-84995691D01*
X134742327Y-84762302D01*
X134563699Y-84583673D01*
X134414668Y-84521942D01*
X140584441Y-84521942D01*
X140368184Y-84612183D01*
X140269246Y-85174422D01*
X140368184Y-85671817D01*
X140557534Y-85750830D01*
X140435430Y-85872934D01*
X140454496Y-85892000D01*
X140435430Y-85911066D01*
X140557534Y-86033170D01*
X140368184Y-86112183D01*
X140269246Y-86674422D01*
X140368184Y-87171817D01*
X140584441Y-87262058D01*
X141204498Y-86642000D01*
X141190356Y-86627858D01*
X141295906Y-86522308D01*
X141764422Y-86604754D01*
X142169888Y-86524102D01*
X142273644Y-86627858D01*
X142259502Y-86642000D01*
X142879559Y-87262058D01*
X143095816Y-87171817D01*
X143194754Y-86609578D01*
X143095816Y-86112183D01*
X142906466Y-86033170D01*
X143028570Y-85911066D01*
X143009504Y-85892000D01*
X143028570Y-85872934D01*
X142906466Y-85750830D01*
X143095816Y-85671817D01*
X143194754Y-85109578D01*
X143095816Y-84612183D01*
X142879559Y-84521942D01*
X142259502Y-85142000D01*
X142273644Y-85156142D01*
X142168094Y-85261692D01*
X141699578Y-85179246D01*
X141294112Y-85259898D01*
X141190356Y-85156142D01*
X141204498Y-85142000D01*
X140584441Y-84521942D01*
X134414668Y-84521942D01*
X134330310Y-84487000D01*
X134062750Y-84487000D01*
X133145250Y-84487000D01*
X133145250Y-84487000D01*
X132877690Y-84487000D01*
X130494250Y-84487000D01*
X130454250Y-84447000D01*
X129151000Y-84447000D01*
X128405000Y-84447000D01*
X128405000Y-84447000D01*
X128385000Y-84447000D01*
X128385000Y-83701000D01*
X128405000Y-83701000D01*
X128405000Y-82397750D01*
X128246250Y-82239000D01*
X129309750Y-82239000D01*
X129151000Y-82397750D01*
X129151000Y-83701000D01*
X130454250Y-83701000D01*
X130476004Y-83679246D01*
X141699578Y-83679246D01*
X141202183Y-83778184D01*
X141111942Y-83994441D01*
X141732000Y-84614498D01*
X142352058Y-83994441D01*
X142261817Y-83778184D01*
X141699578Y-83679246D01*
X130476004Y-83679246D01*
X130613000Y-83542250D01*
X130613000Y-82747690D01*
X130516327Y-82514301D01*
X130337698Y-82335673D01*
X130104309Y-82239000D01*
X129309750Y-82239000D01*
X128246250Y-82239000D01*
X128246250Y-82239000D01*
X127635000Y-82239000D01*
X127635000Y-77865942D01*
X147494441Y-77865942D01*
X147278184Y-77956183D01*
X147179246Y-78518422D01*
X147278184Y-79015817D01*
X147494441Y-79106058D01*
X148114498Y-78486000D01*
X147494441Y-77865942D01*
X127635000Y-77865942D01*
X127635000Y-75971000D01*
X128128750Y-75971000D01*
X127970000Y-76129750D01*
X127970000Y-76499309D01*
X128066673Y-76732698D01*
X128245301Y-76911327D01*
X128478690Y-77008000D01*
X128596250Y-77008000D01*
X128755000Y-76849250D01*
X128755000Y-75971000D01*
X129055000Y-75971000D01*
X129055000Y-76849250D01*
X129213750Y-77008000D01*
X129331310Y-77008000D01*
X129540000Y-76921558D01*
X129748690Y-77008000D01*
X129866250Y-77008000D01*
X130025000Y-76849250D01*
X130025000Y-75971000D01*
X130325000Y-75971000D01*
X130325000Y-76849250D01*
X130483750Y-77008000D01*
X130601310Y-77008000D01*
X130810000Y-76921558D01*
X131018690Y-77008000D01*
X131136250Y-77008000D01*
X131295000Y-76849250D01*
X131295000Y-75971000D01*
X131595000Y-75971000D01*
X131595000Y-76849250D01*
X131753750Y-77008000D01*
X131871310Y-77008000D01*
X132080000Y-76921558D01*
X132288690Y-77008000D01*
X132406250Y-77008000D01*
X132565000Y-76849250D01*
X132565000Y-75971000D01*
X132865000Y-75971000D01*
X132865000Y-76849250D01*
X133023750Y-77008000D01*
X133141310Y-77008000D01*
X133374699Y-76911327D01*
X133553327Y-76732698D01*
X133650000Y-76499309D01*
X133650000Y-76129750D01*
X133491250Y-75971000D01*
X132865000Y-75971000D01*
X132565000Y-75971000D01*
X132565000Y-75971000D01*
X131595000Y-75971000D01*
X131295000Y-75971000D01*
X131295000Y-75971000D01*
X130325000Y-75971000D01*
X130025000Y-75971000D01*
X130025000Y-75971000D01*
X129055000Y-75971000D01*
X128755000Y-75971000D01*
X128755000Y-75971000D01*
X128128750Y-75971000D01*
X127635000Y-75971000D01*
X127635000Y-74188000D01*
X128478690Y-74188000D01*
X128245301Y-74284673D01*
X128066673Y-74463302D01*
X127970000Y-74696691D01*
X127970000Y-75066250D01*
X128128750Y-75225000D01*
X128755000Y-75225000D01*
X128755000Y-74346750D01*
X128596250Y-74188000D01*
X129213750Y-74188000D01*
X129055000Y-74346750D01*
X129055000Y-75225000D01*
X130025000Y-75225000D01*
X130025000Y-74346750D01*
X129866250Y-74188000D01*
X130483750Y-74188000D01*
X130325000Y-74346750D01*
X130325000Y-75225000D01*
X131295000Y-75225000D01*
X131295000Y-74346750D01*
X131136250Y-74188000D01*
X131753750Y-74188000D01*
X131595000Y-74346750D01*
X131595000Y-75225000D01*
X132565000Y-75225000D01*
X132565000Y-74346750D01*
X132406250Y-74188000D01*
X133023750Y-74188000D01*
X132865000Y-74346750D01*
X132865000Y-75225000D01*
X133491250Y-75225000D01*
X133650000Y-75066250D01*
X133650000Y-74696691D01*
X133553327Y-74463302D01*
X133374699Y-74284673D01*
X133141310Y-74188000D01*
X133023750Y-74188000D01*
X132406250Y-74188000D01*
X132406250Y-74188000D01*
X132288690Y-74188000D01*
X132080000Y-74274442D01*
X131871310Y-74188000D01*
X131753750Y-74188000D01*
X131136250Y-74188000D01*
X131136250Y-74188000D01*
X131018690Y-74188000D01*
X130810000Y-74274442D01*
X130601310Y-74188000D01*
X130483750Y-74188000D01*
X129866250Y-74188000D01*
X129866250Y-74188000D01*
X129748690Y-74188000D01*
X129540000Y-74274442D01*
X129331310Y-74188000D01*
X129213750Y-74188000D01*
X128596250Y-74188000D01*
X128596250Y-74188000D01*
X128478690Y-74188000D01*
X127635000Y-74188000D01*
X127635000Y-73325819D01*
X127688471Y-73455229D01*
X127965314Y-73732555D01*
X128327212Y-73882828D01*
X128719069Y-73883170D01*
X129081229Y-73733529D01*
X129358555Y-73456686D01*
X129432337Y-73279000D01*
X136505655Y-73279000D01*
X136578471Y-73455229D01*
X136578471Y-73455229D01*
G37*
X136578471Y-73455229D02*
X136578471Y-73455229D01*
X136855314Y-73732555D01*
X137217212Y-73882828D01*
X137609069Y-73883170D01*
X137971229Y-73733529D01*
X138248555Y-73456686D01*
X138322337Y-73279000D01*
X151003000Y-73279000D01*
X151003000Y-77281364D01*
X150911066Y-77189430D01*
X150762057Y-77338439D01*
X150671817Y-77122184D01*
X150109578Y-77023246D01*
X149612183Y-77122184D01*
X149533170Y-77311534D01*
X149411066Y-77189430D01*
X149392000Y-77208496D01*
X149372934Y-77189430D01*
X149250830Y-77311534D01*
X149171817Y-77122184D01*
X148609578Y-77023246D01*
X148112183Y-77122184D01*
X148021942Y-77338441D01*
X148642000Y-77958498D01*
X148656142Y-77944356D01*
X148761692Y-78049906D01*
X148679246Y-78518422D01*
X148759898Y-78923888D01*
X148656142Y-79027644D01*
X148642000Y-79013502D01*
X148021942Y-79633559D01*
X148112183Y-79849816D01*
X148674422Y-79948754D01*
X149171817Y-79849816D01*
X149250830Y-79660466D01*
X149372934Y-79782570D01*
X149392000Y-79763504D01*
X149411066Y-79782570D01*
X149533170Y-79660466D01*
X149612183Y-79849816D01*
X150174422Y-79948754D01*
X150671817Y-79849816D01*
X150762057Y-79633561D01*
X150911066Y-79782570D01*
X151003000Y-79690636D01*
X151003000Y-79957394D01*
X143203394Y-87757000D01*
X142319499Y-87757000D01*
X141732000Y-87169502D01*
X141144501Y-87757000D01*
X136450606Y-87757000D01*
X135471803Y-86778197D01*
X135430601Y-86750667D01*
X135382000Y-86740999D01*
X135381994Y-86741000D01*
X134683025Y-86741000D01*
X134742327Y-86681698D01*
X134839000Y-86448309D01*
X134839000Y-86180750D01*
X134680250Y-86022000D01*
X133904000Y-86022000D01*
X133904000Y-86115000D01*
X133304000Y-86115000D01*
X133304000Y-86022000D01*
X132527750Y-86022000D01*
X132369000Y-86180750D01*
X132369000Y-86448309D01*
X132465673Y-86681698D01*
X132524975Y-86741000D01*
X127635000Y-86741000D01*
X127635000Y-85909000D01*
X128246250Y-85909000D01*
X128405000Y-85750250D01*
X128405000Y-84447000D01*
X129151000Y-84447000D01*
X129151000Y-85750250D01*
X129309750Y-85909000D01*
X130104309Y-85909000D01*
X130337698Y-85812327D01*
X130516327Y-85633699D01*
X130613000Y-85400310D01*
X130613000Y-84605750D01*
X130494250Y-84487000D01*
X132877690Y-84487000D01*
X132644301Y-84583673D01*
X132465673Y-84762302D01*
X132369000Y-84995691D01*
X132369000Y-85263250D01*
X132527750Y-85422000D01*
X133304000Y-85422000D01*
X133304000Y-84645750D01*
X133145250Y-84487000D01*
X134062750Y-84487000D01*
X133904000Y-84645750D01*
X133904000Y-85422000D01*
X134680250Y-85422000D01*
X134839000Y-85263250D01*
X134839000Y-84995691D01*
X134742327Y-84762302D01*
X134563699Y-84583673D01*
X134414668Y-84521942D01*
X140584441Y-84521942D01*
X140368184Y-84612183D01*
X140269246Y-85174422D01*
X140368184Y-85671817D01*
X140557534Y-85750830D01*
X140435430Y-85872934D01*
X140454496Y-85892000D01*
X140435430Y-85911066D01*
X140557534Y-86033170D01*
X140368184Y-86112183D01*
X140269246Y-86674422D01*
X140368184Y-87171817D01*
X140584441Y-87262058D01*
X141204498Y-86642000D01*
X141190356Y-86627858D01*
X141295906Y-86522308D01*
X141764422Y-86604754D01*
X142169888Y-86524102D01*
X142273644Y-86627858D01*
X142259502Y-86642000D01*
X142879559Y-87262058D01*
X143095816Y-87171817D01*
X143194754Y-86609578D01*
X143095816Y-86112183D01*
X142906466Y-86033170D01*
X143028570Y-85911066D01*
X143009504Y-85892000D01*
X143028570Y-85872934D01*
X142906466Y-85750830D01*
X143095816Y-85671817D01*
X143194754Y-85109578D01*
X143095816Y-84612183D01*
X142879559Y-84521942D01*
X142259502Y-85142000D01*
X142273644Y-85156142D01*
X142168094Y-85261692D01*
X141699578Y-85179246D01*
X141294112Y-85259898D01*
X141190356Y-85156142D01*
X141204498Y-85142000D01*
X140584441Y-84521942D01*
X134414668Y-84521942D01*
X134330310Y-84487000D01*
X134062750Y-84487000D01*
X133145250Y-84487000D01*
X133145250Y-84487000D01*
X132877690Y-84487000D01*
X130494250Y-84487000D01*
X130454250Y-84447000D01*
X129151000Y-84447000D01*
X128405000Y-84447000D01*
X128405000Y-84447000D01*
X128385000Y-84447000D01*
X128385000Y-83701000D01*
X128405000Y-83701000D01*
X128405000Y-82397750D01*
X128246250Y-82239000D01*
X129309750Y-82239000D01*
X129151000Y-82397750D01*
X129151000Y-83701000D01*
X130454250Y-83701000D01*
X130476004Y-83679246D01*
X141699578Y-83679246D01*
X141202183Y-83778184D01*
X141111942Y-83994441D01*
X141732000Y-84614498D01*
X142352058Y-83994441D01*
X142261817Y-83778184D01*
X141699578Y-83679246D01*
X130476004Y-83679246D01*
X130613000Y-83542250D01*
X130613000Y-82747690D01*
X130516327Y-82514301D01*
X130337698Y-82335673D01*
X130104309Y-82239000D01*
X129309750Y-82239000D01*
X128246250Y-82239000D01*
X128246250Y-82239000D01*
X127635000Y-82239000D01*
X127635000Y-77865942D01*
X147494441Y-77865942D01*
X147278184Y-77956183D01*
X147179246Y-78518422D01*
X147278184Y-79015817D01*
X147494441Y-79106058D01*
X148114498Y-78486000D01*
X147494441Y-77865942D01*
X127635000Y-77865942D01*
X127635000Y-75971000D01*
X128128750Y-75971000D01*
X127970000Y-76129750D01*
X127970000Y-76499309D01*
X128066673Y-76732698D01*
X128245301Y-76911327D01*
X128478690Y-77008000D01*
X128596250Y-77008000D01*
X128755000Y-76849250D01*
X128755000Y-75971000D01*
X129055000Y-75971000D01*
X129055000Y-76849250D01*
X129213750Y-77008000D01*
X129331310Y-77008000D01*
X129540000Y-76921558D01*
X129748690Y-77008000D01*
X129866250Y-77008000D01*
X130025000Y-76849250D01*
X130025000Y-75971000D01*
X130325000Y-75971000D01*
X130325000Y-76849250D01*
X130483750Y-77008000D01*
X130601310Y-77008000D01*
X130810000Y-76921558D01*
X131018690Y-77008000D01*
X131136250Y-77008000D01*
X131295000Y-76849250D01*
X131295000Y-75971000D01*
X131595000Y-75971000D01*
X131595000Y-76849250D01*
X131753750Y-77008000D01*
X131871310Y-77008000D01*
X132080000Y-76921558D01*
X132288690Y-77008000D01*
X132406250Y-77008000D01*
X132565000Y-76849250D01*
X132565000Y-75971000D01*
X132865000Y-75971000D01*
X132865000Y-76849250D01*
X133023750Y-77008000D01*
X133141310Y-77008000D01*
X133374699Y-76911327D01*
X133553327Y-76732698D01*
X133650000Y-76499309D01*
X133650000Y-76129750D01*
X133491250Y-75971000D01*
X132865000Y-75971000D01*
X132565000Y-75971000D01*
X132565000Y-75971000D01*
X131595000Y-75971000D01*
X131295000Y-75971000D01*
X131295000Y-75971000D01*
X130325000Y-75971000D01*
X130025000Y-75971000D01*
X130025000Y-75971000D01*
X129055000Y-75971000D01*
X128755000Y-75971000D01*
X128755000Y-75971000D01*
X128128750Y-75971000D01*
X127635000Y-75971000D01*
X127635000Y-74188000D01*
X128478690Y-74188000D01*
X128245301Y-74284673D01*
X128066673Y-74463302D01*
X127970000Y-74696691D01*
X127970000Y-75066250D01*
X128128750Y-75225000D01*
X128755000Y-75225000D01*
X128755000Y-74346750D01*
X128596250Y-74188000D01*
X129213750Y-74188000D01*
X129055000Y-74346750D01*
X129055000Y-75225000D01*
X130025000Y-75225000D01*
X130025000Y-74346750D01*
X129866250Y-74188000D01*
X130483750Y-74188000D01*
X130325000Y-74346750D01*
X130325000Y-75225000D01*
X131295000Y-75225000D01*
X131295000Y-74346750D01*
X131136250Y-74188000D01*
X131753750Y-74188000D01*
X131595000Y-74346750D01*
X131595000Y-75225000D01*
X132565000Y-75225000D01*
X132565000Y-74346750D01*
X132406250Y-74188000D01*
X133023750Y-74188000D01*
X132865000Y-74346750D01*
X132865000Y-75225000D01*
X133491250Y-75225000D01*
X133650000Y-75066250D01*
X133650000Y-74696691D01*
X133553327Y-74463302D01*
X133374699Y-74284673D01*
X133141310Y-74188000D01*
X133023750Y-74188000D01*
X132406250Y-74188000D01*
X132406250Y-74188000D01*
X132288690Y-74188000D01*
X132080000Y-74274442D01*
X131871310Y-74188000D01*
X131753750Y-74188000D01*
X131136250Y-74188000D01*
X131136250Y-74188000D01*
X131018690Y-74188000D01*
X130810000Y-74274442D01*
X130601310Y-74188000D01*
X130483750Y-74188000D01*
X129866250Y-74188000D01*
X129866250Y-74188000D01*
X129748690Y-74188000D01*
X129540000Y-74274442D01*
X129331310Y-74188000D01*
X129213750Y-74188000D01*
X128596250Y-74188000D01*
X128596250Y-74188000D01*
X128478690Y-74188000D01*
X127635000Y-74188000D01*
X127635000Y-73325819D01*
X127688471Y-73455229D01*
X127965314Y-73732555D01*
X128327212Y-73882828D01*
X128719069Y-73883170D01*
X129081229Y-73733529D01*
X129358555Y-73456686D01*
X129432337Y-73279000D01*
X136505655Y-73279000D01*
X136578471Y-73455229D01*
G36*
X150683644Y-78471858D02*
X150669502Y-78486000D01*
X150683644Y-78500142D01*
X150156142Y-79027644D01*
X150142000Y-79013502D01*
X150127858Y-79027644D01*
X150022308Y-78922094D01*
X150104754Y-78453578D01*
X150024102Y-78048112D01*
X150127858Y-77944356D01*
X150142000Y-77958498D01*
X150156142Y-77944356D01*
X150683644Y-78471858D01*
X150683644Y-78471858D01*
G37*
X150683644Y-78471858D02*
X150669502Y-78486000D01*
X150683644Y-78500142D01*
X150156142Y-79027644D01*
X150142000Y-79013502D01*
X150127858Y-79027644D01*
X150022308Y-78922094D01*
X150104754Y-78453578D01*
X150024102Y-78048112D01*
X150127858Y-77944356D01*
X150142000Y-77958498D01*
X150156142Y-77944356D01*
X150683644Y-78471858D01*
G36*
X126619000Y-83260502D02*
X126619000Y-83260502D01*
X125805502Y-84074000D01*
X126619000Y-84887498D01*
X126619000Y-86741000D01*
X123825000Y-86741000D01*
X123825000Y-84987671D01*
X123832619Y-84991879D01*
X124222996Y-84601502D01*
X125278000Y-84601502D01*
X124360121Y-85519381D01*
X124502122Y-85776489D01*
X125212697Y-85943810D01*
X125933213Y-85826470D01*
X126053878Y-85776489D01*
X126195879Y-85519381D01*
X125278000Y-84601502D01*
X124222996Y-84601502D01*
X124750498Y-84074000D01*
X123832619Y-83156121D01*
X123825000Y-83160329D01*
X123825000Y-82204190D01*
X125343303Y-82204190D01*
X124622787Y-82321530D01*
X124502122Y-82371511D01*
X124360121Y-82628619D01*
X125278000Y-83546498D01*
X126195879Y-82628619D01*
X126053878Y-82371511D01*
X125343303Y-82204190D01*
X123825000Y-82204190D01*
X123825000Y-81788000D01*
X123825001Y-81788000D01*
X123815333Y-81739399D01*
X123787803Y-81698198D01*
X123787803Y-81698197D01*
X123787799Y-81698194D01*
X118745000Y-76655394D01*
X118745000Y-75971000D01*
X120762750Y-75971000D01*
X120604000Y-76129750D01*
X120604000Y-76499309D01*
X120700673Y-76732698D01*
X120879301Y-76911327D01*
X121112690Y-77008000D01*
X121230250Y-77008000D01*
X121389000Y-76849250D01*
X121389000Y-75971000D01*
X120762750Y-75971000D01*
X118745000Y-75971000D01*
X118745000Y-74188000D01*
X121112690Y-74188000D01*
X120879301Y-74284673D01*
X120700673Y-74463302D01*
X120604000Y-74696691D01*
X120604000Y-75066250D01*
X120762750Y-75225000D01*
X121389000Y-75225000D01*
X121389000Y-74346750D01*
X121230250Y-74188000D01*
X121847750Y-74188000D01*
X121689000Y-74346750D01*
X121689000Y-75225000D01*
X122659000Y-75225000D01*
X122659000Y-74346750D01*
X122500250Y-74188000D01*
X122382690Y-74188000D01*
X122174000Y-74274442D01*
X121965310Y-74188000D01*
X121847750Y-74188000D01*
X121230250Y-74188000D01*
X121230250Y-74188000D01*
X121112690Y-74188000D01*
X118745000Y-74188000D01*
X118745000Y-73279000D01*
X126619000Y-73279000D01*
X126619000Y-83260502D01*
X126619000Y-83260502D01*
G37*
X126619000Y-83260502D02*
X126619000Y-83260502D01*
X125805502Y-84074000D01*
X126619000Y-84887498D01*
X126619000Y-86741000D01*
X123825000Y-86741000D01*
X123825000Y-84987671D01*
X123832619Y-84991879D01*
X124222996Y-84601502D01*
X125278000Y-84601502D01*
X124360121Y-85519381D01*
X124502122Y-85776489D01*
X125212697Y-85943810D01*
X125933213Y-85826470D01*
X126053878Y-85776489D01*
X126195879Y-85519381D01*
X125278000Y-84601502D01*
X124222996Y-84601502D01*
X124750498Y-84074000D01*
X123832619Y-83156121D01*
X123825000Y-83160329D01*
X123825000Y-82204190D01*
X125343303Y-82204190D01*
X124622787Y-82321530D01*
X124502122Y-82371511D01*
X124360121Y-82628619D01*
X125278000Y-83546498D01*
X126195879Y-82628619D01*
X126053878Y-82371511D01*
X125343303Y-82204190D01*
X123825000Y-82204190D01*
X123825000Y-81788000D01*
X123825001Y-81788000D01*
X123815333Y-81739399D01*
X123787803Y-81698198D01*
X123787803Y-81698197D01*
X123787799Y-81698194D01*
X118745000Y-76655394D01*
X118745000Y-75971000D01*
X120762750Y-75971000D01*
X120604000Y-76129750D01*
X120604000Y-76499309D01*
X120700673Y-76732698D01*
X120879301Y-76911327D01*
X121112690Y-77008000D01*
X121230250Y-77008000D01*
X121389000Y-76849250D01*
X121389000Y-75971000D01*
X120762750Y-75971000D01*
X118745000Y-75971000D01*
X118745000Y-74188000D01*
X121112690Y-74188000D01*
X120879301Y-74284673D01*
X120700673Y-74463302D01*
X120604000Y-74696691D01*
X120604000Y-75066250D01*
X120762750Y-75225000D01*
X121389000Y-75225000D01*
X121389000Y-74346750D01*
X121230250Y-74188000D01*
X121847750Y-74188000D01*
X121689000Y-74346750D01*
X121689000Y-75225000D01*
X122659000Y-75225000D01*
X122659000Y-74346750D01*
X122500250Y-74188000D01*
X122382690Y-74188000D01*
X122174000Y-74274442D01*
X121965310Y-74188000D01*
X121847750Y-74188000D01*
X121230250Y-74188000D01*
X121230250Y-74188000D01*
X121112690Y-74188000D01*
X118745000Y-74188000D01*
X118745000Y-73279000D01*
X126619000Y-73279000D01*
X126619000Y-83260502D01*
G36*
X131392661Y-52705242D02*
X131392661Y-52705242D01*
X131393247Y-52705000D01*
X137287000Y-52705000D01*
X137287000Y-58775000D01*
X137166690Y-58775000D01*
X136933301Y-58871673D01*
X136754673Y-59050302D01*
X136658000Y-59283691D01*
X136658000Y-59551250D01*
X136816750Y-59710000D01*
X137287000Y-59710000D01*
X137287000Y-60310000D01*
X136816750Y-60310000D01*
X136658000Y-60468750D01*
X136658000Y-60736309D01*
X136698051Y-60833000D01*
X134249653Y-60833000D01*
X134269282Y-60813405D01*
X134434811Y-60414767D01*
X134435026Y-60168176D01*
X134644699Y-60081327D01*
X134823327Y-59902698D01*
X134920000Y-59669309D01*
X134920000Y-59299750D01*
X134761250Y-59141000D01*
X134135000Y-59141000D01*
X134135000Y-59161000D01*
X133835000Y-59161000D01*
X133835000Y-59141000D01*
X133633743Y-59141000D01*
X133566767Y-59113189D01*
X133135127Y-59112812D01*
X133066907Y-59141000D01*
X132865000Y-59141000D01*
X132865000Y-59161000D01*
X132565000Y-59161000D01*
X132565000Y-59141000D01*
X132363743Y-59141000D01*
X132296767Y-59113189D01*
X131865127Y-59112812D01*
X131796907Y-59141000D01*
X131595000Y-59141000D01*
X131595000Y-59161000D01*
X131295000Y-59161000D01*
X131295000Y-59141000D01*
X131093743Y-59141000D01*
X131026767Y-59113189D01*
X130595127Y-59112812D01*
X130526907Y-59141000D01*
X130325000Y-59141000D01*
X130325000Y-59161000D01*
X130025000Y-59161000D01*
X130025000Y-59141000D01*
X129398750Y-59141000D01*
X129240000Y-59299750D01*
X129240000Y-59669309D01*
X129336673Y-59902698D01*
X129515301Y-60081327D01*
X129725026Y-60168198D01*
X129724812Y-60412873D01*
X129889646Y-60811800D01*
X129910809Y-60833000D01*
X120867173Y-60833000D01*
X120863463Y-60813877D01*
X120799904Y-60717121D01*
X120801327Y-60715698D01*
X120898000Y-60482309D01*
X120898000Y-60214750D01*
X120739250Y-60056000D01*
X120075500Y-60056000D01*
X120075500Y-60149000D01*
X119700500Y-60149000D01*
X119700500Y-60056000D01*
X119036750Y-60056000D01*
X118878000Y-60214750D01*
X118878000Y-60482309D01*
X118974673Y-60715698D01*
X118975955Y-60716980D01*
X118915623Y-60806360D01*
X118910281Y-60833000D01*
X115824005Y-60833000D01*
X115824000Y-60832999D01*
X115775399Y-60842667D01*
X115734197Y-60870197D01*
X114972197Y-61632197D01*
X114944667Y-61673399D01*
X114934999Y-61722000D01*
X114935000Y-61722005D01*
X114935000Y-63572532D01*
X114844755Y-63707593D01*
X114831830Y-63772573D01*
X114785000Y-64008000D01*
X114785000Y-67564000D01*
X114844755Y-67864407D01*
X114935000Y-67999468D01*
X114935000Y-68326000D01*
X114935597Y-68329005D01*
X114935143Y-68332041D01*
X114940414Y-68353220D01*
X114944667Y-68374601D01*
X114946369Y-68377149D01*
X114947111Y-68380127D01*
X114960075Y-68397661D01*
X114972197Y-68415803D01*
X114974749Y-68417508D01*
X114976571Y-68419972D01*
X117729000Y-70922181D01*
X117729000Y-76961994D01*
X117728999Y-76962000D01*
X117738667Y-77010601D01*
X117766197Y-77051803D01*
X122809000Y-82094605D01*
X122809000Y-82515496D01*
X122695878Y-82628618D01*
X122553878Y-82371511D01*
X121843303Y-82204190D01*
X121122787Y-82321530D01*
X121002122Y-82371511D01*
X120860121Y-82628619D01*
X121778000Y-83546498D01*
X121792142Y-83532356D01*
X122319644Y-84059858D01*
X122305502Y-84074000D01*
X122319644Y-84088142D01*
X121792142Y-84615644D01*
X121778000Y-84601502D01*
X120860121Y-85519381D01*
X121002122Y-85776489D01*
X121712697Y-85943810D01*
X122433213Y-85826470D01*
X122553878Y-85776489D01*
X122695878Y-85519382D01*
X122809000Y-85632504D01*
X122809000Y-86741000D01*
X117804974Y-86741000D01*
X117821000Y-86702309D01*
X117821000Y-86434750D01*
X117662250Y-86276000D01*
X116886000Y-86276000D01*
X116886000Y-86369000D01*
X116286000Y-86369000D01*
X116286000Y-86276000D01*
X115509750Y-86276000D01*
X115351000Y-86434750D01*
X115351000Y-86469395D01*
X113622606Y-84741000D01*
X115859690Y-84741000D01*
X115626301Y-84837673D01*
X115447673Y-85016302D01*
X115351000Y-85249691D01*
X115351000Y-85517250D01*
X115509750Y-85676000D01*
X116286000Y-85676000D01*
X116286000Y-84899750D01*
X116127250Y-84741000D01*
X117044750Y-84741000D01*
X116886000Y-84899750D01*
X116886000Y-85676000D01*
X117662250Y-85676000D01*
X117821000Y-85517250D01*
X117821000Y-85249691D01*
X117724327Y-85016302D01*
X117545699Y-84837673D01*
X117312310Y-84741000D01*
X117044750Y-84741000D01*
X116127250Y-84741000D01*
X116127250Y-84741000D01*
X115859690Y-84741000D01*
X113622606Y-84741000D01*
X112037727Y-83156121D01*
X120332619Y-83156121D01*
X120075511Y-83298122D01*
X119908190Y-84008697D01*
X120025530Y-84729213D01*
X120075511Y-84849878D01*
X120332619Y-84991879D01*
X121250498Y-84074000D01*
X120332619Y-83156121D01*
X112037727Y-83156121D01*
X111379000Y-82497394D01*
X111379000Y-79756000D01*
X111369333Y-79707399D01*
X111341803Y-79666197D01*
X111341799Y-79666194D01*
X108839000Y-77163394D01*
X108839000Y-64379942D01*
X109602441Y-64379942D01*
X109386184Y-64470183D01*
X109287246Y-65032422D01*
X109386184Y-65529817D01*
X109602441Y-65620058D01*
X110222498Y-65000000D01*
X109602441Y-64379942D01*
X108839000Y-64379942D01*
X108839000Y-63537246D01*
X110717578Y-63537246D01*
X110220183Y-63636184D01*
X110129942Y-63852441D01*
X110750000Y-64472498D01*
X110764142Y-64458356D01*
X110869692Y-64563906D01*
X110787246Y-65032422D01*
X110867898Y-65437888D01*
X110764142Y-65541644D01*
X110750000Y-65527502D01*
X110129942Y-66147559D01*
X110220183Y-66363816D01*
X110782422Y-66462754D01*
X111279817Y-66363816D01*
X111358830Y-66174466D01*
X111480934Y-66296570D01*
X111500000Y-66277504D01*
X111519066Y-66296570D01*
X111641170Y-66174466D01*
X111720183Y-66363816D01*
X112282422Y-66462754D01*
X112779817Y-66363816D01*
X112870058Y-66147559D01*
X112250000Y-65527502D01*
X112235858Y-65541644D01*
X112130308Y-65436094D01*
X112212754Y-64967578D01*
X112132102Y-64562112D01*
X112235858Y-64458356D01*
X112250000Y-64472498D01*
X112342556Y-64379942D01*
X113397559Y-64379942D01*
X112777502Y-65000000D01*
X113397559Y-65620058D01*
X113613816Y-65529817D01*
X113712754Y-64967578D01*
X113613816Y-64470183D01*
X113397559Y-64379942D01*
X112342556Y-64379942D01*
X112870058Y-63852441D01*
X112779817Y-63636184D01*
X112217578Y-63537246D01*
X111720183Y-63636184D01*
X111641170Y-63825534D01*
X111519066Y-63703430D01*
X111500000Y-63722496D01*
X111480934Y-63703430D01*
X111358830Y-63825534D01*
X111279817Y-63636184D01*
X110717578Y-63537246D01*
X108839000Y-63537246D01*
X108839000Y-59996605D01*
X110314605Y-58521000D01*
X119386690Y-58521000D01*
X119153301Y-58617673D01*
X118974673Y-58796302D01*
X118878000Y-59029691D01*
X118878000Y-59297250D01*
X119036750Y-59456000D01*
X119700500Y-59456000D01*
X119700500Y-58679750D01*
X119541750Y-58521000D01*
X120234250Y-58521000D01*
X120075500Y-58679750D01*
X120075500Y-59456000D01*
X120739250Y-59456000D01*
X120898000Y-59297250D01*
X120898000Y-59141000D01*
X122032750Y-59141000D01*
X121874000Y-59299750D01*
X121874000Y-59669309D01*
X121970673Y-59902698D01*
X122149301Y-60081327D01*
X122382690Y-60178000D01*
X122500250Y-60178000D01*
X122659000Y-60019250D01*
X122659000Y-59141000D01*
X122959000Y-59141000D01*
X122959000Y-60019250D01*
X123117750Y-60178000D01*
X123235310Y-60178000D01*
X123444000Y-60091558D01*
X123652690Y-60178000D01*
X123770250Y-60178000D01*
X123929000Y-60019250D01*
X123929000Y-59141000D01*
X124229000Y-59141000D01*
X124229000Y-60019250D01*
X124387750Y-60178000D01*
X124505310Y-60178000D01*
X124714000Y-60091558D01*
X124922690Y-60178000D01*
X125040250Y-60178000D01*
X125199000Y-60019250D01*
X125199000Y-59141000D01*
X125499000Y-59141000D01*
X125499000Y-60019250D01*
X125657750Y-60178000D01*
X125775310Y-60178000D01*
X125984000Y-60091558D01*
X126192690Y-60178000D01*
X126310250Y-60178000D01*
X126469000Y-60019250D01*
X126469000Y-59141000D01*
X126769000Y-59141000D01*
X126769000Y-60019250D01*
X126927750Y-60178000D01*
X127045310Y-60178000D01*
X127278699Y-60081327D01*
X127457327Y-59902698D01*
X127554000Y-59669309D01*
X127554000Y-59299750D01*
X127395250Y-59141000D01*
X126769000Y-59141000D01*
X126469000Y-59141000D01*
X126469000Y-59141000D01*
X125499000Y-59141000D01*
X125199000Y-59141000D01*
X125199000Y-59141000D01*
X124229000Y-59141000D01*
X123929000Y-59141000D01*
X123929000Y-59141000D01*
X122959000Y-59141000D01*
X122659000Y-59141000D01*
X122659000Y-59141000D01*
X122032750Y-59141000D01*
X120898000Y-59141000D01*
X120898000Y-59029691D01*
X120801327Y-58796302D01*
X120622699Y-58617673D01*
X120389310Y-58521000D01*
X120234250Y-58521000D01*
X119541750Y-58521000D01*
X119541750Y-58521000D01*
X119386690Y-58521000D01*
X110314605Y-58521000D01*
X111477605Y-57358000D01*
X122382690Y-57358000D01*
X122149301Y-57454673D01*
X121970673Y-57633302D01*
X121874000Y-57866691D01*
X121874000Y-58236250D01*
X122032750Y-58395000D01*
X122659000Y-58395000D01*
X122659000Y-57516750D01*
X122500250Y-57358000D01*
X123117750Y-57358000D01*
X122959000Y-57516750D01*
X122959000Y-58395000D01*
X123929000Y-58395000D01*
X123929000Y-57516750D01*
X123770250Y-57358000D01*
X124387750Y-57358000D01*
X124229000Y-57516750D01*
X124229000Y-58395000D01*
X125199000Y-58395000D01*
X125199000Y-57516750D01*
X125040250Y-57358000D01*
X125657750Y-57358000D01*
X125499000Y-57516750D01*
X125499000Y-58395000D01*
X126469000Y-58395000D01*
X126469000Y-57516750D01*
X126310250Y-57358000D01*
X126927750Y-57358000D01*
X126769000Y-57516750D01*
X126769000Y-58395000D01*
X127395250Y-58395000D01*
X127554000Y-58236250D01*
X127554000Y-57866691D01*
X127457327Y-57633302D01*
X127278699Y-57454673D01*
X127045310Y-57358000D01*
X129748690Y-57358000D01*
X129515301Y-57454673D01*
X129336673Y-57633302D01*
X129240000Y-57866691D01*
X129240000Y-58236250D01*
X129398750Y-58395000D01*
X130025000Y-58395000D01*
X130025000Y-57516750D01*
X129866250Y-57358000D01*
X130483750Y-57358000D01*
X130325000Y-57516750D01*
X130325000Y-58395000D01*
X131295000Y-58395000D01*
X131295000Y-57516750D01*
X131136250Y-57358000D01*
X131753750Y-57358000D01*
X131595000Y-57516750D01*
X131595000Y-58395000D01*
X132565000Y-58395000D01*
X132565000Y-57516750D01*
X132406250Y-57358000D01*
X133023750Y-57358000D01*
X132865000Y-57516750D01*
X132865000Y-58395000D01*
X133835000Y-58395000D01*
X133835000Y-57516750D01*
X133676250Y-57358000D01*
X134293750Y-57358000D01*
X134135000Y-57516750D01*
X134135000Y-58395000D01*
X134761250Y-58395000D01*
X134920000Y-58236250D01*
X134920000Y-57866691D01*
X134823327Y-57633302D01*
X134644699Y-57454673D01*
X134411310Y-57358000D01*
X134293750Y-57358000D01*
X133676250Y-57358000D01*
X133676250Y-57358000D01*
X133558690Y-57358000D01*
X133350000Y-57444442D01*
X133141310Y-57358000D01*
X133023750Y-57358000D01*
X132406250Y-57358000D01*
X132406250Y-57358000D01*
X132288690Y-57358000D01*
X132080000Y-57444442D01*
X131871310Y-57358000D01*
X131753750Y-57358000D01*
X131136250Y-57358000D01*
X131136250Y-57358000D01*
X131018690Y-57358000D01*
X130810000Y-57444442D01*
X130601310Y-57358000D01*
X130483750Y-57358000D01*
X129866250Y-57358000D01*
X129866250Y-57358000D01*
X129748690Y-57358000D01*
X127045310Y-57358000D01*
X127045310Y-57358000D01*
X126927750Y-57358000D01*
X126310250Y-57358000D01*
X126310250Y-57358000D01*
X126192690Y-57358000D01*
X125984000Y-57444442D01*
X125775310Y-57358000D01*
X125657750Y-57358000D01*
X125040250Y-57358000D01*
X125040250Y-57358000D01*
X124922690Y-57358000D01*
X124714000Y-57444442D01*
X124505310Y-57358000D01*
X124387750Y-57358000D01*
X123770250Y-57358000D01*
X123770250Y-57358000D01*
X123652690Y-57358000D01*
X123444000Y-57444442D01*
X123235310Y-57358000D01*
X123117750Y-57358000D01*
X122500250Y-57358000D01*
X122500250Y-57358000D01*
X122382690Y-57358000D01*
X111477605Y-57358000D01*
X116130605Y-52705000D01*
X131115353Y-52705000D01*
X131392661Y-52705242D01*
X131392661Y-52705242D01*
G37*
X131392661Y-52705242D02*
X131392661Y-52705242D01*
X131393247Y-52705000D01*
X137287000Y-52705000D01*
X137287000Y-58775000D01*
X137166690Y-58775000D01*
X136933301Y-58871673D01*
X136754673Y-59050302D01*
X136658000Y-59283691D01*
X136658000Y-59551250D01*
X136816750Y-59710000D01*
X137287000Y-59710000D01*
X137287000Y-60310000D01*
X136816750Y-60310000D01*
X136658000Y-60468750D01*
X136658000Y-60736309D01*
X136698051Y-60833000D01*
X134249653Y-60833000D01*
X134269282Y-60813405D01*
X134434811Y-60414767D01*
X134435026Y-60168176D01*
X134644699Y-60081327D01*
X134823327Y-59902698D01*
X134920000Y-59669309D01*
X134920000Y-59299750D01*
X134761250Y-59141000D01*
X134135000Y-59141000D01*
X134135000Y-59161000D01*
X133835000Y-59161000D01*
X133835000Y-59141000D01*
X133633743Y-59141000D01*
X133566767Y-59113189D01*
X133135127Y-59112812D01*
X133066907Y-59141000D01*
X132865000Y-59141000D01*
X132865000Y-59161000D01*
X132565000Y-59161000D01*
X132565000Y-59141000D01*
X132363743Y-59141000D01*
X132296767Y-59113189D01*
X131865127Y-59112812D01*
X131796907Y-59141000D01*
X131595000Y-59141000D01*
X131595000Y-59161000D01*
X131295000Y-59161000D01*
X131295000Y-59141000D01*
X131093743Y-59141000D01*
X131026767Y-59113189D01*
X130595127Y-59112812D01*
X130526907Y-59141000D01*
X130325000Y-59141000D01*
X130325000Y-59161000D01*
X130025000Y-59161000D01*
X130025000Y-59141000D01*
X129398750Y-59141000D01*
X129240000Y-59299750D01*
X129240000Y-59669309D01*
X129336673Y-59902698D01*
X129515301Y-60081327D01*
X129725026Y-60168198D01*
X129724812Y-60412873D01*
X129889646Y-60811800D01*
X129910809Y-60833000D01*
X120867173Y-60833000D01*
X120863463Y-60813877D01*
X120799904Y-60717121D01*
X120801327Y-60715698D01*
X120898000Y-60482309D01*
X120898000Y-60214750D01*
X120739250Y-60056000D01*
X120075500Y-60056000D01*
X120075500Y-60149000D01*
X119700500Y-60149000D01*
X119700500Y-60056000D01*
X119036750Y-60056000D01*
X118878000Y-60214750D01*
X118878000Y-60482309D01*
X118974673Y-60715698D01*
X118975955Y-60716980D01*
X118915623Y-60806360D01*
X118910281Y-60833000D01*
X115824005Y-60833000D01*
X115824000Y-60832999D01*
X115775399Y-60842667D01*
X115734197Y-60870197D01*
X114972197Y-61632197D01*
X114944667Y-61673399D01*
X114934999Y-61722000D01*
X114935000Y-61722005D01*
X114935000Y-63572532D01*
X114844755Y-63707593D01*
X114831830Y-63772573D01*
X114785000Y-64008000D01*
X114785000Y-67564000D01*
X114844755Y-67864407D01*
X114935000Y-67999468D01*
X114935000Y-68326000D01*
X114935597Y-68329005D01*
X114935143Y-68332041D01*
X114940414Y-68353220D01*
X114944667Y-68374601D01*
X114946369Y-68377149D01*
X114947111Y-68380127D01*
X114960075Y-68397661D01*
X114972197Y-68415803D01*
X114974749Y-68417508D01*
X114976571Y-68419972D01*
X117729000Y-70922181D01*
X117729000Y-76961994D01*
X117728999Y-76962000D01*
X117738667Y-77010601D01*
X117766197Y-77051803D01*
X122809000Y-82094605D01*
X122809000Y-82515496D01*
X122695878Y-82628618D01*
X122553878Y-82371511D01*
X121843303Y-82204190D01*
X121122787Y-82321530D01*
X121002122Y-82371511D01*
X120860121Y-82628619D01*
X121778000Y-83546498D01*
X121792142Y-83532356D01*
X122319644Y-84059858D01*
X122305502Y-84074000D01*
X122319644Y-84088142D01*
X121792142Y-84615644D01*
X121778000Y-84601502D01*
X120860121Y-85519381D01*
X121002122Y-85776489D01*
X121712697Y-85943810D01*
X122433213Y-85826470D01*
X122553878Y-85776489D01*
X122695878Y-85519382D01*
X122809000Y-85632504D01*
X122809000Y-86741000D01*
X117804974Y-86741000D01*
X117821000Y-86702309D01*
X117821000Y-86434750D01*
X117662250Y-86276000D01*
X116886000Y-86276000D01*
X116886000Y-86369000D01*
X116286000Y-86369000D01*
X116286000Y-86276000D01*
X115509750Y-86276000D01*
X115351000Y-86434750D01*
X115351000Y-86469395D01*
X113622606Y-84741000D01*
X115859690Y-84741000D01*
X115626301Y-84837673D01*
X115447673Y-85016302D01*
X115351000Y-85249691D01*
X115351000Y-85517250D01*
X115509750Y-85676000D01*
X116286000Y-85676000D01*
X116286000Y-84899750D01*
X116127250Y-84741000D01*
X117044750Y-84741000D01*
X116886000Y-84899750D01*
X116886000Y-85676000D01*
X117662250Y-85676000D01*
X117821000Y-85517250D01*
X117821000Y-85249691D01*
X117724327Y-85016302D01*
X117545699Y-84837673D01*
X117312310Y-84741000D01*
X117044750Y-84741000D01*
X116127250Y-84741000D01*
X116127250Y-84741000D01*
X115859690Y-84741000D01*
X113622606Y-84741000D01*
X112037727Y-83156121D01*
X120332619Y-83156121D01*
X120075511Y-83298122D01*
X119908190Y-84008697D01*
X120025530Y-84729213D01*
X120075511Y-84849878D01*
X120332619Y-84991879D01*
X121250498Y-84074000D01*
X120332619Y-83156121D01*
X112037727Y-83156121D01*
X111379000Y-82497394D01*
X111379000Y-79756000D01*
X111369333Y-79707399D01*
X111341803Y-79666197D01*
X111341799Y-79666194D01*
X108839000Y-77163394D01*
X108839000Y-64379942D01*
X109602441Y-64379942D01*
X109386184Y-64470183D01*
X109287246Y-65032422D01*
X109386184Y-65529817D01*
X109602441Y-65620058D01*
X110222498Y-65000000D01*
X109602441Y-64379942D01*
X108839000Y-64379942D01*
X108839000Y-63537246D01*
X110717578Y-63537246D01*
X110220183Y-63636184D01*
X110129942Y-63852441D01*
X110750000Y-64472498D01*
X110764142Y-64458356D01*
X110869692Y-64563906D01*
X110787246Y-65032422D01*
X110867898Y-65437888D01*
X110764142Y-65541644D01*
X110750000Y-65527502D01*
X110129942Y-66147559D01*
X110220183Y-66363816D01*
X110782422Y-66462754D01*
X111279817Y-66363816D01*
X111358830Y-66174466D01*
X111480934Y-66296570D01*
X111500000Y-66277504D01*
X111519066Y-66296570D01*
X111641170Y-66174466D01*
X111720183Y-66363816D01*
X112282422Y-66462754D01*
X112779817Y-66363816D01*
X112870058Y-66147559D01*
X112250000Y-65527502D01*
X112235858Y-65541644D01*
X112130308Y-65436094D01*
X112212754Y-64967578D01*
X112132102Y-64562112D01*
X112235858Y-64458356D01*
X112250000Y-64472498D01*
X112342556Y-64379942D01*
X113397559Y-64379942D01*
X112777502Y-65000000D01*
X113397559Y-65620058D01*
X113613816Y-65529817D01*
X113712754Y-64967578D01*
X113613816Y-64470183D01*
X113397559Y-64379942D01*
X112342556Y-64379942D01*
X112870058Y-63852441D01*
X112779817Y-63636184D01*
X112217578Y-63537246D01*
X111720183Y-63636184D01*
X111641170Y-63825534D01*
X111519066Y-63703430D01*
X111500000Y-63722496D01*
X111480934Y-63703430D01*
X111358830Y-63825534D01*
X111279817Y-63636184D01*
X110717578Y-63537246D01*
X108839000Y-63537246D01*
X108839000Y-59996605D01*
X110314605Y-58521000D01*
X119386690Y-58521000D01*
X119153301Y-58617673D01*
X118974673Y-58796302D01*
X118878000Y-59029691D01*
X118878000Y-59297250D01*
X119036750Y-59456000D01*
X119700500Y-59456000D01*
X119700500Y-58679750D01*
X119541750Y-58521000D01*
X120234250Y-58521000D01*
X120075500Y-58679750D01*
X120075500Y-59456000D01*
X120739250Y-59456000D01*
X120898000Y-59297250D01*
X120898000Y-59141000D01*
X122032750Y-59141000D01*
X121874000Y-59299750D01*
X121874000Y-59669309D01*
X121970673Y-59902698D01*
X122149301Y-60081327D01*
X122382690Y-60178000D01*
X122500250Y-60178000D01*
X122659000Y-60019250D01*
X122659000Y-59141000D01*
X122959000Y-59141000D01*
X122959000Y-60019250D01*
X123117750Y-60178000D01*
X123235310Y-60178000D01*
X123444000Y-60091558D01*
X123652690Y-60178000D01*
X123770250Y-60178000D01*
X123929000Y-60019250D01*
X123929000Y-59141000D01*
X124229000Y-59141000D01*
X124229000Y-60019250D01*
X124387750Y-60178000D01*
X124505310Y-60178000D01*
X124714000Y-60091558D01*
X124922690Y-60178000D01*
X125040250Y-60178000D01*
X125199000Y-60019250D01*
X125199000Y-59141000D01*
X125499000Y-59141000D01*
X125499000Y-60019250D01*
X125657750Y-60178000D01*
X125775310Y-60178000D01*
X125984000Y-60091558D01*
X126192690Y-60178000D01*
X126310250Y-60178000D01*
X126469000Y-60019250D01*
X126469000Y-59141000D01*
X126769000Y-59141000D01*
X126769000Y-60019250D01*
X126927750Y-60178000D01*
X127045310Y-60178000D01*
X127278699Y-60081327D01*
X127457327Y-59902698D01*
X127554000Y-59669309D01*
X127554000Y-59299750D01*
X127395250Y-59141000D01*
X126769000Y-59141000D01*
X126469000Y-59141000D01*
X126469000Y-59141000D01*
X125499000Y-59141000D01*
X125199000Y-59141000D01*
X125199000Y-59141000D01*
X124229000Y-59141000D01*
X123929000Y-59141000D01*
X123929000Y-59141000D01*
X122959000Y-59141000D01*
X122659000Y-59141000D01*
X122659000Y-59141000D01*
X122032750Y-59141000D01*
X120898000Y-59141000D01*
X120898000Y-59029691D01*
X120801327Y-58796302D01*
X120622699Y-58617673D01*
X120389310Y-58521000D01*
X120234250Y-58521000D01*
X119541750Y-58521000D01*
X119541750Y-58521000D01*
X119386690Y-58521000D01*
X110314605Y-58521000D01*
X111477605Y-57358000D01*
X122382690Y-57358000D01*
X122149301Y-57454673D01*
X121970673Y-57633302D01*
X121874000Y-57866691D01*
X121874000Y-58236250D01*
X122032750Y-58395000D01*
X122659000Y-58395000D01*
X122659000Y-57516750D01*
X122500250Y-57358000D01*
X123117750Y-57358000D01*
X122959000Y-57516750D01*
X122959000Y-58395000D01*
X123929000Y-58395000D01*
X123929000Y-57516750D01*
X123770250Y-57358000D01*
X124387750Y-57358000D01*
X124229000Y-57516750D01*
X124229000Y-58395000D01*
X125199000Y-58395000D01*
X125199000Y-57516750D01*
X125040250Y-57358000D01*
X125657750Y-57358000D01*
X125499000Y-57516750D01*
X125499000Y-58395000D01*
X126469000Y-58395000D01*
X126469000Y-57516750D01*
X126310250Y-57358000D01*
X126927750Y-57358000D01*
X126769000Y-57516750D01*
X126769000Y-58395000D01*
X127395250Y-58395000D01*
X127554000Y-58236250D01*
X127554000Y-57866691D01*
X127457327Y-57633302D01*
X127278699Y-57454673D01*
X127045310Y-57358000D01*
X129748690Y-57358000D01*
X129515301Y-57454673D01*
X129336673Y-57633302D01*
X129240000Y-57866691D01*
X129240000Y-58236250D01*
X129398750Y-58395000D01*
X130025000Y-58395000D01*
X130025000Y-57516750D01*
X129866250Y-57358000D01*
X130483750Y-57358000D01*
X130325000Y-57516750D01*
X130325000Y-58395000D01*
X131295000Y-58395000D01*
X131295000Y-57516750D01*
X131136250Y-57358000D01*
X131753750Y-57358000D01*
X131595000Y-57516750D01*
X131595000Y-58395000D01*
X132565000Y-58395000D01*
X132565000Y-57516750D01*
X132406250Y-57358000D01*
X133023750Y-57358000D01*
X132865000Y-57516750D01*
X132865000Y-58395000D01*
X133835000Y-58395000D01*
X133835000Y-57516750D01*
X133676250Y-57358000D01*
X134293750Y-57358000D01*
X134135000Y-57516750D01*
X134135000Y-58395000D01*
X134761250Y-58395000D01*
X134920000Y-58236250D01*
X134920000Y-57866691D01*
X134823327Y-57633302D01*
X134644699Y-57454673D01*
X134411310Y-57358000D01*
X134293750Y-57358000D01*
X133676250Y-57358000D01*
X133676250Y-57358000D01*
X133558690Y-57358000D01*
X133350000Y-57444442D01*
X133141310Y-57358000D01*
X133023750Y-57358000D01*
X132406250Y-57358000D01*
X132406250Y-57358000D01*
X132288690Y-57358000D01*
X132080000Y-57444442D01*
X131871310Y-57358000D01*
X131753750Y-57358000D01*
X131136250Y-57358000D01*
X131136250Y-57358000D01*
X131018690Y-57358000D01*
X130810000Y-57444442D01*
X130601310Y-57358000D01*
X130483750Y-57358000D01*
X129866250Y-57358000D01*
X129866250Y-57358000D01*
X129748690Y-57358000D01*
X127045310Y-57358000D01*
X127045310Y-57358000D01*
X126927750Y-57358000D01*
X126310250Y-57358000D01*
X126310250Y-57358000D01*
X126192690Y-57358000D01*
X125984000Y-57444442D01*
X125775310Y-57358000D01*
X125657750Y-57358000D01*
X125040250Y-57358000D01*
X125040250Y-57358000D01*
X124922690Y-57358000D01*
X124714000Y-57444442D01*
X124505310Y-57358000D01*
X124387750Y-57358000D01*
X123770250Y-57358000D01*
X123770250Y-57358000D01*
X123652690Y-57358000D01*
X123444000Y-57444442D01*
X123235310Y-57358000D01*
X123117750Y-57358000D01*
X122500250Y-57358000D01*
X122500250Y-57358000D01*
X122382690Y-57358000D01*
X111477605Y-57358000D01*
X116130605Y-52705000D01*
X131115353Y-52705000D01*
X131392661Y-52705242D01*
G36*
X125760830Y-62171069D02*
X125760830Y-62171069D01*
X125834000Y-62348154D01*
X125834000Y-62782310D01*
X125775310Y-62758000D01*
X125657750Y-62758000D01*
X125499000Y-62916750D01*
X125499000Y-63795000D01*
X125649000Y-63795000D01*
X125649000Y-64541000D01*
X125499000Y-64541000D01*
X125499000Y-65419250D01*
X125657750Y-65578000D01*
X125775310Y-65578000D01*
X125992079Y-65488211D01*
X126069360Y-65540377D01*
X126111000Y-65548728D01*
X126111000Y-66294000D01*
X126120667Y-66342601D01*
X126148197Y-66383803D01*
X126189399Y-66411333D01*
X126238000Y-66421000D01*
X127127000Y-66421000D01*
X127127000Y-72263000D01*
X122047000Y-72263000D01*
X122047000Y-71580084D01*
X122081123Y-71573463D01*
X122165499Y-71518037D01*
X122382690Y-71608000D01*
X122500250Y-71608000D01*
X122659000Y-71449250D01*
X122659000Y-70571000D01*
X122959000Y-70571000D01*
X122959000Y-71449250D01*
X123117750Y-71608000D01*
X123235310Y-71608000D01*
X123444000Y-71521558D01*
X123652690Y-71608000D01*
X123770250Y-71608000D01*
X123929000Y-71449250D01*
X123929000Y-70571000D01*
X124229000Y-70571000D01*
X124229000Y-71449250D01*
X124387750Y-71608000D01*
X124505310Y-71608000D01*
X124714000Y-71521558D01*
X124922690Y-71608000D01*
X125040250Y-71608000D01*
X125199000Y-71449250D01*
X125199000Y-70571000D01*
X125499000Y-70571000D01*
X125499000Y-71449250D01*
X125657750Y-71608000D01*
X125775310Y-71608000D01*
X126008699Y-71511327D01*
X126187327Y-71332698D01*
X126284000Y-71099309D01*
X126284000Y-70729750D01*
X126125250Y-70571000D01*
X125499000Y-70571000D01*
X125199000Y-70571000D01*
X125199000Y-70571000D01*
X124229000Y-70571000D01*
X123929000Y-70571000D01*
X123929000Y-70571000D01*
X122959000Y-70571000D01*
X122659000Y-70571000D01*
X122659000Y-70571000D01*
X122509000Y-70571000D01*
X122509000Y-69825000D01*
X122659000Y-69825000D01*
X122659000Y-68946750D01*
X122500250Y-68788000D01*
X123117750Y-68788000D01*
X122959000Y-68946750D01*
X122959000Y-69825000D01*
X123929000Y-69825000D01*
X123929000Y-68946750D01*
X123770250Y-68788000D01*
X124387750Y-68788000D01*
X124229000Y-68946750D01*
X124229000Y-69825000D01*
X125199000Y-69825000D01*
X125199000Y-68946750D01*
X125040250Y-68788000D01*
X125657750Y-68788000D01*
X125499000Y-68946750D01*
X125499000Y-69825000D01*
X126125250Y-69825000D01*
X126284000Y-69666250D01*
X126284000Y-69296691D01*
X126187327Y-69063302D01*
X126008699Y-68884673D01*
X125775310Y-68788000D01*
X125657750Y-68788000D01*
X125040250Y-68788000D01*
X125040250Y-68788000D01*
X124922690Y-68788000D01*
X124714000Y-68874442D01*
X124505310Y-68788000D01*
X124387750Y-68788000D01*
X123770250Y-68788000D01*
X123770250Y-68788000D01*
X123652690Y-68788000D01*
X123444000Y-68874442D01*
X123235310Y-68788000D01*
X123117750Y-68788000D01*
X122500250Y-68788000D01*
X122500250Y-68788000D01*
X122382690Y-68788000D01*
X122165921Y-68877789D01*
X122088640Y-68825623D01*
X122047000Y-68817272D01*
X122047000Y-68072000D01*
X122037333Y-68023399D01*
X122009803Y-67982197D01*
X121968601Y-67954667D01*
X121920000Y-67945000D01*
X121219440Y-67945000D01*
X121219440Y-67622000D01*
X121172463Y-67379877D01*
X121032673Y-67167073D01*
X121031000Y-67165944D01*
X121031000Y-65755203D01*
X121220497Y-65630723D01*
X121362947Y-65419690D01*
X121413010Y-65170050D01*
X121413010Y-64541000D01*
X122032750Y-64541000D01*
X121874000Y-64699750D01*
X121874000Y-65069309D01*
X121970673Y-65302698D01*
X122149301Y-65481327D01*
X122382690Y-65578000D01*
X122500250Y-65578000D01*
X122659000Y-65419250D01*
X122659000Y-64541000D01*
X122959000Y-64541000D01*
X122959000Y-65419250D01*
X123117750Y-65578000D01*
X123235310Y-65578000D01*
X123444000Y-65491558D01*
X123652690Y-65578000D01*
X123770250Y-65578000D01*
X123929000Y-65419250D01*
X123929000Y-64541000D01*
X124229000Y-64541000D01*
X124229000Y-65419250D01*
X124387750Y-65578000D01*
X124505310Y-65578000D01*
X124714000Y-65491558D01*
X124922690Y-65578000D01*
X125040250Y-65578000D01*
X125199000Y-65419250D01*
X125199000Y-64541000D01*
X124229000Y-64541000D01*
X123929000Y-64541000D01*
X123929000Y-64541000D01*
X122959000Y-64541000D01*
X122659000Y-64541000D01*
X122659000Y-64541000D01*
X122032750Y-64541000D01*
X121413010Y-64541000D01*
X121413010Y-64369950D01*
X121366033Y-64127827D01*
X121226243Y-63915023D01*
X121031000Y-63783231D01*
X121031000Y-63467158D01*
X121537049Y-62961109D01*
X121607069Y-62961170D01*
X121969229Y-62811529D01*
X122022851Y-62758000D01*
X122382690Y-62758000D01*
X122149301Y-62854673D01*
X121970673Y-63033302D01*
X121874000Y-63266691D01*
X121874000Y-63636250D01*
X122032750Y-63795000D01*
X122659000Y-63795000D01*
X122659000Y-62916750D01*
X122500250Y-62758000D01*
X123117750Y-62758000D01*
X122959000Y-62916750D01*
X122959000Y-63795000D01*
X123929000Y-63795000D01*
X123929000Y-62916750D01*
X123770250Y-62758000D01*
X124387750Y-62758000D01*
X124229000Y-62916750D01*
X124229000Y-63795000D01*
X125199000Y-63795000D01*
X125199000Y-62916750D01*
X125040250Y-62758000D01*
X124922690Y-62758000D01*
X124714000Y-62844442D01*
X124505310Y-62758000D01*
X124387750Y-62758000D01*
X123770250Y-62758000D01*
X123770250Y-62758000D01*
X123652690Y-62758000D01*
X123444000Y-62844442D01*
X123235310Y-62758000D01*
X123117750Y-62758000D01*
X122500250Y-62758000D01*
X122500250Y-62758000D01*
X122382690Y-62758000D01*
X122022851Y-62758000D01*
X122246555Y-62534686D01*
X122396828Y-62172788D01*
X122397111Y-61849000D01*
X125761111Y-61849000D01*
X125760830Y-62171069D01*
X125760830Y-62171069D01*
G37*
X125760830Y-62171069D02*
X125760830Y-62171069D01*
X125834000Y-62348154D01*
X125834000Y-62782310D01*
X125775310Y-62758000D01*
X125657750Y-62758000D01*
X125499000Y-62916750D01*
X125499000Y-63795000D01*
X125649000Y-63795000D01*
X125649000Y-64541000D01*
X125499000Y-64541000D01*
X125499000Y-65419250D01*
X125657750Y-65578000D01*
X125775310Y-65578000D01*
X125992079Y-65488211D01*
X126069360Y-65540377D01*
X126111000Y-65548728D01*
X126111000Y-66294000D01*
X126120667Y-66342601D01*
X126148197Y-66383803D01*
X126189399Y-66411333D01*
X126238000Y-66421000D01*
X127127000Y-66421000D01*
X127127000Y-72263000D01*
X122047000Y-72263000D01*
X122047000Y-71580084D01*
X122081123Y-71573463D01*
X122165499Y-71518037D01*
X122382690Y-71608000D01*
X122500250Y-71608000D01*
X122659000Y-71449250D01*
X122659000Y-70571000D01*
X122959000Y-70571000D01*
X122959000Y-71449250D01*
X123117750Y-71608000D01*
X123235310Y-71608000D01*
X123444000Y-71521558D01*
X123652690Y-71608000D01*
X123770250Y-71608000D01*
X123929000Y-71449250D01*
X123929000Y-70571000D01*
X124229000Y-70571000D01*
X124229000Y-71449250D01*
X124387750Y-71608000D01*
X124505310Y-71608000D01*
X124714000Y-71521558D01*
X124922690Y-71608000D01*
X125040250Y-71608000D01*
X125199000Y-71449250D01*
X125199000Y-70571000D01*
X125499000Y-70571000D01*
X125499000Y-71449250D01*
X125657750Y-71608000D01*
X125775310Y-71608000D01*
X126008699Y-71511327D01*
X126187327Y-71332698D01*
X126284000Y-71099309D01*
X126284000Y-70729750D01*
X126125250Y-70571000D01*
X125499000Y-70571000D01*
X125199000Y-70571000D01*
X125199000Y-70571000D01*
X124229000Y-70571000D01*
X123929000Y-70571000D01*
X123929000Y-70571000D01*
X122959000Y-70571000D01*
X122659000Y-70571000D01*
X122659000Y-70571000D01*
X122509000Y-70571000D01*
X122509000Y-69825000D01*
X122659000Y-69825000D01*
X122659000Y-68946750D01*
X122500250Y-68788000D01*
X123117750Y-68788000D01*
X122959000Y-68946750D01*
X122959000Y-69825000D01*
X123929000Y-69825000D01*
X123929000Y-68946750D01*
X123770250Y-68788000D01*
X124387750Y-68788000D01*
X124229000Y-68946750D01*
X124229000Y-69825000D01*
X125199000Y-69825000D01*
X125199000Y-68946750D01*
X125040250Y-68788000D01*
X125657750Y-68788000D01*
X125499000Y-68946750D01*
X125499000Y-69825000D01*
X126125250Y-69825000D01*
X126284000Y-69666250D01*
X126284000Y-69296691D01*
X126187327Y-69063302D01*
X126008699Y-68884673D01*
X125775310Y-68788000D01*
X125657750Y-68788000D01*
X125040250Y-68788000D01*
X125040250Y-68788000D01*
X124922690Y-68788000D01*
X124714000Y-68874442D01*
X124505310Y-68788000D01*
X124387750Y-68788000D01*
X123770250Y-68788000D01*
X123770250Y-68788000D01*
X123652690Y-68788000D01*
X123444000Y-68874442D01*
X123235310Y-68788000D01*
X123117750Y-68788000D01*
X122500250Y-68788000D01*
X122500250Y-68788000D01*
X122382690Y-68788000D01*
X122165921Y-68877789D01*
X122088640Y-68825623D01*
X122047000Y-68817272D01*
X122047000Y-68072000D01*
X122037333Y-68023399D01*
X122009803Y-67982197D01*
X121968601Y-67954667D01*
X121920000Y-67945000D01*
X121219440Y-67945000D01*
X121219440Y-67622000D01*
X121172463Y-67379877D01*
X121032673Y-67167073D01*
X121031000Y-67165944D01*
X121031000Y-65755203D01*
X121220497Y-65630723D01*
X121362947Y-65419690D01*
X121413010Y-65170050D01*
X121413010Y-64541000D01*
X122032750Y-64541000D01*
X121874000Y-64699750D01*
X121874000Y-65069309D01*
X121970673Y-65302698D01*
X122149301Y-65481327D01*
X122382690Y-65578000D01*
X122500250Y-65578000D01*
X122659000Y-65419250D01*
X122659000Y-64541000D01*
X122959000Y-64541000D01*
X122959000Y-65419250D01*
X123117750Y-65578000D01*
X123235310Y-65578000D01*
X123444000Y-65491558D01*
X123652690Y-65578000D01*
X123770250Y-65578000D01*
X123929000Y-65419250D01*
X123929000Y-64541000D01*
X124229000Y-64541000D01*
X124229000Y-65419250D01*
X124387750Y-65578000D01*
X124505310Y-65578000D01*
X124714000Y-65491558D01*
X124922690Y-65578000D01*
X125040250Y-65578000D01*
X125199000Y-65419250D01*
X125199000Y-64541000D01*
X124229000Y-64541000D01*
X123929000Y-64541000D01*
X123929000Y-64541000D01*
X122959000Y-64541000D01*
X122659000Y-64541000D01*
X122659000Y-64541000D01*
X122032750Y-64541000D01*
X121413010Y-64541000D01*
X121413010Y-64369950D01*
X121366033Y-64127827D01*
X121226243Y-63915023D01*
X121031000Y-63783231D01*
X121031000Y-63467158D01*
X121537049Y-62961109D01*
X121607069Y-62961170D01*
X121969229Y-62811529D01*
X122022851Y-62758000D01*
X122382690Y-62758000D01*
X122149301Y-62854673D01*
X121970673Y-63033302D01*
X121874000Y-63266691D01*
X121874000Y-63636250D01*
X122032750Y-63795000D01*
X122659000Y-63795000D01*
X122659000Y-62916750D01*
X122500250Y-62758000D01*
X123117750Y-62758000D01*
X122959000Y-62916750D01*
X122959000Y-63795000D01*
X123929000Y-63795000D01*
X123929000Y-62916750D01*
X123770250Y-62758000D01*
X124387750Y-62758000D01*
X124229000Y-62916750D01*
X124229000Y-63795000D01*
X125199000Y-63795000D01*
X125199000Y-62916750D01*
X125040250Y-62758000D01*
X124922690Y-62758000D01*
X124714000Y-62844442D01*
X124505310Y-62758000D01*
X124387750Y-62758000D01*
X123770250Y-62758000D01*
X123770250Y-62758000D01*
X123652690Y-62758000D01*
X123444000Y-62844442D01*
X123235310Y-62758000D01*
X123117750Y-62758000D01*
X122500250Y-62758000D01*
X122500250Y-62758000D01*
X122382690Y-62758000D01*
X122022851Y-62758000D01*
X122246555Y-62534686D01*
X122396828Y-62172788D01*
X122397111Y-61849000D01*
X125761111Y-61849000D01*
X125760830Y-62171069D01*
G36*
X133477000Y-62785916D02*
X133477000Y-62785916D01*
X133442877Y-62792537D01*
X133358501Y-62847963D01*
X133141310Y-62758000D01*
X133023750Y-62758000D01*
X132865000Y-62916750D01*
X132865000Y-63795000D01*
X133015000Y-63795000D01*
X133015000Y-64541000D01*
X132865000Y-64541000D01*
X132865000Y-65419250D01*
X133023750Y-65578000D01*
X133141310Y-65578000D01*
X133358079Y-65488211D01*
X133435360Y-65540377D01*
X133477000Y-65548728D01*
X133477000Y-66294000D01*
X133486667Y-66342601D01*
X133514197Y-66383803D01*
X133555399Y-66411333D01*
X133604000Y-66421000D01*
X134493000Y-66421000D01*
X134493000Y-72263000D01*
X129690000Y-72263000D01*
X129690000Y-71583690D01*
X129748690Y-71608000D01*
X129866250Y-71608000D01*
X130025000Y-71449250D01*
X130025000Y-70571000D01*
X130325000Y-70571000D01*
X130325000Y-71449250D01*
X130483750Y-71608000D01*
X130601310Y-71608000D01*
X130810000Y-71521558D01*
X131018690Y-71608000D01*
X131136250Y-71608000D01*
X131295000Y-71449250D01*
X131295000Y-70571000D01*
X131595000Y-70571000D01*
X131595000Y-71449250D01*
X131753750Y-71608000D01*
X131871310Y-71608000D01*
X132080000Y-71521558D01*
X132288690Y-71608000D01*
X132406250Y-71608000D01*
X132565000Y-71449250D01*
X132565000Y-70571000D01*
X132865000Y-70571000D01*
X132865000Y-71449250D01*
X133023750Y-71608000D01*
X133141310Y-71608000D01*
X133374699Y-71511327D01*
X133553327Y-71332698D01*
X133650000Y-71099309D01*
X133650000Y-70729750D01*
X133491250Y-70571000D01*
X132865000Y-70571000D01*
X132565000Y-70571000D01*
X132565000Y-70571000D01*
X131595000Y-70571000D01*
X131295000Y-70571000D01*
X131295000Y-70571000D01*
X130325000Y-70571000D01*
X130025000Y-70571000D01*
X130025000Y-70571000D01*
X129875000Y-70571000D01*
X129875000Y-69825000D01*
X130025000Y-69825000D01*
X130025000Y-68946750D01*
X129866250Y-68788000D01*
X130483750Y-68788000D01*
X130325000Y-68946750D01*
X130325000Y-69825000D01*
X131295000Y-69825000D01*
X131295000Y-68946750D01*
X131136250Y-68788000D01*
X131753750Y-68788000D01*
X131595000Y-68946750D01*
X131595000Y-69825000D01*
X132565000Y-69825000D01*
X132565000Y-68946750D01*
X132406250Y-68788000D01*
X133023750Y-68788000D01*
X132865000Y-68946750D01*
X132865000Y-69825000D01*
X133491250Y-69825000D01*
X133650000Y-69666250D01*
X133650000Y-69296691D01*
X133553327Y-69063302D01*
X133374699Y-68884673D01*
X133141310Y-68788000D01*
X133023750Y-68788000D01*
X132406250Y-68788000D01*
X132406250Y-68788000D01*
X132288690Y-68788000D01*
X132080000Y-68874442D01*
X131871310Y-68788000D01*
X131753750Y-68788000D01*
X131136250Y-68788000D01*
X131136250Y-68788000D01*
X131018690Y-68788000D01*
X130810000Y-68874442D01*
X130601310Y-68788000D01*
X130483750Y-68788000D01*
X129866250Y-68788000D01*
X129866250Y-68788000D01*
X129748690Y-68788000D01*
X129531921Y-68877789D01*
X129454640Y-68825623D01*
X129413000Y-68817272D01*
X129413000Y-68072000D01*
X129403333Y-68023399D01*
X129375803Y-67982197D01*
X129334601Y-67954667D01*
X129286000Y-67945000D01*
X128397000Y-67945000D01*
X128397000Y-64541000D01*
X129398750Y-64541000D01*
X129240000Y-64699750D01*
X129240000Y-65069309D01*
X129336673Y-65302698D01*
X129515301Y-65481327D01*
X129748690Y-65578000D01*
X129866250Y-65578000D01*
X130025000Y-65419250D01*
X130025000Y-64541000D01*
X130325000Y-64541000D01*
X130325000Y-65419250D01*
X130483750Y-65578000D01*
X130601310Y-65578000D01*
X130810000Y-65491558D01*
X131018690Y-65578000D01*
X131136250Y-65578000D01*
X131295000Y-65419250D01*
X131295000Y-64541000D01*
X131595000Y-64541000D01*
X131595000Y-65419250D01*
X131753750Y-65578000D01*
X131871310Y-65578000D01*
X132080000Y-65491558D01*
X132288690Y-65578000D01*
X132406250Y-65578000D01*
X132565000Y-65419250D01*
X132565000Y-64541000D01*
X131595000Y-64541000D01*
X131295000Y-64541000D01*
X131295000Y-64541000D01*
X130325000Y-64541000D01*
X130025000Y-64541000D01*
X130025000Y-64541000D01*
X129398750Y-64541000D01*
X128397000Y-64541000D01*
X128397000Y-62758000D01*
X129748690Y-62758000D01*
X129515301Y-62854673D01*
X129336673Y-63033302D01*
X129240000Y-63266691D01*
X129240000Y-63636250D01*
X129398750Y-63795000D01*
X130025000Y-63795000D01*
X130025000Y-62916750D01*
X129866250Y-62758000D01*
X130483750Y-62758000D01*
X130325000Y-62916750D01*
X130325000Y-63795000D01*
X131295000Y-63795000D01*
X131295000Y-62916750D01*
X131136250Y-62758000D01*
X131753750Y-62758000D01*
X131595000Y-62916750D01*
X131595000Y-63795000D01*
X132565000Y-63795000D01*
X132565000Y-62916750D01*
X132406250Y-62758000D01*
X132288690Y-62758000D01*
X132080000Y-62844442D01*
X131871310Y-62758000D01*
X131753750Y-62758000D01*
X131136250Y-62758000D01*
X131136250Y-62758000D01*
X131018690Y-62758000D01*
X130810000Y-62844442D01*
X130601310Y-62758000D01*
X130483750Y-62758000D01*
X129866250Y-62758000D01*
X129866250Y-62758000D01*
X129748690Y-62758000D01*
X128397000Y-62758000D01*
X128397000Y-61849000D01*
X133477000Y-61849000D01*
X133477000Y-62785916D01*
X133477000Y-62785916D01*
G37*
X133477000Y-62785916D02*
X133477000Y-62785916D01*
X133442877Y-62792537D01*
X133358501Y-62847963D01*
X133141310Y-62758000D01*
X133023750Y-62758000D01*
X132865000Y-62916750D01*
X132865000Y-63795000D01*
X133015000Y-63795000D01*
X133015000Y-64541000D01*
X132865000Y-64541000D01*
X132865000Y-65419250D01*
X133023750Y-65578000D01*
X133141310Y-65578000D01*
X133358079Y-65488211D01*
X133435360Y-65540377D01*
X133477000Y-65548728D01*
X133477000Y-66294000D01*
X133486667Y-66342601D01*
X133514197Y-66383803D01*
X133555399Y-66411333D01*
X133604000Y-66421000D01*
X134493000Y-66421000D01*
X134493000Y-72263000D01*
X129690000Y-72263000D01*
X129690000Y-71583690D01*
X129748690Y-71608000D01*
X129866250Y-71608000D01*
X130025000Y-71449250D01*
X130025000Y-70571000D01*
X130325000Y-70571000D01*
X130325000Y-71449250D01*
X130483750Y-71608000D01*
X130601310Y-71608000D01*
X130810000Y-71521558D01*
X131018690Y-71608000D01*
X131136250Y-71608000D01*
X131295000Y-71449250D01*
X131295000Y-70571000D01*
X131595000Y-70571000D01*
X131595000Y-71449250D01*
X131753750Y-71608000D01*
X131871310Y-71608000D01*
X132080000Y-71521558D01*
X132288690Y-71608000D01*
X132406250Y-71608000D01*
X132565000Y-71449250D01*
X132565000Y-70571000D01*
X132865000Y-70571000D01*
X132865000Y-71449250D01*
X133023750Y-71608000D01*
X133141310Y-71608000D01*
X133374699Y-71511327D01*
X133553327Y-71332698D01*
X133650000Y-71099309D01*
X133650000Y-70729750D01*
X133491250Y-70571000D01*
X132865000Y-70571000D01*
X132565000Y-70571000D01*
X132565000Y-70571000D01*
X131595000Y-70571000D01*
X131295000Y-70571000D01*
X131295000Y-70571000D01*
X130325000Y-70571000D01*
X130025000Y-70571000D01*
X130025000Y-70571000D01*
X129875000Y-70571000D01*
X129875000Y-69825000D01*
X130025000Y-69825000D01*
X130025000Y-68946750D01*
X129866250Y-68788000D01*
X130483750Y-68788000D01*
X130325000Y-68946750D01*
X130325000Y-69825000D01*
X131295000Y-69825000D01*
X131295000Y-68946750D01*
X131136250Y-68788000D01*
X131753750Y-68788000D01*
X131595000Y-68946750D01*
X131595000Y-69825000D01*
X132565000Y-69825000D01*
X132565000Y-68946750D01*
X132406250Y-68788000D01*
X133023750Y-68788000D01*
X132865000Y-68946750D01*
X132865000Y-69825000D01*
X133491250Y-69825000D01*
X133650000Y-69666250D01*
X133650000Y-69296691D01*
X133553327Y-69063302D01*
X133374699Y-68884673D01*
X133141310Y-68788000D01*
X133023750Y-68788000D01*
X132406250Y-68788000D01*
X132406250Y-68788000D01*
X132288690Y-68788000D01*
X132080000Y-68874442D01*
X131871310Y-68788000D01*
X131753750Y-68788000D01*
X131136250Y-68788000D01*
X131136250Y-68788000D01*
X131018690Y-68788000D01*
X130810000Y-68874442D01*
X130601310Y-68788000D01*
X130483750Y-68788000D01*
X129866250Y-68788000D01*
X129866250Y-68788000D01*
X129748690Y-68788000D01*
X129531921Y-68877789D01*
X129454640Y-68825623D01*
X129413000Y-68817272D01*
X129413000Y-68072000D01*
X129403333Y-68023399D01*
X129375803Y-67982197D01*
X129334601Y-67954667D01*
X129286000Y-67945000D01*
X128397000Y-67945000D01*
X128397000Y-64541000D01*
X129398750Y-64541000D01*
X129240000Y-64699750D01*
X129240000Y-65069309D01*
X129336673Y-65302698D01*
X129515301Y-65481327D01*
X129748690Y-65578000D01*
X129866250Y-65578000D01*
X130025000Y-65419250D01*
X130025000Y-64541000D01*
X130325000Y-64541000D01*
X130325000Y-65419250D01*
X130483750Y-65578000D01*
X130601310Y-65578000D01*
X130810000Y-65491558D01*
X131018690Y-65578000D01*
X131136250Y-65578000D01*
X131295000Y-65419250D01*
X131295000Y-64541000D01*
X131595000Y-64541000D01*
X131595000Y-65419250D01*
X131753750Y-65578000D01*
X131871310Y-65578000D01*
X132080000Y-65491558D01*
X132288690Y-65578000D01*
X132406250Y-65578000D01*
X132565000Y-65419250D01*
X132565000Y-64541000D01*
X131595000Y-64541000D01*
X131295000Y-64541000D01*
X131295000Y-64541000D01*
X130325000Y-64541000D01*
X130025000Y-64541000D01*
X130025000Y-64541000D01*
X129398750Y-64541000D01*
X128397000Y-64541000D01*
X128397000Y-62758000D01*
X129748690Y-62758000D01*
X129515301Y-62854673D01*
X129336673Y-63033302D01*
X129240000Y-63266691D01*
X129240000Y-63636250D01*
X129398750Y-63795000D01*
X130025000Y-63795000D01*
X130025000Y-62916750D01*
X129866250Y-62758000D01*
X130483750Y-62758000D01*
X130325000Y-62916750D01*
X130325000Y-63795000D01*
X131295000Y-63795000D01*
X131295000Y-62916750D01*
X131136250Y-62758000D01*
X131753750Y-62758000D01*
X131595000Y-62916750D01*
X131595000Y-63795000D01*
X132565000Y-63795000D01*
X132565000Y-62916750D01*
X132406250Y-62758000D01*
X132288690Y-62758000D01*
X132080000Y-62844442D01*
X131871310Y-62758000D01*
X131753750Y-62758000D01*
X131136250Y-62758000D01*
X131136250Y-62758000D01*
X131018690Y-62758000D01*
X130810000Y-62844442D01*
X130601310Y-62758000D01*
X130483750Y-62758000D01*
X129866250Y-62758000D01*
X129866250Y-62758000D01*
X129748690Y-62758000D01*
X128397000Y-62758000D01*
X128397000Y-61849000D01*
X133477000Y-61849000D01*
X133477000Y-62785916D01*
G36*
X105893628Y-45610600D02*
X105893628Y-45610600D01*
X104870194Y-46632249D01*
X104315632Y-47967782D01*
X104314370Y-49413874D01*
X104866600Y-50750372D01*
X105888249Y-51773806D01*
X107223782Y-52328368D01*
X108669874Y-52329630D01*
X110006372Y-51777400D01*
X111029806Y-50755751D01*
X111584368Y-49420218D01*
X111584833Y-48887000D01*
X112903750Y-48887000D01*
X112745000Y-49045750D01*
X112745000Y-49640310D01*
X112841673Y-49873699D01*
X113020302Y-50052327D01*
X113253691Y-50149000D01*
X113848250Y-50149000D01*
X114007000Y-49990250D01*
X114007000Y-48887000D01*
X112903750Y-48887000D01*
X111584833Y-48887000D01*
X111585630Y-47974126D01*
X111133133Y-46879000D01*
X113253691Y-46879000D01*
X113020302Y-46975673D01*
X112841673Y-47154301D01*
X112745000Y-47387690D01*
X112745000Y-47982250D01*
X112903750Y-48141000D01*
X114007000Y-48141000D01*
X114007000Y-47037750D01*
X113848250Y-46879000D01*
X113253691Y-46879000D01*
X111133133Y-46879000D01*
X111033400Y-46637628D01*
X110011751Y-45614194D01*
X109349011Y-45339000D01*
X115285286Y-45339000D01*
X115285286Y-46879000D01*
X114911750Y-46879000D01*
X114753000Y-47037750D01*
X114753000Y-48141000D01*
X114773000Y-48141000D01*
X114773000Y-48887000D01*
X114753000Y-48887000D01*
X114753000Y-49990250D01*
X114911750Y-50149000D01*
X115443000Y-50149000D01*
X115443000Y-51509394D01*
X107860197Y-59092197D01*
X107832667Y-59133399D01*
X107822999Y-59182000D01*
X107823000Y-59182005D01*
X107823000Y-63739669D01*
X107779817Y-63636184D01*
X107217578Y-63537246D01*
X106720183Y-63636184D01*
X106629942Y-63852441D01*
X107250000Y-64472498D01*
X107264142Y-64458356D01*
X107791644Y-64985858D01*
X107777502Y-65000000D01*
X107791644Y-65014142D01*
X107264142Y-65541644D01*
X107250000Y-65527502D01*
X106629942Y-66147559D01*
X106720183Y-66363816D01*
X107282422Y-66462754D01*
X107779817Y-66363816D01*
X107823000Y-66260331D01*
X107823000Y-80517994D01*
X107822999Y-80518000D01*
X107832667Y-80566601D01*
X107860197Y-80607803D01*
X114972194Y-87719799D01*
X114972197Y-87719803D01*
X114972198Y-87719803D01*
X115013399Y-87747333D01*
X115062000Y-87757001D01*
X115062000Y-87757000D01*
X115506975Y-87757000D01*
X115447673Y-87816302D01*
X115351000Y-88049691D01*
X115351000Y-88317250D01*
X115509750Y-88476000D01*
X116286000Y-88476000D01*
X116286000Y-88383000D01*
X116886000Y-88383000D01*
X116886000Y-88476000D01*
X117662250Y-88476000D01*
X117821000Y-88317250D01*
X117821000Y-88049691D01*
X117724327Y-87816302D01*
X117665025Y-87757000D01*
X120452596Y-87757000D01*
X120193046Y-88016550D01*
X120332618Y-88156122D01*
X120075511Y-88298122D01*
X119908190Y-89008697D01*
X120025530Y-89729213D01*
X120075511Y-89849878D01*
X120332619Y-89991879D01*
X120722996Y-89601502D01*
X121778000Y-89601502D01*
X120860121Y-90519381D01*
X121002122Y-90776489D01*
X121712697Y-90943810D01*
X122433213Y-90826470D01*
X122553878Y-90776489D01*
X122695879Y-90519381D01*
X121778000Y-89601502D01*
X120722996Y-89601502D01*
X121250498Y-89074000D01*
X121236356Y-89059858D01*
X121763858Y-88532356D01*
X121778000Y-88546498D01*
X121792142Y-88532356D01*
X122319644Y-89059858D01*
X122305502Y-89074000D01*
X123223381Y-89991879D01*
X123480489Y-89849878D01*
X123518732Y-89687469D01*
X123525530Y-89729213D01*
X123575511Y-89849878D01*
X123832619Y-89991879D01*
X124222996Y-89601502D01*
X125278000Y-89601502D01*
X124360121Y-90519381D01*
X124502122Y-90776489D01*
X125212697Y-90943810D01*
X125933213Y-90826470D01*
X126053878Y-90776489D01*
X126195879Y-90519381D01*
X125278000Y-89601502D01*
X124222996Y-89601502D01*
X124750498Y-89074000D01*
X124736356Y-89059858D01*
X125263858Y-88532356D01*
X125278000Y-88546498D01*
X125292142Y-88532356D01*
X125819644Y-89059858D01*
X125805502Y-89074000D01*
X126723381Y-89991879D01*
X126980489Y-89849878D01*
X127018732Y-89687469D01*
X127025530Y-89729213D01*
X127075511Y-89849878D01*
X127332619Y-89991879D01*
X127722996Y-89601502D01*
X128778000Y-89601502D01*
X127860121Y-90519381D01*
X128002122Y-90776489D01*
X128712697Y-90943810D01*
X129433213Y-90826470D01*
X129553878Y-90776489D01*
X129695879Y-90519381D01*
X128778000Y-89601502D01*
X127722996Y-89601502D01*
X128250498Y-89074000D01*
X128236356Y-89059858D01*
X128763858Y-88532356D01*
X128778000Y-88546498D01*
X128792142Y-88532356D01*
X129319644Y-89059858D01*
X129305502Y-89074000D01*
X130223381Y-89991879D01*
X130480489Y-89849878D01*
X130647810Y-89139303D01*
X130596136Y-88822000D01*
X132527750Y-88822000D01*
X132369000Y-88980750D01*
X132369000Y-89248309D01*
X132465673Y-89481698D01*
X132644301Y-89660327D01*
X132877690Y-89757000D01*
X133145250Y-89757000D01*
X133304000Y-89598250D01*
X133304000Y-88822000D01*
X133904000Y-88822000D01*
X133904000Y-89598250D01*
X134062750Y-89757000D01*
X134330310Y-89757000D01*
X134563699Y-89660327D01*
X134702083Y-89521942D01*
X140584441Y-89521942D01*
X140368184Y-89612183D01*
X140269246Y-90174422D01*
X140368184Y-90671817D01*
X140584441Y-90762058D01*
X140676996Y-90669502D01*
X141732000Y-90669502D01*
X141111942Y-91289559D01*
X141202183Y-91505816D01*
X141764422Y-91604754D01*
X142261817Y-91505816D01*
X142352058Y-91289559D01*
X141732000Y-90669502D01*
X140676996Y-90669502D01*
X141204498Y-90142000D01*
X140584441Y-89521942D01*
X134702083Y-89521942D01*
X134742327Y-89481698D01*
X134839000Y-89248309D01*
X134839000Y-88980750D01*
X134680250Y-88822000D01*
X133904000Y-88822000D01*
X133304000Y-88822000D01*
X133304000Y-88822000D01*
X132527750Y-88822000D01*
X130596136Y-88822000D01*
X130530470Y-88418787D01*
X130480489Y-88298122D01*
X130223382Y-88156122D01*
X130362954Y-88016550D01*
X130103404Y-87757000D01*
X132385026Y-87757000D01*
X132369000Y-87795691D01*
X132369000Y-88063250D01*
X132527750Y-88222000D01*
X133304000Y-88222000D01*
X133304000Y-88129000D01*
X133904000Y-88129000D01*
X133904000Y-88222000D01*
X134680250Y-88222000D01*
X134839000Y-88063250D01*
X134839000Y-87795691D01*
X134822974Y-87757000D01*
X135075394Y-87757000D01*
X136054197Y-88735803D01*
X136095399Y-88763333D01*
X136144000Y-88773001D01*
X136144000Y-88773000D01*
X141228245Y-88773000D01*
X141202183Y-88778184D01*
X141111942Y-88994441D01*
X141732000Y-89614498D01*
X141824556Y-89521942D01*
X142879559Y-89521942D01*
X142259502Y-90142000D01*
X142879559Y-90762058D01*
X143095816Y-90671817D01*
X143194754Y-90109578D01*
X143095816Y-89612183D01*
X142879559Y-89521942D01*
X141824556Y-89521942D01*
X142352058Y-88994441D01*
X142261817Y-88778184D01*
X142232358Y-88773000D01*
X143509994Y-88773000D01*
X143510000Y-88773001D01*
X143510000Y-88773000D01*
X143558601Y-88763333D01*
X143599803Y-88735803D01*
X151981803Y-80353803D01*
X152009333Y-80312601D01*
X152019000Y-80264000D01*
X152019001Y-80264000D01*
X152019000Y-80263994D01*
X152019000Y-77865942D01*
X152494441Y-77865942D01*
X152278184Y-77956183D01*
X152179246Y-78518422D01*
X152278184Y-79015817D01*
X152494441Y-79106058D01*
X152586996Y-79013502D01*
X153642000Y-79013502D01*
X153021942Y-79633559D01*
X153112183Y-79849816D01*
X153674422Y-79948754D01*
X154171817Y-79849816D01*
X154262058Y-79633559D01*
X153642000Y-79013502D01*
X152586996Y-79013502D01*
X153114498Y-78486000D01*
X152494441Y-77865942D01*
X152019000Y-77865942D01*
X152019000Y-77023246D01*
X153609578Y-77023246D01*
X153112183Y-77122184D01*
X153021942Y-77338441D01*
X153642000Y-77958498D01*
X153734556Y-77865942D01*
X154789559Y-77865942D01*
X154169502Y-78486000D01*
X154789559Y-79106058D01*
X155005816Y-79015817D01*
X155104754Y-78453578D01*
X155005816Y-77956183D01*
X154789559Y-77865942D01*
X153734556Y-77865942D01*
X154262058Y-77338441D01*
X154171817Y-77122184D01*
X153609578Y-77023246D01*
X152019000Y-77023246D01*
X152019000Y-72390000D01*
X152009333Y-72341399D01*
X151981803Y-72300197D01*
X151940601Y-72272667D01*
X151892000Y-72263000D01*
X140429158Y-72263000D01*
X142016945Y-70675213D01*
X142016830Y-70807069D01*
X142166471Y-71169229D01*
X142443314Y-71446555D01*
X142805212Y-71596828D01*
X143197069Y-71597170D01*
X143547069Y-71452553D01*
X143742360Y-71584377D01*
X143992000Y-71634440D01*
X145192000Y-71634440D01*
X145434123Y-71587463D01*
X145530879Y-71523904D01*
X145532302Y-71525327D01*
X145765691Y-71622000D01*
X146033250Y-71622000D01*
X146192000Y-71463250D01*
X146192000Y-70799500D01*
X146792000Y-70799500D01*
X146792000Y-71463250D01*
X146950750Y-71622000D01*
X147218309Y-71622000D01*
X147451698Y-71525327D01*
X147630327Y-71346699D01*
X147727000Y-71113310D01*
X147727000Y-70958250D01*
X147568250Y-70799500D01*
X146792000Y-70799500D01*
X146192000Y-70799500D01*
X146192000Y-70799500D01*
X146099000Y-70799500D01*
X146099000Y-70488000D01*
X147917750Y-70488000D01*
X147759000Y-70646750D01*
X147759000Y-70914309D01*
X147855673Y-71147698D01*
X148034301Y-71326327D01*
X148267690Y-71423000D01*
X148460250Y-71423000D01*
X148619000Y-71264250D01*
X148619000Y-70488000D01*
X149069000Y-70488000D01*
X149069000Y-71264250D01*
X149227750Y-71423000D01*
X149420310Y-71423000D01*
X149653699Y-71326327D01*
X149832327Y-71147698D01*
X149929000Y-70914309D01*
X149929000Y-70646750D01*
X149770250Y-70488000D01*
X149069000Y-70488000D01*
X148619000Y-70488000D01*
X148619000Y-70488000D01*
X147917750Y-70488000D01*
X146099000Y-70488000D01*
X146099000Y-70424500D01*
X146192000Y-70424500D01*
X146192000Y-69760750D01*
X146033250Y-69602000D01*
X146950750Y-69602000D01*
X146792000Y-69760750D01*
X146792000Y-70424500D01*
X147568250Y-70424500D01*
X147727000Y-70265750D01*
X147727000Y-70110690D01*
X147630327Y-69877301D01*
X147451698Y-69698673D01*
X147218309Y-69602000D01*
X146950750Y-69602000D01*
X146033250Y-69602000D01*
X146033250Y-69602000D01*
X145765691Y-69602000D01*
X145532302Y-69698673D01*
X145531020Y-69699955D01*
X145441640Y-69639623D01*
X145192000Y-69589560D01*
X143992000Y-69589560D01*
X143749877Y-69636537D01*
X143545176Y-69771004D01*
X143198788Y-69627172D01*
X143065103Y-69627055D01*
X143534255Y-69157903D01*
X143742360Y-69298377D01*
X143992000Y-69348440D01*
X145192000Y-69348440D01*
X145434123Y-69301463D01*
X145530879Y-69237904D01*
X145532302Y-69239327D01*
X145765691Y-69336000D01*
X146033250Y-69336000D01*
X146192000Y-69177250D01*
X146192000Y-68513500D01*
X146792000Y-68513500D01*
X146792000Y-69177250D01*
X146950750Y-69336000D01*
X147218309Y-69336000D01*
X147451698Y-69239327D01*
X147630327Y-69060699D01*
X147727000Y-68827310D01*
X147727000Y-68672250D01*
X147568250Y-68513500D01*
X146792000Y-68513500D01*
X146192000Y-68513500D01*
X146192000Y-68513500D01*
X146099000Y-68513500D01*
X146099000Y-68138500D01*
X146192000Y-68138500D01*
X146192000Y-67474750D01*
X146033250Y-67316000D01*
X146950750Y-67316000D01*
X146792000Y-67474750D01*
X146792000Y-68138500D01*
X147568250Y-68138500D01*
X147727000Y-67979750D01*
X147727000Y-67824690D01*
X147630327Y-67591301D01*
X147451698Y-67412673D01*
X147218309Y-67316000D01*
X146950750Y-67316000D01*
X146033250Y-67316000D01*
X146033250Y-67316000D01*
X145992580Y-67316000D01*
X146018828Y-67252788D01*
X146019170Y-66860931D01*
X145869529Y-66498771D01*
X145592686Y-66221445D01*
X145230788Y-66071172D01*
X144838931Y-66070830D01*
X144476771Y-66220471D01*
X144199445Y-66497314D01*
X144103803Y-66727645D01*
X143981000Y-66604842D01*
X143981000Y-66534046D01*
X144038123Y-66522963D01*
X144250927Y-66383173D01*
X144393377Y-66172140D01*
X144443440Y-65922500D01*
X144443440Y-65522500D01*
X144420266Y-65403058D01*
X144443440Y-65287500D01*
X144443440Y-65216029D01*
X144635907Y-65177745D01*
X144890579Y-65007579D01*
X145081079Y-64817079D01*
X145251245Y-64562406D01*
X145311000Y-64262000D01*
X145311000Y-61468000D01*
X145251245Y-61167594D01*
X145081079Y-60912921D01*
X144890579Y-60722421D01*
X144635907Y-60552255D01*
X144443440Y-60513971D01*
X144443440Y-60442500D01*
X144420266Y-60323058D01*
X144443440Y-60207500D01*
X144443440Y-59807500D01*
X144420266Y-59688058D01*
X144443440Y-59572500D01*
X144443440Y-59172500D01*
X144425111Y-59078028D01*
X144431000Y-59063810D01*
X144431000Y-58996250D01*
X144404006Y-58969256D01*
X144396463Y-58930377D01*
X144256673Y-58717573D01*
X144138049Y-58637500D01*
X144272250Y-58637500D01*
X144431000Y-58478750D01*
X144431000Y-58411190D01*
X144334327Y-58177801D01*
X144155698Y-57999173D01*
X143922309Y-57902500D01*
X143654750Y-57902500D01*
X143496000Y-58061250D01*
X143496000Y-58525060D01*
X142896000Y-58525060D01*
X142896000Y-58061250D01*
X142737250Y-57902500D01*
X142469691Y-57902500D01*
X142236302Y-57999173D01*
X142090856Y-58144618D01*
X141938407Y-58042755D01*
X141638000Y-57983000D01*
X138303000Y-57983000D01*
X138303000Y-53871000D01*
X149234842Y-53871000D01*
X147840921Y-55264921D01*
X147670755Y-55519593D01*
X147640358Y-55672407D01*
X147611000Y-55820000D01*
X147611000Y-57925954D01*
X147553877Y-57937037D01*
X147341073Y-58076827D01*
X147198623Y-58287860D01*
X147148560Y-58537500D01*
X147148560Y-58763210D01*
X147008788Y-58705172D01*
X146616931Y-58704830D01*
X146254771Y-58854471D01*
X145977445Y-59131314D01*
X145827172Y-59493212D01*
X145826830Y-59885069D01*
X145976471Y-60247229D01*
X146253314Y-60524555D01*
X146615212Y-60674828D01*
X146742581Y-60674939D01*
X146829094Y-60732745D01*
X146864009Y-60739690D01*
X146508771Y-60886471D01*
X146231445Y-61163314D01*
X146081172Y-61525212D01*
X146080830Y-61917069D01*
X146230471Y-62279229D01*
X146507314Y-62556555D01*
X146869212Y-62706828D01*
X147148560Y-62707072D01*
X147148560Y-62747500D01*
X147171734Y-62866942D01*
X147148560Y-62982500D01*
X147148560Y-63382500D01*
X147171734Y-63501942D01*
X147148560Y-63617500D01*
X147148560Y-64017500D01*
X147171734Y-64136942D01*
X147148560Y-64252500D01*
X147148560Y-64652500D01*
X147171734Y-64771942D01*
X147148560Y-64887500D01*
X147148560Y-65287500D01*
X147171734Y-65406942D01*
X147148560Y-65522500D01*
X147148560Y-65922500D01*
X147195537Y-66164623D01*
X147335327Y-66377427D01*
X147546360Y-66519877D01*
X147796000Y-66569940D01*
X148727902Y-66569940D01*
X148557282Y-66740560D01*
X148394000Y-66740560D01*
X148151877Y-66787537D01*
X147939073Y-66927327D01*
X147796623Y-67138360D01*
X147746560Y-67388000D01*
X147746560Y-68588000D01*
X147793537Y-68830123D01*
X147933327Y-69042927D01*
X147997637Y-69086337D01*
X147855673Y-69228302D01*
X147759000Y-69461691D01*
X147759000Y-69729250D01*
X147917750Y-69888000D01*
X148619000Y-69888000D01*
X148619000Y-69795000D01*
X149069000Y-69795000D01*
X149069000Y-69888000D01*
X149770250Y-69888000D01*
X149929000Y-69729250D01*
X149929000Y-69461691D01*
X149832327Y-69228302D01*
X149690850Y-69086824D01*
X149748927Y-69048673D01*
X149891377Y-68837640D01*
X149941440Y-68588000D01*
X149941440Y-67576718D01*
X150161079Y-67357079D01*
X150331245Y-67102406D01*
X150354180Y-66987103D01*
X150493327Y-67198927D01*
X150704360Y-67341377D01*
X150954000Y-67391440D01*
X152154000Y-67391440D01*
X152396123Y-67344463D01*
X152608927Y-67204673D01*
X152653614Y-67138471D01*
X152693327Y-67198927D01*
X152904360Y-67341377D01*
X153154000Y-67391440D01*
X154354000Y-67391440D01*
X154596123Y-67344463D01*
X154808927Y-67204673D01*
X154893758Y-67079000D01*
X155233685Y-67079000D01*
X155299327Y-67178927D01*
X155410125Y-67253717D01*
X155181282Y-67482560D01*
X154932000Y-67482560D01*
X154689877Y-67529537D01*
X154477073Y-67669327D01*
X154432386Y-67735529D01*
X154392673Y-67675073D01*
X154181640Y-67532623D01*
X153932000Y-67482560D01*
X152732000Y-67482560D01*
X152489877Y-67529537D01*
X152371690Y-67607173D01*
X152342788Y-67595172D01*
X151950931Y-67594830D01*
X151588771Y-67744471D01*
X151311445Y-68021314D01*
X151161172Y-68383212D01*
X151160830Y-68775069D01*
X151310471Y-69137229D01*
X151587314Y-69414555D01*
X151949212Y-69564828D01*
X152341069Y-69565170D01*
X152371547Y-69552577D01*
X152482360Y-69627377D01*
X152732000Y-69677440D01*
X153932000Y-69677440D01*
X154174123Y-69630463D01*
X154386927Y-69490673D01*
X154431614Y-69424471D01*
X154471327Y-69484927D01*
X154682360Y-69627377D01*
X154932000Y-69677440D01*
X156132000Y-69677440D01*
X156374123Y-69630463D01*
X156586927Y-69490673D01*
X156729377Y-69279640D01*
X156779440Y-69030000D01*
X156779440Y-68130000D01*
X156774566Y-68104880D01*
X156935245Y-67864406D01*
X156995000Y-67564000D01*
X156995000Y-67263453D01*
X157114927Y-67184673D01*
X157257377Y-66973640D01*
X157307440Y-66724000D01*
X157307440Y-66424000D01*
X157569750Y-66424000D01*
X157411000Y-66582750D01*
X157411000Y-66850309D01*
X157507673Y-67083698D01*
X157686301Y-67262327D01*
X157919690Y-67359000D01*
X158112250Y-67359000D01*
X158271000Y-67200250D01*
X158271000Y-66424000D01*
X158721000Y-66424000D01*
X158721000Y-67200250D01*
X158879750Y-67359000D01*
X159072310Y-67359000D01*
X159305699Y-67262327D01*
X159484327Y-67083698D01*
X159581000Y-66850309D01*
X159581000Y-66582750D01*
X159422250Y-66424000D01*
X158721000Y-66424000D01*
X158271000Y-66424000D01*
X158271000Y-66424000D01*
X157569750Y-66424000D01*
X157307440Y-66424000D01*
X157307440Y-65524000D01*
X157260463Y-65281877D01*
X157120673Y-65069073D01*
X157054471Y-65024386D01*
X157114927Y-64984673D01*
X157257377Y-64773640D01*
X157270340Y-64709000D01*
X157434454Y-64709000D01*
X157445537Y-64766123D01*
X157585327Y-64978927D01*
X157649637Y-65022337D01*
X157507673Y-65164302D01*
X157411000Y-65397691D01*
X157411000Y-65665250D01*
X157569750Y-65824000D01*
X158271000Y-65824000D01*
X158271000Y-65731000D01*
X158721000Y-65731000D01*
X158721000Y-65824000D01*
X159422250Y-65824000D01*
X159581000Y-65665250D01*
X159581000Y-65397691D01*
X159484327Y-65164302D01*
X159342850Y-65022824D01*
X159400927Y-64984673D01*
X159543377Y-64773640D01*
X159593440Y-64524000D01*
X159593440Y-63324000D01*
X159546463Y-63081877D01*
X159406673Y-62869073D01*
X159195640Y-62726623D01*
X158946000Y-62676560D01*
X158046000Y-62676560D01*
X157803877Y-62723537D01*
X157591073Y-62863327D01*
X157448623Y-63074360D01*
X157435660Y-63139000D01*
X157271546Y-63139000D01*
X157260463Y-63081877D01*
X157120673Y-62869073D01*
X156909640Y-62726623D01*
X156660000Y-62676560D01*
X155760000Y-62676560D01*
X155517877Y-62723537D01*
X155305073Y-62863327D01*
X155162623Y-63074360D01*
X155132815Y-63223000D01*
X154893453Y-63223000D01*
X154814673Y-63103073D01*
X154603640Y-62960623D01*
X154354000Y-62910560D01*
X153154000Y-62910560D01*
X152911877Y-62957537D01*
X152699073Y-63097327D01*
X152654386Y-63163529D01*
X152614673Y-63103073D01*
X152484083Y-63014923D01*
X152622828Y-62680788D01*
X152622890Y-62609268D01*
X152666718Y-62565440D01*
X153424000Y-62565440D01*
X153666123Y-62518463D01*
X153878927Y-62378673D01*
X153923614Y-62312471D01*
X153963327Y-62372927D01*
X154174360Y-62515377D01*
X154424000Y-62565440D01*
X155624000Y-62565440D01*
X155866123Y-62518463D01*
X156078927Y-62378673D01*
X156221377Y-62167640D01*
X156271440Y-61918000D01*
X156271440Y-61018000D01*
X156224463Y-60775877D01*
X156084673Y-60563073D01*
X155873640Y-60420623D01*
X155799814Y-60405818D01*
X155795424Y-60383750D01*
X155770697Y-60259440D01*
X156660000Y-60259440D01*
X156902123Y-60212463D01*
X157114927Y-60072673D01*
X157257377Y-59861640D01*
X157307440Y-59612000D01*
X157307440Y-59312000D01*
X157569750Y-59312000D01*
X157411000Y-59470750D01*
X157411000Y-59738309D01*
X157507673Y-59971698D01*
X157686301Y-60150327D01*
X157919690Y-60247000D01*
X158112250Y-60247000D01*
X158271000Y-60088250D01*
X158271000Y-59312000D01*
X158721000Y-59312000D01*
X158721000Y-60088250D01*
X158879750Y-60247000D01*
X159072310Y-60247000D01*
X159305699Y-60150327D01*
X159484327Y-59971698D01*
X159581000Y-59738309D01*
X159581000Y-59470750D01*
X159422250Y-59312000D01*
X158721000Y-59312000D01*
X158271000Y-59312000D01*
X158271000Y-59312000D01*
X157569750Y-59312000D01*
X157307440Y-59312000D01*
X157307440Y-58412000D01*
X157260463Y-58169877D01*
X157120673Y-57957073D01*
X157054471Y-57912386D01*
X157114927Y-57872673D01*
X157257377Y-57661640D01*
X157270340Y-57597000D01*
X157434454Y-57597000D01*
X157445537Y-57654123D01*
X157585327Y-57866927D01*
X157649637Y-57910337D01*
X157507673Y-58052302D01*
X157411000Y-58285691D01*
X157411000Y-58553250D01*
X157569750Y-58712000D01*
X158271000Y-58712000D01*
X158271000Y-58619000D01*
X158721000Y-58619000D01*
X158721000Y-58712000D01*
X159422250Y-58712000D01*
X159581000Y-58553250D01*
X159581000Y-58285691D01*
X159484327Y-58052302D01*
X159342850Y-57910824D01*
X159400927Y-57872673D01*
X159543377Y-57661640D01*
X159593440Y-57412000D01*
X159593440Y-56212000D01*
X159546463Y-55969877D01*
X159406673Y-55757073D01*
X159195640Y-55614623D01*
X158946000Y-55564560D01*
X158046000Y-55564560D01*
X157803877Y-55611537D01*
X157591073Y-55751327D01*
X157448623Y-55962360D01*
X157435660Y-56027000D01*
X157271546Y-56027000D01*
X157260463Y-55969877D01*
X157120673Y-55757073D01*
X156909640Y-55614623D01*
X156660000Y-55564560D01*
X155760000Y-55564560D01*
X155517877Y-55611537D01*
X155305073Y-55751327D01*
X155162623Y-55962360D01*
X155112560Y-56212000D01*
X155112560Y-56311883D01*
X155068673Y-56245073D01*
X154857640Y-56102623D01*
X154608000Y-56052560D01*
X153408000Y-56052560D01*
X153165877Y-56099537D01*
X152953073Y-56239327D01*
X152908386Y-56305529D01*
X152868673Y-56245073D01*
X152657640Y-56102623D01*
X152408000Y-56052560D01*
X151208000Y-56052560D01*
X150965877Y-56099537D01*
X150753073Y-56239327D01*
X150645000Y-56399432D01*
X150645000Y-56234155D01*
X150694555Y-56184686D01*
X150844828Y-55822788D01*
X150845170Y-55430931D01*
X150725373Y-55141000D01*
X160573378Y-55141000D01*
X160559172Y-55175212D01*
X160559110Y-55246732D01*
X160226921Y-55578921D01*
X160056755Y-55833593D01*
X160037732Y-55929229D01*
X159997000Y-56134000D01*
X159997000Y-63500000D01*
X160056755Y-63800407D01*
X160226921Y-64055079D01*
X160754418Y-64582576D01*
X160478771Y-64696471D01*
X160201445Y-64973314D01*
X160051172Y-65335212D01*
X160050830Y-65727069D01*
X160200471Y-66089229D01*
X160477314Y-66366555D01*
X160839212Y-66516828D01*
X161231069Y-66517170D01*
X161344933Y-66470122D01*
X161432790Y-66529427D01*
X161682430Y-66579490D01*
X162871334Y-66579490D01*
X162510771Y-66728471D01*
X162233445Y-67005314D01*
X162083172Y-67367212D01*
X162082970Y-67598510D01*
X161682430Y-67598510D01*
X161440307Y-67645487D01*
X161227503Y-67785277D01*
X161220940Y-67795000D01*
X160528000Y-67795000D01*
X160227594Y-67854755D01*
X159972921Y-68024921D01*
X159972919Y-68024924D01*
X158448921Y-69548921D01*
X158278755Y-69803593D01*
X158262213Y-69886755D01*
X158219000Y-70104000D01*
X158219000Y-77516547D01*
X158099073Y-77595327D01*
X157956623Y-77806360D01*
X157906560Y-78056000D01*
X157906560Y-79256000D01*
X157953537Y-79498123D01*
X158093327Y-79710927D01*
X158159529Y-79755614D01*
X158099073Y-79795327D01*
X157956623Y-80006360D01*
X157906560Y-80256000D01*
X157906560Y-81456000D01*
X157953537Y-81698123D01*
X158093327Y-81910927D01*
X158219000Y-81995758D01*
X158219000Y-82674114D01*
X158150293Y-82719247D01*
X158007843Y-82930280D01*
X157957780Y-83179920D01*
X157957780Y-83977480D01*
X158004757Y-84219603D01*
X158075951Y-84327982D01*
X158007843Y-84428880D01*
X157957780Y-84678520D01*
X157957780Y-85476080D01*
X158004757Y-85718203D01*
X158144547Y-85931007D01*
X158355580Y-86073457D01*
X158605220Y-86123520D01*
X159402780Y-86123520D01*
X159644903Y-86076543D01*
X159857707Y-85936753D01*
X159907964Y-85862300D01*
X161147414Y-85862300D01*
X161192547Y-85931007D01*
X161267000Y-85981264D01*
X161267000Y-86106000D01*
X161326755Y-86406407D01*
X161496921Y-86661079D01*
X162004919Y-87169076D01*
X162004921Y-87169079D01*
X162259594Y-87339245D01*
X162560000Y-87399000D01*
X166116000Y-87399000D01*
X166416407Y-87339245D01*
X166671079Y-87169079D01*
X167005000Y-86835158D01*
X167005000Y-95315000D01*
X154705281Y-95315000D01*
X156006372Y-94777400D01*
X157029806Y-93755751D01*
X157584368Y-92420218D01*
X157585630Y-90974126D01*
X157033400Y-89637628D01*
X156011751Y-88614194D01*
X154676218Y-88059632D01*
X153230126Y-88058370D01*
X151893628Y-88610600D01*
X150870194Y-89632249D01*
X150315632Y-90967782D01*
X150314370Y-92413874D01*
X150866600Y-93750372D01*
X151888249Y-94773806D01*
X153191588Y-95315000D01*
X108705281Y-95315000D01*
X110006372Y-94777400D01*
X111029806Y-93755751D01*
X111584368Y-92420218D01*
X111585630Y-90974126D01*
X111033400Y-89637628D01*
X110472752Y-89076000D01*
X115509750Y-89076000D01*
X115351000Y-89234750D01*
X115351000Y-89502309D01*
X115447673Y-89735698D01*
X115626301Y-89914327D01*
X115859690Y-90011000D01*
X116127250Y-90011000D01*
X116286000Y-89852250D01*
X116286000Y-89076000D01*
X116886000Y-89076000D01*
X116886000Y-89852250D01*
X117044750Y-90011000D01*
X117312310Y-90011000D01*
X117545699Y-89914327D01*
X117724327Y-89735698D01*
X117821000Y-89502309D01*
X117821000Y-89234750D01*
X117662250Y-89076000D01*
X116886000Y-89076000D01*
X116286000Y-89076000D01*
X116286000Y-89076000D01*
X115509750Y-89076000D01*
X110472752Y-89076000D01*
X110011751Y-88614194D01*
X108676218Y-88059632D01*
X107230126Y-88058370D01*
X105893628Y-88610600D01*
X104870194Y-89632249D01*
X104315632Y-90967782D01*
X104314370Y-92413874D01*
X104866600Y-93750372D01*
X105888249Y-94773806D01*
X107191588Y-95315000D01*
X104267000Y-95315000D01*
X104267000Y-79934076D01*
X105189102Y-79934076D01*
X104980106Y-80009992D01*
X104889252Y-80533259D01*
X104980106Y-80990008D01*
X105189102Y-81065924D01*
X105260050Y-80994975D01*
X106250000Y-80994975D01*
X105684076Y-81560898D01*
X105759992Y-81769894D01*
X106283259Y-81860748D01*
X106740008Y-81769894D01*
X106815924Y-81560898D01*
X106250000Y-80994975D01*
X105260050Y-80994975D01*
X105755025Y-80500000D01*
X105189102Y-79934076D01*
X104267000Y-79934076D01*
X104267000Y-79139252D01*
X106216741Y-79139252D01*
X105759992Y-79230106D01*
X105684076Y-79439102D01*
X106250000Y-80005025D01*
X106320949Y-79934076D01*
X107310898Y-79934076D01*
X106744975Y-80500000D01*
X107310898Y-81065924D01*
X107519894Y-80990008D01*
X107610748Y-80466741D01*
X107519894Y-80009992D01*
X107310898Y-79934076D01*
X106320949Y-79934076D01*
X106815924Y-79439102D01*
X106740008Y-79230106D01*
X106216741Y-79139252D01*
X104267000Y-79139252D01*
X104267000Y-64379942D01*
X106102441Y-64379942D01*
X105886184Y-64470183D01*
X105787246Y-65032422D01*
X105886184Y-65529817D01*
X106102441Y-65620058D01*
X106722498Y-65000000D01*
X106102441Y-64379942D01*
X104267000Y-64379942D01*
X104267000Y-45339000D01*
X106550950Y-45339000D01*
X105893628Y-45610600D01*
X105893628Y-45610600D01*
G37*
X105893628Y-45610600D02*
X105893628Y-45610600D01*
X104870194Y-46632249D01*
X104315632Y-47967782D01*
X104314370Y-49413874D01*
X104866600Y-50750372D01*
X105888249Y-51773806D01*
X107223782Y-52328368D01*
X108669874Y-52329630D01*
X110006372Y-51777400D01*
X111029806Y-50755751D01*
X111584368Y-49420218D01*
X111584833Y-48887000D01*
X112903750Y-48887000D01*
X112745000Y-49045750D01*
X112745000Y-49640310D01*
X112841673Y-49873699D01*
X113020302Y-50052327D01*
X113253691Y-50149000D01*
X113848250Y-50149000D01*
X114007000Y-49990250D01*
X114007000Y-48887000D01*
X112903750Y-48887000D01*
X111584833Y-48887000D01*
X111585630Y-47974126D01*
X111133133Y-46879000D01*
X113253691Y-46879000D01*
X113020302Y-46975673D01*
X112841673Y-47154301D01*
X112745000Y-47387690D01*
X112745000Y-47982250D01*
X112903750Y-48141000D01*
X114007000Y-48141000D01*
X114007000Y-47037750D01*
X113848250Y-46879000D01*
X113253691Y-46879000D01*
X111133133Y-46879000D01*
X111033400Y-46637628D01*
X110011751Y-45614194D01*
X109349011Y-45339000D01*
X115285286Y-45339000D01*
X115285286Y-46879000D01*
X114911750Y-46879000D01*
X114753000Y-47037750D01*
X114753000Y-48141000D01*
X114773000Y-48141000D01*
X114773000Y-48887000D01*
X114753000Y-48887000D01*
X114753000Y-49990250D01*
X114911750Y-50149000D01*
X115443000Y-50149000D01*
X115443000Y-51509394D01*
X107860197Y-59092197D01*
X107832667Y-59133399D01*
X107822999Y-59182000D01*
X107823000Y-59182005D01*
X107823000Y-63739669D01*
X107779817Y-63636184D01*
X107217578Y-63537246D01*
X106720183Y-63636184D01*
X106629942Y-63852441D01*
X107250000Y-64472498D01*
X107264142Y-64458356D01*
X107791644Y-64985858D01*
X107777502Y-65000000D01*
X107791644Y-65014142D01*
X107264142Y-65541644D01*
X107250000Y-65527502D01*
X106629942Y-66147559D01*
X106720183Y-66363816D01*
X107282422Y-66462754D01*
X107779817Y-66363816D01*
X107823000Y-66260331D01*
X107823000Y-80517994D01*
X107822999Y-80518000D01*
X107832667Y-80566601D01*
X107860197Y-80607803D01*
X114972194Y-87719799D01*
X114972197Y-87719803D01*
X114972198Y-87719803D01*
X115013399Y-87747333D01*
X115062000Y-87757001D01*
X115062000Y-87757000D01*
X115506975Y-87757000D01*
X115447673Y-87816302D01*
X115351000Y-88049691D01*
X115351000Y-88317250D01*
X115509750Y-88476000D01*
X116286000Y-88476000D01*
X116286000Y-88383000D01*
X116886000Y-88383000D01*
X116886000Y-88476000D01*
X117662250Y-88476000D01*
X117821000Y-88317250D01*
X117821000Y-88049691D01*
X117724327Y-87816302D01*
X117665025Y-87757000D01*
X120452596Y-87757000D01*
X120193046Y-88016550D01*
X120332618Y-88156122D01*
X120075511Y-88298122D01*
X119908190Y-89008697D01*
X120025530Y-89729213D01*
X120075511Y-89849878D01*
X120332619Y-89991879D01*
X120722996Y-89601502D01*
X121778000Y-89601502D01*
X120860121Y-90519381D01*
X121002122Y-90776489D01*
X121712697Y-90943810D01*
X122433213Y-90826470D01*
X122553878Y-90776489D01*
X122695879Y-90519381D01*
X121778000Y-89601502D01*
X120722996Y-89601502D01*
X121250498Y-89074000D01*
X121236356Y-89059858D01*
X121763858Y-88532356D01*
X121778000Y-88546498D01*
X121792142Y-88532356D01*
X122319644Y-89059858D01*
X122305502Y-89074000D01*
X123223381Y-89991879D01*
X123480489Y-89849878D01*
X123518732Y-89687469D01*
X123525530Y-89729213D01*
X123575511Y-89849878D01*
X123832619Y-89991879D01*
X124222996Y-89601502D01*
X125278000Y-89601502D01*
X124360121Y-90519381D01*
X124502122Y-90776489D01*
X125212697Y-90943810D01*
X125933213Y-90826470D01*
X126053878Y-90776489D01*
X126195879Y-90519381D01*
X125278000Y-89601502D01*
X124222996Y-89601502D01*
X124750498Y-89074000D01*
X124736356Y-89059858D01*
X125263858Y-88532356D01*
X125278000Y-88546498D01*
X125292142Y-88532356D01*
X125819644Y-89059858D01*
X125805502Y-89074000D01*
X126723381Y-89991879D01*
X126980489Y-89849878D01*
X127018732Y-89687469D01*
X127025530Y-89729213D01*
X127075511Y-89849878D01*
X127332619Y-89991879D01*
X127722996Y-89601502D01*
X128778000Y-89601502D01*
X127860121Y-90519381D01*
X128002122Y-90776489D01*
X128712697Y-90943810D01*
X129433213Y-90826470D01*
X129553878Y-90776489D01*
X129695879Y-90519381D01*
X128778000Y-89601502D01*
X127722996Y-89601502D01*
X128250498Y-89074000D01*
X128236356Y-89059858D01*
X128763858Y-88532356D01*
X128778000Y-88546498D01*
X128792142Y-88532356D01*
X129319644Y-89059858D01*
X129305502Y-89074000D01*
X130223381Y-89991879D01*
X130480489Y-89849878D01*
X130647810Y-89139303D01*
X130596136Y-88822000D01*
X132527750Y-88822000D01*
X132369000Y-88980750D01*
X132369000Y-89248309D01*
X132465673Y-89481698D01*
X132644301Y-89660327D01*
X132877690Y-89757000D01*
X133145250Y-89757000D01*
X133304000Y-89598250D01*
X133304000Y-88822000D01*
X133904000Y-88822000D01*
X133904000Y-89598250D01*
X134062750Y-89757000D01*
X134330310Y-89757000D01*
X134563699Y-89660327D01*
X134702083Y-89521942D01*
X140584441Y-89521942D01*
X140368184Y-89612183D01*
X140269246Y-90174422D01*
X140368184Y-90671817D01*
X140584441Y-90762058D01*
X140676996Y-90669502D01*
X141732000Y-90669502D01*
X141111942Y-91289559D01*
X141202183Y-91505816D01*
X141764422Y-91604754D01*
X142261817Y-91505816D01*
X142352058Y-91289559D01*
X141732000Y-90669502D01*
X140676996Y-90669502D01*
X141204498Y-90142000D01*
X140584441Y-89521942D01*
X134702083Y-89521942D01*
X134742327Y-89481698D01*
X134839000Y-89248309D01*
X134839000Y-88980750D01*
X134680250Y-88822000D01*
X133904000Y-88822000D01*
X133304000Y-88822000D01*
X133304000Y-88822000D01*
X132527750Y-88822000D01*
X130596136Y-88822000D01*
X130530470Y-88418787D01*
X130480489Y-88298122D01*
X130223382Y-88156122D01*
X130362954Y-88016550D01*
X130103404Y-87757000D01*
X132385026Y-87757000D01*
X132369000Y-87795691D01*
X132369000Y-88063250D01*
X132527750Y-88222000D01*
X133304000Y-88222000D01*
X133304000Y-88129000D01*
X133904000Y-88129000D01*
X133904000Y-88222000D01*
X134680250Y-88222000D01*
X134839000Y-88063250D01*
X134839000Y-87795691D01*
X134822974Y-87757000D01*
X135075394Y-87757000D01*
X136054197Y-88735803D01*
X136095399Y-88763333D01*
X136144000Y-88773001D01*
X136144000Y-88773000D01*
X141228245Y-88773000D01*
X141202183Y-88778184D01*
X141111942Y-88994441D01*
X141732000Y-89614498D01*
X141824556Y-89521942D01*
X142879559Y-89521942D01*
X142259502Y-90142000D01*
X142879559Y-90762058D01*
X143095816Y-90671817D01*
X143194754Y-90109578D01*
X143095816Y-89612183D01*
X142879559Y-89521942D01*
X141824556Y-89521942D01*
X142352058Y-88994441D01*
X142261817Y-88778184D01*
X142232358Y-88773000D01*
X143509994Y-88773000D01*
X143510000Y-88773001D01*
X143510000Y-88773000D01*
X143558601Y-88763333D01*
X143599803Y-88735803D01*
X151981803Y-80353803D01*
X152009333Y-80312601D01*
X152019000Y-80264000D01*
X152019001Y-80264000D01*
X152019000Y-80263994D01*
X152019000Y-77865942D01*
X152494441Y-77865942D01*
X152278184Y-77956183D01*
X152179246Y-78518422D01*
X152278184Y-79015817D01*
X152494441Y-79106058D01*
X152586996Y-79013502D01*
X153642000Y-79013502D01*
X153021942Y-79633559D01*
X153112183Y-79849816D01*
X153674422Y-79948754D01*
X154171817Y-79849816D01*
X154262058Y-79633559D01*
X153642000Y-79013502D01*
X152586996Y-79013502D01*
X153114498Y-78486000D01*
X152494441Y-77865942D01*
X152019000Y-77865942D01*
X152019000Y-77023246D01*
X153609578Y-77023246D01*
X153112183Y-77122184D01*
X153021942Y-77338441D01*
X153642000Y-77958498D01*
X153734556Y-77865942D01*
X154789559Y-77865942D01*
X154169502Y-78486000D01*
X154789559Y-79106058D01*
X155005816Y-79015817D01*
X155104754Y-78453578D01*
X155005816Y-77956183D01*
X154789559Y-77865942D01*
X153734556Y-77865942D01*
X154262058Y-77338441D01*
X154171817Y-77122184D01*
X153609578Y-77023246D01*
X152019000Y-77023246D01*
X152019000Y-72390000D01*
X152009333Y-72341399D01*
X151981803Y-72300197D01*
X151940601Y-72272667D01*
X151892000Y-72263000D01*
X140429158Y-72263000D01*
X142016945Y-70675213D01*
X142016830Y-70807069D01*
X142166471Y-71169229D01*
X142443314Y-71446555D01*
X142805212Y-71596828D01*
X143197069Y-71597170D01*
X143547069Y-71452553D01*
X143742360Y-71584377D01*
X143992000Y-71634440D01*
X145192000Y-71634440D01*
X145434123Y-71587463D01*
X145530879Y-71523904D01*
X145532302Y-71525327D01*
X145765691Y-71622000D01*
X146033250Y-71622000D01*
X146192000Y-71463250D01*
X146192000Y-70799500D01*
X146792000Y-70799500D01*
X146792000Y-71463250D01*
X146950750Y-71622000D01*
X147218309Y-71622000D01*
X147451698Y-71525327D01*
X147630327Y-71346699D01*
X147727000Y-71113310D01*
X147727000Y-70958250D01*
X147568250Y-70799500D01*
X146792000Y-70799500D01*
X146192000Y-70799500D01*
X146192000Y-70799500D01*
X146099000Y-70799500D01*
X146099000Y-70488000D01*
X147917750Y-70488000D01*
X147759000Y-70646750D01*
X147759000Y-70914309D01*
X147855673Y-71147698D01*
X148034301Y-71326327D01*
X148267690Y-71423000D01*
X148460250Y-71423000D01*
X148619000Y-71264250D01*
X148619000Y-70488000D01*
X149069000Y-70488000D01*
X149069000Y-71264250D01*
X149227750Y-71423000D01*
X149420310Y-71423000D01*
X149653699Y-71326327D01*
X149832327Y-71147698D01*
X149929000Y-70914309D01*
X149929000Y-70646750D01*
X149770250Y-70488000D01*
X149069000Y-70488000D01*
X148619000Y-70488000D01*
X148619000Y-70488000D01*
X147917750Y-70488000D01*
X146099000Y-70488000D01*
X146099000Y-70424500D01*
X146192000Y-70424500D01*
X146192000Y-69760750D01*
X146033250Y-69602000D01*
X146950750Y-69602000D01*
X146792000Y-69760750D01*
X146792000Y-70424500D01*
X147568250Y-70424500D01*
X147727000Y-70265750D01*
X147727000Y-70110690D01*
X147630327Y-69877301D01*
X147451698Y-69698673D01*
X147218309Y-69602000D01*
X146950750Y-69602000D01*
X146033250Y-69602000D01*
X146033250Y-69602000D01*
X145765691Y-69602000D01*
X145532302Y-69698673D01*
X145531020Y-69699955D01*
X145441640Y-69639623D01*
X145192000Y-69589560D01*
X143992000Y-69589560D01*
X143749877Y-69636537D01*
X143545176Y-69771004D01*
X143198788Y-69627172D01*
X143065103Y-69627055D01*
X143534255Y-69157903D01*
X143742360Y-69298377D01*
X143992000Y-69348440D01*
X145192000Y-69348440D01*
X145434123Y-69301463D01*
X145530879Y-69237904D01*
X145532302Y-69239327D01*
X145765691Y-69336000D01*
X146033250Y-69336000D01*
X146192000Y-69177250D01*
X146192000Y-68513500D01*
X146792000Y-68513500D01*
X146792000Y-69177250D01*
X146950750Y-69336000D01*
X147218309Y-69336000D01*
X147451698Y-69239327D01*
X147630327Y-69060699D01*
X147727000Y-68827310D01*
X147727000Y-68672250D01*
X147568250Y-68513500D01*
X146792000Y-68513500D01*
X146192000Y-68513500D01*
X146192000Y-68513500D01*
X146099000Y-68513500D01*
X146099000Y-68138500D01*
X146192000Y-68138500D01*
X146192000Y-67474750D01*
X146033250Y-67316000D01*
X146950750Y-67316000D01*
X146792000Y-67474750D01*
X146792000Y-68138500D01*
X147568250Y-68138500D01*
X147727000Y-67979750D01*
X147727000Y-67824690D01*
X147630327Y-67591301D01*
X147451698Y-67412673D01*
X147218309Y-67316000D01*
X146950750Y-67316000D01*
X146033250Y-67316000D01*
X146033250Y-67316000D01*
X145992580Y-67316000D01*
X146018828Y-67252788D01*
X146019170Y-66860931D01*
X145869529Y-66498771D01*
X145592686Y-66221445D01*
X145230788Y-66071172D01*
X144838931Y-66070830D01*
X144476771Y-66220471D01*
X144199445Y-66497314D01*
X144103803Y-66727645D01*
X143981000Y-66604842D01*
X143981000Y-66534046D01*
X144038123Y-66522963D01*
X144250927Y-66383173D01*
X144393377Y-66172140D01*
X144443440Y-65922500D01*
X144443440Y-65522500D01*
X144420266Y-65403058D01*
X144443440Y-65287500D01*
X144443440Y-65216029D01*
X144635907Y-65177745D01*
X144890579Y-65007579D01*
X145081079Y-64817079D01*
X145251245Y-64562406D01*
X145311000Y-64262000D01*
X145311000Y-61468000D01*
X145251245Y-61167594D01*
X145081079Y-60912921D01*
X144890579Y-60722421D01*
X144635907Y-60552255D01*
X144443440Y-60513971D01*
X144443440Y-60442500D01*
X144420266Y-60323058D01*
X144443440Y-60207500D01*
X144443440Y-59807500D01*
X144420266Y-59688058D01*
X144443440Y-59572500D01*
X144443440Y-59172500D01*
X144425111Y-59078028D01*
X144431000Y-59063810D01*
X144431000Y-58996250D01*
X144404006Y-58969256D01*
X144396463Y-58930377D01*
X144256673Y-58717573D01*
X144138049Y-58637500D01*
X144272250Y-58637500D01*
X144431000Y-58478750D01*
X144431000Y-58411190D01*
X144334327Y-58177801D01*
X144155698Y-57999173D01*
X143922309Y-57902500D01*
X143654750Y-57902500D01*
X143496000Y-58061250D01*
X143496000Y-58525060D01*
X142896000Y-58525060D01*
X142896000Y-58061250D01*
X142737250Y-57902500D01*
X142469691Y-57902500D01*
X142236302Y-57999173D01*
X142090856Y-58144618D01*
X141938407Y-58042755D01*
X141638000Y-57983000D01*
X138303000Y-57983000D01*
X138303000Y-53871000D01*
X149234842Y-53871000D01*
X147840921Y-55264921D01*
X147670755Y-55519593D01*
X147640358Y-55672407D01*
X147611000Y-55820000D01*
X147611000Y-57925954D01*
X147553877Y-57937037D01*
X147341073Y-58076827D01*
X147198623Y-58287860D01*
X147148560Y-58537500D01*
X147148560Y-58763210D01*
X147008788Y-58705172D01*
X146616931Y-58704830D01*
X146254771Y-58854471D01*
X145977445Y-59131314D01*
X145827172Y-59493212D01*
X145826830Y-59885069D01*
X145976471Y-60247229D01*
X146253314Y-60524555D01*
X146615212Y-60674828D01*
X146742581Y-60674939D01*
X146829094Y-60732745D01*
X146864009Y-60739690D01*
X146508771Y-60886471D01*
X146231445Y-61163314D01*
X146081172Y-61525212D01*
X146080830Y-61917069D01*
X146230471Y-62279229D01*
X146507314Y-62556555D01*
X146869212Y-62706828D01*
X147148560Y-62707072D01*
X147148560Y-62747500D01*
X147171734Y-62866942D01*
X147148560Y-62982500D01*
X147148560Y-63382500D01*
X147171734Y-63501942D01*
X147148560Y-63617500D01*
X147148560Y-64017500D01*
X147171734Y-64136942D01*
X147148560Y-64252500D01*
X147148560Y-64652500D01*
X147171734Y-64771942D01*
X147148560Y-64887500D01*
X147148560Y-65287500D01*
X147171734Y-65406942D01*
X147148560Y-65522500D01*
X147148560Y-65922500D01*
X147195537Y-66164623D01*
X147335327Y-66377427D01*
X147546360Y-66519877D01*
X147796000Y-66569940D01*
X148727902Y-66569940D01*
X148557282Y-66740560D01*
X148394000Y-66740560D01*
X148151877Y-66787537D01*
X147939073Y-66927327D01*
X147796623Y-67138360D01*
X147746560Y-67388000D01*
X147746560Y-68588000D01*
X147793537Y-68830123D01*
X147933327Y-69042927D01*
X147997637Y-69086337D01*
X147855673Y-69228302D01*
X147759000Y-69461691D01*
X147759000Y-69729250D01*
X147917750Y-69888000D01*
X148619000Y-69888000D01*
X148619000Y-69795000D01*
X149069000Y-69795000D01*
X149069000Y-69888000D01*
X149770250Y-69888000D01*
X149929000Y-69729250D01*
X149929000Y-69461691D01*
X149832327Y-69228302D01*
X149690850Y-69086824D01*
X149748927Y-69048673D01*
X149891377Y-68837640D01*
X149941440Y-68588000D01*
X149941440Y-67576718D01*
X150161079Y-67357079D01*
X150331245Y-67102406D01*
X150354180Y-66987103D01*
X150493327Y-67198927D01*
X150704360Y-67341377D01*
X150954000Y-67391440D01*
X152154000Y-67391440D01*
X152396123Y-67344463D01*
X152608927Y-67204673D01*
X152653614Y-67138471D01*
X152693327Y-67198927D01*
X152904360Y-67341377D01*
X153154000Y-67391440D01*
X154354000Y-67391440D01*
X154596123Y-67344463D01*
X154808927Y-67204673D01*
X154893758Y-67079000D01*
X155233685Y-67079000D01*
X155299327Y-67178927D01*
X155410125Y-67253717D01*
X155181282Y-67482560D01*
X154932000Y-67482560D01*
X154689877Y-67529537D01*
X154477073Y-67669327D01*
X154432386Y-67735529D01*
X154392673Y-67675073D01*
X154181640Y-67532623D01*
X153932000Y-67482560D01*
X152732000Y-67482560D01*
X152489877Y-67529537D01*
X152371690Y-67607173D01*
X152342788Y-67595172D01*
X151950931Y-67594830D01*
X151588771Y-67744471D01*
X151311445Y-68021314D01*
X151161172Y-68383212D01*
X151160830Y-68775069D01*
X151310471Y-69137229D01*
X151587314Y-69414555D01*
X151949212Y-69564828D01*
X152341069Y-69565170D01*
X152371547Y-69552577D01*
X152482360Y-69627377D01*
X152732000Y-69677440D01*
X153932000Y-69677440D01*
X154174123Y-69630463D01*
X154386927Y-69490673D01*
X154431614Y-69424471D01*
X154471327Y-69484927D01*
X154682360Y-69627377D01*
X154932000Y-69677440D01*
X156132000Y-69677440D01*
X156374123Y-69630463D01*
X156586927Y-69490673D01*
X156729377Y-69279640D01*
X156779440Y-69030000D01*
X156779440Y-68130000D01*
X156774566Y-68104880D01*
X156935245Y-67864406D01*
X156995000Y-67564000D01*
X156995000Y-67263453D01*
X157114927Y-67184673D01*
X157257377Y-66973640D01*
X157307440Y-66724000D01*
X157307440Y-66424000D01*
X157569750Y-66424000D01*
X157411000Y-66582750D01*
X157411000Y-66850309D01*
X157507673Y-67083698D01*
X157686301Y-67262327D01*
X157919690Y-67359000D01*
X158112250Y-67359000D01*
X158271000Y-67200250D01*
X158271000Y-66424000D01*
X158721000Y-66424000D01*
X158721000Y-67200250D01*
X158879750Y-67359000D01*
X159072310Y-67359000D01*
X159305699Y-67262327D01*
X159484327Y-67083698D01*
X159581000Y-66850309D01*
X159581000Y-66582750D01*
X159422250Y-66424000D01*
X158721000Y-66424000D01*
X158271000Y-66424000D01*
X158271000Y-66424000D01*
X157569750Y-66424000D01*
X157307440Y-66424000D01*
X157307440Y-65524000D01*
X157260463Y-65281877D01*
X157120673Y-65069073D01*
X157054471Y-65024386D01*
X157114927Y-64984673D01*
X157257377Y-64773640D01*
X157270340Y-64709000D01*
X157434454Y-64709000D01*
X157445537Y-64766123D01*
X157585327Y-64978927D01*
X157649637Y-65022337D01*
X157507673Y-65164302D01*
X157411000Y-65397691D01*
X157411000Y-65665250D01*
X157569750Y-65824000D01*
X158271000Y-65824000D01*
X158271000Y-65731000D01*
X158721000Y-65731000D01*
X158721000Y-65824000D01*
X159422250Y-65824000D01*
X159581000Y-65665250D01*
X159581000Y-65397691D01*
X159484327Y-65164302D01*
X159342850Y-65022824D01*
X159400927Y-64984673D01*
X159543377Y-64773640D01*
X159593440Y-64524000D01*
X159593440Y-63324000D01*
X159546463Y-63081877D01*
X159406673Y-62869073D01*
X159195640Y-62726623D01*
X158946000Y-62676560D01*
X158046000Y-62676560D01*
X157803877Y-62723537D01*
X157591073Y-62863327D01*
X157448623Y-63074360D01*
X157435660Y-63139000D01*
X157271546Y-63139000D01*
X157260463Y-63081877D01*
X157120673Y-62869073D01*
X156909640Y-62726623D01*
X156660000Y-62676560D01*
X155760000Y-62676560D01*
X155517877Y-62723537D01*
X155305073Y-62863327D01*
X155162623Y-63074360D01*
X155132815Y-63223000D01*
X154893453Y-63223000D01*
X154814673Y-63103073D01*
X154603640Y-62960623D01*
X154354000Y-62910560D01*
X153154000Y-62910560D01*
X152911877Y-62957537D01*
X152699073Y-63097327D01*
X152654386Y-63163529D01*
X152614673Y-63103073D01*
X152484083Y-63014923D01*
X152622828Y-62680788D01*
X152622890Y-62609268D01*
X152666718Y-62565440D01*
X153424000Y-62565440D01*
X153666123Y-62518463D01*
X153878927Y-62378673D01*
X153923614Y-62312471D01*
X153963327Y-62372927D01*
X154174360Y-62515377D01*
X154424000Y-62565440D01*
X155624000Y-62565440D01*
X155866123Y-62518463D01*
X156078927Y-62378673D01*
X156221377Y-62167640D01*
X156271440Y-61918000D01*
X156271440Y-61018000D01*
X156224463Y-60775877D01*
X156084673Y-60563073D01*
X155873640Y-60420623D01*
X155799814Y-60405818D01*
X155795424Y-60383750D01*
X155770697Y-60259440D01*
X156660000Y-60259440D01*
X156902123Y-60212463D01*
X157114927Y-60072673D01*
X157257377Y-59861640D01*
X157307440Y-59612000D01*
X157307440Y-59312000D01*
X157569750Y-59312000D01*
X157411000Y-59470750D01*
X157411000Y-59738309D01*
X157507673Y-59971698D01*
X157686301Y-60150327D01*
X157919690Y-60247000D01*
X158112250Y-60247000D01*
X158271000Y-60088250D01*
X158271000Y-59312000D01*
X158721000Y-59312000D01*
X158721000Y-60088250D01*
X158879750Y-60247000D01*
X159072310Y-60247000D01*
X159305699Y-60150327D01*
X159484327Y-59971698D01*
X159581000Y-59738309D01*
X159581000Y-59470750D01*
X159422250Y-59312000D01*
X158721000Y-59312000D01*
X158271000Y-59312000D01*
X158271000Y-59312000D01*
X157569750Y-59312000D01*
X157307440Y-59312000D01*
X157307440Y-58412000D01*
X157260463Y-58169877D01*
X157120673Y-57957073D01*
X157054471Y-57912386D01*
X157114927Y-57872673D01*
X157257377Y-57661640D01*
X157270340Y-57597000D01*
X157434454Y-57597000D01*
X157445537Y-57654123D01*
X157585327Y-57866927D01*
X157649637Y-57910337D01*
X157507673Y-58052302D01*
X157411000Y-58285691D01*
X157411000Y-58553250D01*
X157569750Y-58712000D01*
X158271000Y-58712000D01*
X158271000Y-58619000D01*
X158721000Y-58619000D01*
X158721000Y-58712000D01*
X159422250Y-58712000D01*
X159581000Y-58553250D01*
X159581000Y-58285691D01*
X159484327Y-58052302D01*
X159342850Y-57910824D01*
X159400927Y-57872673D01*
X159543377Y-57661640D01*
X159593440Y-57412000D01*
X159593440Y-56212000D01*
X159546463Y-55969877D01*
X159406673Y-55757073D01*
X159195640Y-55614623D01*
X158946000Y-55564560D01*
X158046000Y-55564560D01*
X157803877Y-55611537D01*
X157591073Y-55751327D01*
X157448623Y-55962360D01*
X157435660Y-56027000D01*
X157271546Y-56027000D01*
X157260463Y-55969877D01*
X157120673Y-55757073D01*
X156909640Y-55614623D01*
X156660000Y-55564560D01*
X155760000Y-55564560D01*
X155517877Y-55611537D01*
X155305073Y-55751327D01*
X155162623Y-55962360D01*
X155112560Y-56212000D01*
X155112560Y-56311883D01*
X155068673Y-56245073D01*
X154857640Y-56102623D01*
X154608000Y-56052560D01*
X153408000Y-56052560D01*
X153165877Y-56099537D01*
X152953073Y-56239327D01*
X152908386Y-56305529D01*
X152868673Y-56245073D01*
X152657640Y-56102623D01*
X152408000Y-56052560D01*
X151208000Y-56052560D01*
X150965877Y-56099537D01*
X150753073Y-56239327D01*
X150645000Y-56399432D01*
X150645000Y-56234155D01*
X150694555Y-56184686D01*
X150844828Y-55822788D01*
X150845170Y-55430931D01*
X150725373Y-55141000D01*
X160573378Y-55141000D01*
X160559172Y-55175212D01*
X160559110Y-55246732D01*
X160226921Y-55578921D01*
X160056755Y-55833593D01*
X160037732Y-55929229D01*
X159997000Y-56134000D01*
X159997000Y-63500000D01*
X160056755Y-63800407D01*
X160226921Y-64055079D01*
X160754418Y-64582576D01*
X160478771Y-64696471D01*
X160201445Y-64973314D01*
X160051172Y-65335212D01*
X160050830Y-65727069D01*
X160200471Y-66089229D01*
X160477314Y-66366555D01*
X160839212Y-66516828D01*
X161231069Y-66517170D01*
X161344933Y-66470122D01*
X161432790Y-66529427D01*
X161682430Y-66579490D01*
X162871334Y-66579490D01*
X162510771Y-66728471D01*
X162233445Y-67005314D01*
X162083172Y-67367212D01*
X162082970Y-67598510D01*
X161682430Y-67598510D01*
X161440307Y-67645487D01*
X161227503Y-67785277D01*
X161220940Y-67795000D01*
X160528000Y-67795000D01*
X160227594Y-67854755D01*
X159972921Y-68024921D01*
X159972919Y-68024924D01*
X158448921Y-69548921D01*
X158278755Y-69803593D01*
X158262213Y-69886755D01*
X158219000Y-70104000D01*
X158219000Y-77516547D01*
X158099073Y-77595327D01*
X157956623Y-77806360D01*
X157906560Y-78056000D01*
X157906560Y-79256000D01*
X157953537Y-79498123D01*
X158093327Y-79710927D01*
X158159529Y-79755614D01*
X158099073Y-79795327D01*
X157956623Y-80006360D01*
X157906560Y-80256000D01*
X157906560Y-81456000D01*
X157953537Y-81698123D01*
X158093327Y-81910927D01*
X158219000Y-81995758D01*
X158219000Y-82674114D01*
X158150293Y-82719247D01*
X158007843Y-82930280D01*
X157957780Y-83179920D01*
X157957780Y-83977480D01*
X158004757Y-84219603D01*
X158075951Y-84327982D01*
X158007843Y-84428880D01*
X157957780Y-84678520D01*
X157957780Y-85476080D01*
X158004757Y-85718203D01*
X158144547Y-85931007D01*
X158355580Y-86073457D01*
X158605220Y-86123520D01*
X159402780Y-86123520D01*
X159644903Y-86076543D01*
X159857707Y-85936753D01*
X159907964Y-85862300D01*
X161147414Y-85862300D01*
X161192547Y-85931007D01*
X161267000Y-85981264D01*
X161267000Y-86106000D01*
X161326755Y-86406407D01*
X161496921Y-86661079D01*
X162004919Y-87169076D01*
X162004921Y-87169079D01*
X162259594Y-87339245D01*
X162560000Y-87399000D01*
X166116000Y-87399000D01*
X166416407Y-87339245D01*
X166671079Y-87169079D01*
X167005000Y-86835158D01*
X167005000Y-95315000D01*
X154705281Y-95315000D01*
X156006372Y-94777400D01*
X157029806Y-93755751D01*
X157584368Y-92420218D01*
X157585630Y-90974126D01*
X157033400Y-89637628D01*
X156011751Y-88614194D01*
X154676218Y-88059632D01*
X153230126Y-88058370D01*
X151893628Y-88610600D01*
X150870194Y-89632249D01*
X150315632Y-90967782D01*
X150314370Y-92413874D01*
X150866600Y-93750372D01*
X151888249Y-94773806D01*
X153191588Y-95315000D01*
X108705281Y-95315000D01*
X110006372Y-94777400D01*
X111029806Y-93755751D01*
X111584368Y-92420218D01*
X111585630Y-90974126D01*
X111033400Y-89637628D01*
X110472752Y-89076000D01*
X115509750Y-89076000D01*
X115351000Y-89234750D01*
X115351000Y-89502309D01*
X115447673Y-89735698D01*
X115626301Y-89914327D01*
X115859690Y-90011000D01*
X116127250Y-90011000D01*
X116286000Y-89852250D01*
X116286000Y-89076000D01*
X116886000Y-89076000D01*
X116886000Y-89852250D01*
X117044750Y-90011000D01*
X117312310Y-90011000D01*
X117545699Y-89914327D01*
X117724327Y-89735698D01*
X117821000Y-89502309D01*
X117821000Y-89234750D01*
X117662250Y-89076000D01*
X116886000Y-89076000D01*
X116286000Y-89076000D01*
X116286000Y-89076000D01*
X115509750Y-89076000D01*
X110472752Y-89076000D01*
X110011751Y-88614194D01*
X108676218Y-88059632D01*
X107230126Y-88058370D01*
X105893628Y-88610600D01*
X104870194Y-89632249D01*
X104315632Y-90967782D01*
X104314370Y-92413874D01*
X104866600Y-93750372D01*
X105888249Y-94773806D01*
X107191588Y-95315000D01*
X104267000Y-95315000D01*
X104267000Y-79934076D01*
X105189102Y-79934076D01*
X104980106Y-80009992D01*
X104889252Y-80533259D01*
X104980106Y-80990008D01*
X105189102Y-81065924D01*
X105260050Y-80994975D01*
X106250000Y-80994975D01*
X105684076Y-81560898D01*
X105759992Y-81769894D01*
X106283259Y-81860748D01*
X106740008Y-81769894D01*
X106815924Y-81560898D01*
X106250000Y-80994975D01*
X105260050Y-80994975D01*
X105755025Y-80500000D01*
X105189102Y-79934076D01*
X104267000Y-79934076D01*
X104267000Y-79139252D01*
X106216741Y-79139252D01*
X105759992Y-79230106D01*
X105684076Y-79439102D01*
X106250000Y-80005025D01*
X106320949Y-79934076D01*
X107310898Y-79934076D01*
X106744975Y-80500000D01*
X107310898Y-81065924D01*
X107519894Y-80990008D01*
X107610748Y-80466741D01*
X107519894Y-80009992D01*
X107310898Y-79934076D01*
X106320949Y-79934076D01*
X106815924Y-79439102D01*
X106740008Y-79230106D01*
X106216741Y-79139252D01*
X104267000Y-79139252D01*
X104267000Y-64379942D01*
X106102441Y-64379942D01*
X105886184Y-64470183D01*
X105787246Y-65032422D01*
X105886184Y-65529817D01*
X106102441Y-65620058D01*
X106722498Y-65000000D01*
X106102441Y-64379942D01*
X104267000Y-64379942D01*
X104267000Y-45339000D01*
X106550950Y-45339000D01*
X105893628Y-45610600D01*
G36*
X160840931Y-74452830D02*
X160478771Y-74602471D01*
X160201445Y-74879314D01*
X160051172Y-75241212D01*
X160050830Y-75633069D01*
X160200471Y-75995229D01*
X160477314Y-76272555D01*
X160839212Y-76422828D01*
X160910733Y-76422890D01*
X160988919Y-76501076D01*
X160988921Y-76501079D01*
X161136033Y-76599376D01*
X161067172Y-76765212D01*
X161066830Y-77157069D01*
X161216471Y-77519229D01*
X161234866Y-77537656D01*
X161147073Y-77595327D01*
X161004623Y-77806360D01*
X160954560Y-78056000D01*
X160954560Y-79256000D01*
X161001537Y-79498123D01*
X161141327Y-79710927D01*
X161207529Y-79755614D01*
X161147073Y-79795327D01*
X161004623Y-80006360D01*
X160954560Y-80256000D01*
X160954560Y-81456000D01*
X161001537Y-81698123D01*
X161141327Y-81910927D01*
X161267000Y-81995758D01*
X161267000Y-82674114D01*
X161198293Y-82719247D01*
X161055843Y-82930280D01*
X161005780Y-83179920D01*
X161005780Y-83977480D01*
X161052757Y-84219603D01*
X161100511Y-84292300D01*
X159956160Y-84292300D01*
X160000157Y-84227120D01*
X160050220Y-83977480D01*
X160050220Y-83179920D01*
X160003243Y-82937797D01*
X159863453Y-82724993D01*
X159789000Y-82674736D01*
X159789000Y-81995453D01*
X159908927Y-81916673D01*
X160051377Y-81705640D01*
X160101440Y-81456000D01*
X160101440Y-80256000D01*
X160054463Y-80013877D01*
X159914673Y-79801073D01*
X159848471Y-79756386D01*
X159908927Y-79716673D01*
X160051377Y-79505640D01*
X160101440Y-79256000D01*
X160101440Y-78056000D01*
X160054463Y-77813877D01*
X159914673Y-77601073D01*
X159789000Y-77516242D01*
X159789000Y-70429158D01*
X160853157Y-69365000D01*
X161132434Y-69365000D01*
X161221757Y-69500977D01*
X161362964Y-69596293D01*
X161227503Y-69685277D01*
X161085053Y-69896310D01*
X161034990Y-70145950D01*
X161034990Y-70946050D01*
X161081967Y-71188173D01*
X161088642Y-71198335D01*
X160963445Y-71323314D01*
X160813172Y-71685212D01*
X160812830Y-72077069D01*
X160962471Y-72439229D01*
X161034990Y-72511875D01*
X161034990Y-73110050D01*
X161081967Y-73352173D01*
X161221757Y-73564977D01*
X161358065Y-73656987D01*
X161322731Y-73671623D01*
X161144103Y-73850252D01*
X161047430Y-74083641D01*
X161047430Y-74453010D01*
X160840931Y-74452830D01*
X160840931Y-74452830D01*
G37*
X160840931Y-74452830D02*
X160478771Y-74602471D01*
X160201445Y-74879314D01*
X160051172Y-75241212D01*
X160050830Y-75633069D01*
X160200471Y-75995229D01*
X160477314Y-76272555D01*
X160839212Y-76422828D01*
X160910733Y-76422890D01*
X160988919Y-76501076D01*
X160988921Y-76501079D01*
X161136033Y-76599376D01*
X161067172Y-76765212D01*
X161066830Y-77157069D01*
X161216471Y-77519229D01*
X161234866Y-77537656D01*
X161147073Y-77595327D01*
X161004623Y-77806360D01*
X160954560Y-78056000D01*
X160954560Y-79256000D01*
X161001537Y-79498123D01*
X161141327Y-79710927D01*
X161207529Y-79755614D01*
X161147073Y-79795327D01*
X161004623Y-80006360D01*
X160954560Y-80256000D01*
X160954560Y-81456000D01*
X161001537Y-81698123D01*
X161141327Y-81910927D01*
X161267000Y-81995758D01*
X161267000Y-82674114D01*
X161198293Y-82719247D01*
X161055843Y-82930280D01*
X161005780Y-83179920D01*
X161005780Y-83977480D01*
X161052757Y-84219603D01*
X161100511Y-84292300D01*
X159956160Y-84292300D01*
X160000157Y-84227120D01*
X160050220Y-83977480D01*
X160050220Y-83179920D01*
X160003243Y-82937797D01*
X159863453Y-82724993D01*
X159789000Y-82674736D01*
X159789000Y-81995453D01*
X159908927Y-81916673D01*
X160051377Y-81705640D01*
X160101440Y-81456000D01*
X160101440Y-80256000D01*
X160054463Y-80013877D01*
X159914673Y-79801073D01*
X159848471Y-79756386D01*
X159908927Y-79716673D01*
X160051377Y-79505640D01*
X160101440Y-79256000D01*
X160101440Y-78056000D01*
X160054463Y-77813877D01*
X159914673Y-77601073D01*
X159789000Y-77516242D01*
X159789000Y-70429158D01*
X160853157Y-69365000D01*
X161132434Y-69365000D01*
X161221757Y-69500977D01*
X161362964Y-69596293D01*
X161227503Y-69685277D01*
X161085053Y-69896310D01*
X161034990Y-70145950D01*
X161034990Y-70946050D01*
X161081967Y-71188173D01*
X161088642Y-71198335D01*
X160963445Y-71323314D01*
X160813172Y-71685212D01*
X160812830Y-72077069D01*
X160962471Y-72439229D01*
X161034990Y-72511875D01*
X161034990Y-73110050D01*
X161081967Y-73352173D01*
X161221757Y-73564977D01*
X161358065Y-73656987D01*
X161322731Y-73671623D01*
X161144103Y-73850252D01*
X161047430Y-74083641D01*
X161047430Y-74453010D01*
X160840931Y-74452830D01*
G36*
X162955860Y-74409975D02*
X163959540Y-74409975D01*
X164081500Y-74288015D01*
X164084247Y-74302173D01*
X164224037Y-74514977D01*
X164435070Y-74657427D01*
X164684710Y-74707490D01*
X164800140Y-74707490D01*
X164800140Y-75135702D01*
X164544921Y-75390921D01*
X164374755Y-75645593D01*
X164374755Y-75645594D01*
X164315000Y-75946000D01*
X164315000Y-76476744D01*
X164301245Y-76407593D01*
X164131079Y-76152921D01*
X163877079Y-75898921D01*
X163877076Y-75898919D01*
X163619222Y-75641064D01*
X163842989Y-75548377D01*
X164021617Y-75369748D01*
X164118290Y-75136359D01*
X164118290Y-74968775D01*
X163959540Y-74810025D01*
X162955860Y-74810025D01*
X162955860Y-75003000D01*
X162209860Y-75003000D01*
X162209860Y-74810025D01*
X162189860Y-74810025D01*
X162189860Y-74409975D01*
X162209860Y-74409975D01*
X162209860Y-74217000D01*
X162955860Y-74217000D01*
X162955860Y-74409975D01*
X162955860Y-74409975D01*
G37*
X162955860Y-74409975D02*
X163959540Y-74409975D01*
X164081500Y-74288015D01*
X164084247Y-74302173D01*
X164224037Y-74514977D01*
X164435070Y-74657427D01*
X164684710Y-74707490D01*
X164800140Y-74707490D01*
X164800140Y-75135702D01*
X164544921Y-75390921D01*
X164374755Y-75645593D01*
X164374755Y-75645594D01*
X164315000Y-75946000D01*
X164315000Y-76476744D01*
X164301245Y-76407593D01*
X164131079Y-76152921D01*
X163877079Y-75898921D01*
X163877076Y-75898919D01*
X163619222Y-75641064D01*
X163842989Y-75548377D01*
X164021617Y-75369748D01*
X164118290Y-75136359D01*
X164118290Y-74968775D01*
X163959540Y-74810025D01*
X162955860Y-74810025D01*
X162955860Y-75003000D01*
X162209860Y-75003000D01*
X162209860Y-74810025D01*
X162189860Y-74810025D01*
X162189860Y-74409975D01*
X162209860Y-74409975D01*
X162209860Y-74217000D01*
X162955860Y-74217000D01*
X162955860Y-74409975D01*
G36*
X136645560Y-62510000D02*
X136692537Y-62752123D01*
X136832327Y-62964927D01*
X136883000Y-62999132D01*
X136883000Y-63936842D01*
X136589332Y-64230510D01*
X136483528Y-64230510D01*
X135865939Y-63612921D01*
X135611267Y-63442755D01*
X135509000Y-63422413D01*
X135509000Y-61849000D01*
X136645560Y-61849000D01*
X136645560Y-62510000D01*
X136645560Y-62510000D01*
G37*
X136645560Y-62510000D02*
X136692537Y-62752123D01*
X136832327Y-62964927D01*
X136883000Y-62999132D01*
X136883000Y-63936842D01*
X136589332Y-64230510D01*
X136483528Y-64230510D01*
X135865939Y-63612921D01*
X135611267Y-63442755D01*
X135509000Y-63422413D01*
X135509000Y-61849000D01*
X136645560Y-61849000D01*
X136645560Y-62510000D01*
G36*
X143875057Y-49921106D02*
X143414722Y-50380637D01*
X143165284Y-50981352D01*
X143164716Y-51631795D01*
X143366264Y-52119578D01*
X143184842Y-52301000D01*
X138598648Y-52301000D01*
X138799629Y-52100370D01*
X139012757Y-51587100D01*
X139013242Y-51031339D01*
X138801010Y-50517697D01*
X138408370Y-50124371D01*
X138303000Y-50080618D01*
X138303000Y-49807000D01*
X144151214Y-49807000D01*
X143875057Y-49921106D01*
X143875057Y-49921106D01*
G37*
X143875057Y-49921106D02*
X143414722Y-50380637D01*
X143165284Y-50981352D01*
X143164716Y-51631795D01*
X143366264Y-52119578D01*
X143184842Y-52301000D01*
X138598648Y-52301000D01*
X138799629Y-52100370D01*
X139012757Y-51587100D01*
X139013242Y-51031339D01*
X138801010Y-50517697D01*
X138408370Y-50124371D01*
X138303000Y-50080618D01*
X138303000Y-49807000D01*
X144151214Y-49807000D01*
X143875057Y-49921106D01*
G36*
X151893628Y-45610600D02*
X150870194Y-46632249D01*
X150315632Y-47967782D01*
X150314370Y-49413874D01*
X150866600Y-50750372D01*
X151653853Y-51539000D01*
X151455158Y-51539000D01*
X147113079Y-47196921D01*
X146858407Y-47026755D01*
X146558000Y-46967000D01*
X138303000Y-46967000D01*
X138303000Y-45339000D01*
X152550950Y-45339000D01*
X151893628Y-45610600D01*
X151893628Y-45610600D01*
G37*
X151893628Y-45610600D02*
X150870194Y-46632249D01*
X150315632Y-47967782D01*
X150314370Y-49413874D01*
X150866600Y-50750372D01*
X151653853Y-51539000D01*
X151455158Y-51539000D01*
X147113079Y-47196921D01*
X146858407Y-47026755D01*
X146558000Y-46967000D01*
X138303000Y-46967000D01*
X138303000Y-45339000D01*
X152550950Y-45339000D01*
X151893628Y-45610600D01*
G36*
X167005000Y-51161663D02*
X167005000Y-51161663D01*
X166820788Y-51085172D01*
X166813121Y-51085165D01*
X166831050Y-51041880D01*
X166831050Y-50546890D01*
X166672300Y-50388140D01*
X165996025Y-50388140D01*
X165996025Y-50408140D01*
X165595975Y-50408140D01*
X165595975Y-50388140D01*
X165403000Y-50388140D01*
X165403000Y-49642140D01*
X165595975Y-49642140D01*
X165595975Y-48638460D01*
X165474015Y-48516500D01*
X165488173Y-48513753D01*
X165539997Y-48479710D01*
X166154775Y-48479710D01*
X165996025Y-48638460D01*
X165996025Y-49642140D01*
X166672300Y-49642140D01*
X166831050Y-49483390D01*
X166831050Y-48988400D01*
X166734377Y-48755011D01*
X166555748Y-48576383D01*
X166322359Y-48479710D01*
X166154775Y-48479710D01*
X165539997Y-48479710D01*
X165700977Y-48373963D01*
X165843427Y-48162930D01*
X165893490Y-47913290D01*
X165893490Y-46112430D01*
X165846513Y-45870307D01*
X165706723Y-45657503D01*
X165495690Y-45515053D01*
X165246050Y-45464990D01*
X164445950Y-45464990D01*
X164203827Y-45511967D01*
X163991023Y-45651757D01*
X163936576Y-45732418D01*
X163543158Y-45339000D01*
X167005000Y-45339000D01*
X167005000Y-51161663D01*
X167005000Y-51161663D01*
G37*
X167005000Y-51161663D02*
X167005000Y-51161663D01*
X166820788Y-51085172D01*
X166813121Y-51085165D01*
X166831050Y-51041880D01*
X166831050Y-50546890D01*
X166672300Y-50388140D01*
X165996025Y-50388140D01*
X165996025Y-50408140D01*
X165595975Y-50408140D01*
X165595975Y-50388140D01*
X165403000Y-50388140D01*
X165403000Y-49642140D01*
X165595975Y-49642140D01*
X165595975Y-48638460D01*
X165474015Y-48516500D01*
X165488173Y-48513753D01*
X165539997Y-48479710D01*
X166154775Y-48479710D01*
X165996025Y-48638460D01*
X165996025Y-49642140D01*
X166672300Y-49642140D01*
X166831050Y-49483390D01*
X166831050Y-48988400D01*
X166734377Y-48755011D01*
X166555748Y-48576383D01*
X166322359Y-48479710D01*
X166154775Y-48479710D01*
X165539997Y-48479710D01*
X165700977Y-48373963D01*
X165843427Y-48162930D01*
X165893490Y-47913290D01*
X165893490Y-46112430D01*
X165846513Y-45870307D01*
X165706723Y-45657503D01*
X165495690Y-45515053D01*
X165246050Y-45464990D01*
X164445950Y-45464990D01*
X164203827Y-45511967D01*
X163991023Y-45651757D01*
X163936576Y-45732418D01*
X163543158Y-45339000D01*
X167005000Y-45339000D01*
X167005000Y-51161663D01*
G36*
X163551781Y-47567939D02*
X163551781Y-47567939D01*
X163798510Y-47732798D01*
X163798510Y-47913290D01*
X163845487Y-48155413D01*
X163985277Y-48368217D01*
X164132019Y-48467270D01*
X163495950Y-48467270D01*
X163253827Y-48514247D01*
X163041023Y-48654037D01*
X162898573Y-48865070D01*
X162848510Y-49114710D01*
X162848510Y-50078921D01*
X162510771Y-50218471D01*
X162233445Y-50495314D01*
X162225825Y-50513665D01*
X162100300Y-50388140D01*
X161424025Y-50388140D01*
X161424025Y-50408140D01*
X161023975Y-50408140D01*
X161023975Y-50388140D01*
X160831000Y-50388140D01*
X160831000Y-49642140D01*
X161023975Y-49642140D01*
X161023975Y-48638460D01*
X160902015Y-48516500D01*
X160916173Y-48513753D01*
X160967997Y-48479710D01*
X161582775Y-48479710D01*
X161424025Y-48638460D01*
X161424025Y-49642140D01*
X162100300Y-49642140D01*
X162259050Y-49483390D01*
X162259050Y-48988400D01*
X162162377Y-48755011D01*
X161983748Y-48576383D01*
X161750359Y-48479710D01*
X161582775Y-48479710D01*
X160967997Y-48479710D01*
X161128977Y-48373963D01*
X161271427Y-48162930D01*
X161321490Y-47913290D01*
X161321490Y-46505000D01*
X162488842Y-46505000D01*
X163551781Y-47567939D01*
X163551781Y-47567939D01*
G37*
X163551781Y-47567939D02*
X163551781Y-47567939D01*
X163798510Y-47732798D01*
X163798510Y-47913290D01*
X163845487Y-48155413D01*
X163985277Y-48368217D01*
X164132019Y-48467270D01*
X163495950Y-48467270D01*
X163253827Y-48514247D01*
X163041023Y-48654037D01*
X162898573Y-48865070D01*
X162848510Y-49114710D01*
X162848510Y-50078921D01*
X162510771Y-50218471D01*
X162233445Y-50495314D01*
X162225825Y-50513665D01*
X162100300Y-50388140D01*
X161424025Y-50388140D01*
X161424025Y-50408140D01*
X161023975Y-50408140D01*
X161023975Y-50388140D01*
X160831000Y-50388140D01*
X160831000Y-49642140D01*
X161023975Y-49642140D01*
X161023975Y-48638460D01*
X160902015Y-48516500D01*
X160916173Y-48513753D01*
X160967997Y-48479710D01*
X161582775Y-48479710D01*
X161424025Y-48638460D01*
X161424025Y-49642140D01*
X162100300Y-49642140D01*
X162259050Y-49483390D01*
X162259050Y-48988400D01*
X162162377Y-48755011D01*
X161983748Y-48576383D01*
X161750359Y-48479710D01*
X161582775Y-48479710D01*
X160967997Y-48479710D01*
X161128977Y-48373963D01*
X161271427Y-48162930D01*
X161321490Y-47913290D01*
X161321490Y-46505000D01*
X162488842Y-46505000D01*
X163551781Y-47567939D01*
G36*
X157178921Y-46942921D02*
X157166948Y-46960839D01*
X157033400Y-46637628D01*
X156011751Y-45614194D01*
X155349011Y-45339000D01*
X158782842Y-45339000D01*
X157178921Y-46942921D01*
X157178921Y-46942921D01*
G37*
X157178921Y-46942921D02*
X157166948Y-46960839D01*
X157033400Y-46637628D01*
X156011751Y-45614194D01*
X155349011Y-45339000D01*
X158782842Y-45339000D01*
X157178921Y-46942921D01*
M02*
